<?xml version="1.0" encoding="utf-8"?>
<!-- Generator: Adobe Illustrator 21.1.0, SVG Export Plug-In . SVG Version: 6.00 Build 0)  -->
<svg version="1.1" id="Layer_4" xmlns="http://www.w3.org/2000/svg" xmlns:xlink="http://www.w3.org/1999/xlink" x="0px" y="0px"
	 viewBox="0 0 839 200" style="enable-background:new 0 0 839 200;" xml:space="preserve">
<style type="text/css">
	.st0{fill:#FFFFFF;}
	.st1{font-family:'ProductSans-Bold';}
	.st2{font-size:82.1129px;}
	.st3{font-family:'ProductSans-Regular';}
	.st4{font-size:60px;}
</style>
<g id="XMLID_261_">
	<path id="XMLID_259_" class="st0" d="M32.3,0H0l92.3,160l16.2-28L32.3,0z"/>
	<path id="XMLID_258_" class="st0" d="M120.9,91L68.3,0H36.1l74.3,128.8l10.5-18.2c1.7-2.8,2.8-6.2,2.8-9.8
		C123.6,97.2,122.6,93.9,120.9,91z"/>
	<path id="XMLID_257_" class="st0" d="M56.3,104.1L0.9,200h32.3l39.3-68L56.3,104.1z"/>
	<path id="XMLID_256_" class="st0" d="M74.3,135.3L37,200h32.2l21.3-36.8L74.3,135.3z"/>
</g>
<text transform="matrix(1 0 0 1 133.0005 95.091)" class="st0 st1 st2">GDG HYDERABAD</text>
<text transform="matrix(1 0 0 1 153 167.6499)" class="st0 st3 st4">Connect | Code | Innovate</text>
</svg>
