<svg id="Layer_1" data-name="Layer 1" xmlns="http://www.w3.org/2000/svg" viewBox="0 0 996 179.17"><defs><style>.cls-1{fill:#4d4f50;}.cls-2{fill:#4cadc1;}</style></defs><title>Code_School</title><path class="cls-1" d="M280.77,196.83c-15.28,0-24.77-9-24.77-28.46,0-19,9.49-28.46,24.77-28.46,5.8,0,11.59,2.11,16.34,4.74l9.49-18.44a58.62,58.62,0,0,0-27.4-6.85c-29,0-49.54,17.39-49.54,48.48,0,30.57,20.55,48.48,49.54,48.48,8.43,0,16.34-2.11,23.71-4.74l-9-17.92a30.21,30.21,0,0,1-13.17,3.16Zm415.79-31.62a15.67,15.67,0,0,1,10.54,4.22l5.27-15.81c-5.8-3.69-12.65-5.27-20.55-5.27-20,0-35.83,12.65-35.83,33.73s16.34,33.73,35.83,33.73a42.43,42.43,0,0,0,20.55-5.27l-5.27-15.81a14.71,14.71,0,0,1-10.54,4.22c-8.43,0-14.76-4.74-14.76-16.86s6.85-16.86,14.76-16.86ZM341.9,148.35c-20,0-35.83,12.65-35.83,33.73s16.34,33.73,35.83,33.73c20,0,35.83-12.65,35.83-33.73S361.93,148.35,341.9,148.35Zm0,53.23c-5.8,0-10.54-6.85-10.54-19s4.74-19,10.54-19,10.54,6.85,10.54,19C352.44,194.2,347.7,201.58,341.9,201.58Zm496.42-53.23c-20,0-35.83,12.65-35.83,33.73s16.34,33.73,35.83,33.73,35.83-12.65,35.83-33.73C874.69,161,858.35,148.35,838.32,148.35Zm0,53.23c-5.8,0-10.54-6.85-10.54-19s4.74-19,10.54-19,10.54,6.85,10.54,19C848.86,194.2,844.12,201.58,838.32,201.58Zm80.1-53.23c-20,0-35.83,12.65-35.83,33.73s16.34,33.73,35.83,33.73c20,0,35.83-12.65,35.83-33.73S937.92,148.35,918.43,148.35Zm0,53.23c-5.8,0-10.54-6.85-10.54-19s4.74-19,10.54-19,10.54,6.85,10.54,19C928.44,194.2,923.7,201.58,918.43,201.58ZM510.54,200c-6.32,0-10.54-3.69-12.12-10.54,21.61.53,34.25-7.9,34.25-21.08,0-12.12-11.59-20.55-24.77-20.55-20,0-35.83,12.65-35.83,33.73s14.23,33.73,34.25,33.73c19,0,30-14.23,30-14.23L530,190.51C530,191,520.55,200,510.54,200Zm-2.63-36.89c3.69,0,5.27,3.16,5.27,6.32,0,5.8-3.69,9-15.81,9.49C498.42,168.9,503.16,163.11,507.9,163.11Zm-51.64,27.4V117.26H432v41.1a24.06,24.06,0,0,0-20-10.54c-14.76,0-26.35,12.65-26.35,33.73s12.12,33.73,26.35,33.73c9,0,16.34-4.74,21.61-12.65,3.16,9,10.54,12.65,19,12.65l12.65-2.11,1.58-17.39S456.26,202.1,456.26,190.51ZM422,200c-5.8,0-10.54-6.32-10.54-18.44,0-11.59,4.74-18.44,10.54-18.44s10.54,6.32,10.54,18.44S427.8,200,422,200Zm364.67-9.49V166.27c0-11.07-3.69-17.92-15.28-17.92A25.87,25.87,0,0,0,749.26,161V117.79H725v96.44h24.24V191c0-21.08,6.32-26.88,10.54-26.88,2.63,0,3.69,2.11,3.69,6.32v23.19c0,16.34,9,22.66,20,22.66,8.43,0,12.65-2.11,12.65-2.11l1.58-17.39C797.22,195.78,786.68,201.58,786.68,190.51Zm200.78,0V117.26H963.22v75.36c0,16.34,9.49,22.66,20.55,22.66,8.43,0,12.65-2.11,12.65-2.11L998,195.78c-.53,0-10.54,6.32-10.54-5.27Zm-364.67-33.2c-14.76-5.27-18.44-6.85-18.44-12.12,0-4.74,3.16-7.38,8.43-7.38,12.12,0,27.4,7.9,27.4,7.9L647,129.38s-11.07-10-32.67-10c-23.19,0-34.78,12.12-34.78,27.93,0,12.12,5.8,22.66,24.77,28.46,14.76,4.74,17.39,8.43,17.39,13.17,0,5.8-4.22,8.43-11.07,8.43-13.7,0-30-10.54-30-10.54l-7.9,16.34s16.34,13.17,37.94,13.17c24.24,0,36.89-12.12,36.89-30,0-12.65-3.69-21.08-24.77-29Z" transform="translate(-2 -77.74)"/><path class="cls-2" d="M101.6,119.37v23.19l25.82,24.24L101.6,191v23.19l50.06-48Zm-19.5,72.2L55.75,167.32,82.1,143.08V119.89l-50.59,48,50.59,48ZM91.59,77.74a89.59,89.59,0,1,0,89.59,89.59A89.51,89.51,0,0,0,91.59,77.74Zm0,162.84a73.25,73.25,0,1,1,73.25-73.25A73.09,73.09,0,0,1,91.59,240.57Z" transform="translate(-2 -77.74)"/></svg>