<svg id="Layer_1" data-name="Layer 1" xmlns="http://www.w3.org/2000/svg" viewBox="0 0 985.72 266.57"><defs><style>.cls-1{fill:#0c090a;}</style></defs><title>GitHub</title><path class="cls-1" d="M192,138.43H109.16a3.87,3.87,0,0,0-3.87,3.87v40.5a3.88,3.88,0,0,0,3.87,3.88h32.31V237s-7.26,2.47-27.31,2.47c-23.67,0-56.73-8.65-56.73-81.35s34.42-82.28,66.74-82.28c28,0,40,4.93,47.7,7.3,2.41.74,4.64-1.66,4.64-3.8l9.24-39.13a3.61,3.61,0,0,0-1.48-3c-3.11-2.22-22.12-12.85-70.12-12.85-55.3,0-112,23.53-112,136.62s64.94,130,119.67,130c45.31,0,72.8-19.36,72.8-19.36,1.13-.63,1.25-2.21,1.25-2.93V142.3A3.87,3.87,0,0,0,192,138.43Z" transform="translate(-2.14 -24.34)"/><path class="cls-1" d="M618.88,37.89A3.86,3.86,0,0,0,615,34H568.39a3.88,3.88,0,0,0-3.86,3.89V128h-72.7V37.89A3.86,3.86,0,0,0,488,34H441.36a3.87,3.87,0,0,0-3.85,3.89V281.94a3.88,3.88,0,0,0,3.85,3.9H488a3.87,3.87,0,0,0,3.85-3.9V177.55h72.7l-.13,104.39a3.89,3.89,0,0,0,3.86,3.9H615a3.87,3.87,0,0,0,3.85-3.9Z" transform="translate(-2.14 -24.34)"/><path class="cls-1" d="M280,69.91a30.07,30.07,0,1,0-30.08,30.39A30.21,30.21,0,0,0,280,69.91Z" transform="translate(-2.14 -24.34)"/><path class="cls-1" d="M276.67,230.46V117.8a3.88,3.88,0,0,0-3.86-3.89H226.32a4.45,4.45,0,0,0-4,4.34v161.4c0,4.74,3,6.15,6.78,6.15h41.89c4.6,0,5.72-2.26,5.72-6.23Z" transform="translate(-2.14 -24.34)"/><path class="cls-1" d="M796.13,114.28H749.85a3.88,3.88,0,0,0-3.85,3.9V237.85a52.29,52.29,0,0,1-28.45,8.6c-16.69,0-21.12-7.57-21.12-23.91V118.18a3.88,3.88,0,0,0-3.85-3.9h-47a3.89,3.89,0,0,0-3.86,3.9V230.44c0,48.54,27.05,60.41,64.26,60.41,30.53,0,55.14-16.87,55.14-16.87s1.17,8.89,1.7,9.94a4.08,4.08,0,0,0,3.41,2.11l29.88-.13A3.89,3.89,0,0,0,800,282V118.18A3.88,3.88,0,0,0,796.13,114.28Z" transform="translate(-2.14 -24.34)"/><path class="cls-1" d="M922.63,108.8c-26.29,0-44.17,11.73-44.17,11.73V37.89A3.87,3.87,0,0,0,874.61,34H827.84A3.87,3.87,0,0,0,824,37.89V281.94a3.88,3.88,0,0,0,3.86,3.9H860.3a3.87,3.87,0,0,0,3.39-2.07c.81-1.31,2-11.25,2-11.25s19.12,18.12,55.33,18.12c42.5,0,66.88-21.56,66.88-96.79S948.93,108.8,922.63,108.8ZM904.37,246.31a55.49,55.49,0,0,1-26.94-7.77V161.25a61.69,61.69,0,0,1,23.92-7.76C918,152,934.08,157,934.08,196.79,934.08,238.71,926.83,247,904.37,246.31Z" transform="translate(-2.14 -24.34)"/><path class="cls-1" d="M410.71,113.89h-35s-.05-46.21-.05-46.22c0-1.75-.9-2.62-2.92-2.62H325.08c-1.85,0-2.85.82-2.85,2.6v47.76s-23.89,5.77-25.51,6.23a3.88,3.88,0,0,0-2.79,3.72v30a3.87,3.87,0,0,0,3.86,3.9h24.44v72.21c0,53.63,37.62,58.9,63,58.9,11.6,0,25.47-3.72,27.77-4.57a3.61,3.61,0,0,0,2.19-3.5l0-33a3.94,3.94,0,0,0-3.87-3.9c-2,0-7.25.83-12.62.83-17.18,0-23-8-23-18.33s0-68.62,0-68.62h35a3.88,3.88,0,0,0,3.86-3.9V117.78A3.87,3.87,0,0,0,410.71,113.89Z" transform="translate(-2.14 -24.34)"/></svg>