<svg id="Layer_1" data-name="Layer 1" xmlns="http://www.w3.org/2000/svg" xmlns:xlink="http://www.w3.org/1999/xlink" viewBox="0 0 996.3 229.13"><defs><style>.cls-1{fill:url(#linear-gradient);}.cls-2{fill:url(#linear-gradient-2);}.cls-3{fill:url(#linear-gradient-3);}.cls-4{fill:url(#linear-gradient-4);}.cls-5{fill:url(#linear-gradient-5);}.cls-6{fill:#fff;}.cls-7{fill:#39424e;}</style><linearGradient id="linear-gradient" x1="138.4" y1="178.34" x2="138.4" y2="281.13" gradientTransform="matrix(1, 0, 0, -1, 0, 330)" gradientUnits="userSpaceOnUse"><stop offset="0" stop-color="#25a559"/><stop offset="1" stop-color="#30ce68"/></linearGradient><linearGradient id="linear-gradient-2" x1="118.26" y1="131.01" x2="118.26" y2="262.39" xlink:href="#linear-gradient"/><linearGradient id="linear-gradient-3" x1="107.49" y1="95.08" x2="107.49" y2="237.76" xlink:href="#linear-gradient"/><linearGradient id="linear-gradient-4" x1="96.54" y1="70.05" x2="96.54" y2="201.67" xlink:href="#linear-gradient"/><linearGradient id="linear-gradient-5" x1="75.96" y1="52" x2="75.96" y2="153.32" xlink:href="#linear-gradient"/></defs><title>Hackerrank</title><g id="Hexagon"><path class="cls-1" d="M107.5,48.87c-5.5,0-23,8.32-41.89,18.74l145.59,84c-.42-21.5-2-40.78-4.74-45.5-2.31-4-14-12.45-28.58-21.67L138.94,62C124.36,54.36,112,48.87,107.5,48.87Z" transform="translate(-3.7 -48.87)"/><path class="cls-2" d="M25.21,92.24,210.14,199c1-13.49,1.37-31,1-47.34L65.6,67.61C51.32,75.51,36.31,84.6,25.21,92.24Z" transform="translate(-3.7 -48.87)"/><path class="cls-3" d="M25.21,92.24c-8.72,6-15,11.06-16.67,13.92s-2.91,11.29-3.71,22.25l184.5,106.51c9-6.12,15.46-11.31,17.13-14.2s2.88-11,3.69-21.72Z" transform="translate(-3.7 -48.87)"/><path class="cls-4" d="M189.39,234.87,4.83,128.33c-1,13.84-1.36,31.82-1,48.35L148.09,260C162.59,252,178,242.67,189.39,234.87Z" transform="translate(-3.7 -48.87)"/><path class="cls-5" d="M3.84,176.68c.46,20.88,2,39.38,4.7,44C15,232,94.55,278,107.5,278c5.38,0,22.25-8,40.59-18Z" transform="translate(-3.7 -48.87)"/></g><g id="H"><path class="cls-6" d="M126.95,172.4v39.66h-6.69a2.46,2.46,0,0,0-1.28,4.56L134,231a2.89,2.89,0,0,0,2.14,1,2.47,2.47,0,0,0,2-1l16-14.42a2.46,2.46,0,0,0-1.29-4.56h-6.72l-.06-95.82a2.44,2.44,0,0,0-2.44-2.46H129.42a2.47,2.47,0,0,0-2.47,2.46v37H88.05V114.81h6.69A2.46,2.46,0,0,0,96,110.25L81,95.83a2.9,2.9,0,0,0-2.14-1,2.47,2.47,0,0,0-2,1l-16,14.42a2.46,2.46,0,0,0,1.29,4.56h6.72l.06,95.82a2.44,2.44,0,0,0,2.44,2.46H85.58a2.47,2.47,0,0,0,2.47-2.46V172.4Z" transform="translate(-3.7 -48.87)"/></g><path class="cls-7" d="M770.72,204.27q-11.94-19.53-23.94-39c-.68-1.11-1.26-2.29-2-3.66,1.78-.54,3.1-.9,4.39-1.33,12-4,19.38-13.92,19.76-26.42.45-14.8-7.3-25.16-21.71-28.75a46.69,46.69,0,0,0-10-1.54c-10.75-.27-21.52-.26-32.27-.32-6.26,0-6.37.1-6.37,6.19q0,47.67,0,95.35c0,1.12,0,2.25.11,3.37a2.53,2.53,0,0,0,2.61,2.64c3.38.05,6.76,0,10.13,0a2.63,2.63,0,0,0,2.76-2.52,21,21,0,0,0,.09-3q0-18.77,0-37.54v-4.83c3.76,0,7,.11,10.21,0a4.36,4.36,0,0,1,4.51,2.55c2.68,4.8,5.56,9.5,8.36,14.23,5.54,9.36,11.12,18.71,16.61,28.1,1.17,2,2.42,3.31,5,3.12,2.74-.2,5.51,0,8.25-.07,1.77-.07,4,.76,5-1.44S771.67,205.82,770.72,204.27ZM734.9,148.46c-6.33.5-12.72.2-19.09.21a5.39,5.39,0,0,1-1.26-.38V118.11c.17-.15.35-.46.54-.46,8.22-.19,16.46-.76,24.64.67a23.65,23.65,0,0,1,3.62.93,14.56,14.56,0,0,1,8.83,20A10.91,10.91,0,0,1,746,145.5,42.94,42.94,0,0,1,734.9,148.46Zm-229,31.61c-.05,1.21-.15,2.41-.16,3.62,0,7.64,0,15.27,0,22.91,0,3.69-.51,4.17-4.06,4.23-2.5,0-5,.08-7.51,0s-3.21-.79-3.37-3.44c0-.75,0-1.5,0-2.25q0-51.46,0-102.91c0-.88,0-1.76,0-2.63.15-2.36.86-3.23,3.14-3.33,2.87-.13,5.76-.13,8.64,0,2.35.1,3,.88,3.15,3.28.06,1,0,2,0,3q0,28.73,0,57.47c0,1.33.11,2.65.2,4.7,1.34-1.12,2.2-1.74,2.95-2.46,7.54-7.33,15.1-14.64,22.56-22a6.65,6.65,0,0,1,5.29-2.2c3.63.13,7.26,0,10.89,0,1.48,0,3.14-.24,3.76,1.66.58,1.74-.53,2.79-1.68,3.84q-13.65,12.35-27.27,24.72c-1.1,1-2.18,2-3.43,3.21.77.88,1.36,1.65,2,2.33q15.56,15.24,31.14,30.46a8.85,8.85,0,0,1,1.83,1.87c.48.91,1.06,2.19.76,3a3.66,3.66,0,0,1-2.57,1.66,29.69,29.69,0,0,1-5.25.09c-3.36-.08-7.08.65-10-.56s-4.75-4.31-7-6.63q-10.08-10.36-20.12-20.77c-1-1.06-2.08-2.09-3.13-3.14Zm445.14.11v7.1c0,6.51,0,13,0,19.52,0,3.32-.7,4-3.94,4q-3.56.08-7.13,0c-3.29-.07-3.83-.65-4-4,0-.75,0-1.5,0-2.25q0-51.06,0-102.12c0-6.16.08-6.23,6.33-6.23,1.88,0,3.76-.08,5.63,0,2.07.14,2.88,1,3.08,3,.1,1,0,2,0,3q0,28.72,0,57.44v5.05c1.63-1.4,2.65-2.18,3.56-3.07,7.17-7,14.37-13.94,21.45-21a7.89,7.89,0,0,1,6.59-2.73c3.24.23,6.5,0,9.76.06,1.59,0,3.41-.37,4.2,1.61s-.73,3-1.91,4.07q-13.61,12.38-27.25,24.72c-1,.92-2,1.87-3.27,3.08,1,1,1.74,1.95,2.6,2.79q15.42,15.1,30.87,30.18c.54.52,1.26,1,1.56,1.6.44.95,1,2.2.71,3a3.33,3.33,0,0,1-2.52,1.64c-4.62.16-9.27.23-13.88,0-1.26-.08-2.65-1.26-3.64-2.27-8.32-8.49-16.56-17.06-24.83-25.6-1-1-2.07-2-3.11-3.07ZM629.78,168.59c-1.27-18.71-14.26-31.24-31.42-32.26-14.92-.88-26.59,4.66-34.6,17.38-4.63,7.36-6.13,15.57-5.32,24.12,1.43,15.23,8.9,26.34,23.28,32.18,8.27,3.36,16.85,3.29,25.41,1,7.65-2,13.76-6.42,18.78-12.42,2.22-2.66,2.11-3.77-.47-5.91-1.16-1-2.36-1.86-3.54-2.78-4.53-3.54-4.47-3.49-8.24.79-6.37,7.22-14.35,10-23.66,7.42-8.88-2.44-14.05-8.61-16.05-18.32,1.93-.09,3.39-.22,4.85-.22q22.33,0,44.66,0c1,0,2,0,3,0,2.63-.21,3.27-.76,3.41-3.46A62.64,62.64,0,0,0,629.78,168.59Zm-55.27-2.16a26.2,26.2,0,0,1,.9-3.4c5.14-12.18,18-16.23,29-11.44,6,2.65,9,7.9,10,14.84ZM399.66,206.3c-.36-5-.72-10-.79-15-.13-9.39.08-18.78-.08-28.17-.23-13.93-7.57-23.26-20.85-26a41.72,41.72,0,0,0-32.34,6,24.2,24.2,0,0,0-3.51,2.81c-1.91,1.83-2,2.79-.43,4.86.82,1.1,1.76,2.12,2.65,3.17,3.79,4.48,3.75,4.43,8.55.91a25.5,25.5,0,0,1,22.79-4.18c6,1.65,9.1,7,8,13.23-4.16.18-8.41.32-12.65.55a62.74,62.74,0,0,0-19.46,3.7c-5.9,2.3-11,5.74-13.3,11.91-4.68,12.69,0,25.91,13.78,30.75,5.95,2.09,12.05,2.06,18.17,1.06,5.44-.88,10.13-3.44,14.78-7.6.35,1.53.56,2.34.73,3.16.6,2.84,1.08,3.28,4,3.36,2,.05,4,0,6,0C399.42,210.76,399.93,210.06,399.66,206.3Zm-41-8c-3.25-1.13-5.67-3.08-6.51-6.63-1-4.1,0-7.11,3.55-9.44a21.24,21.24,0,0,1,5.37-2.6c7.35-2.27,14.93-2.63,22.78-2.49C385.83,192.25,372.57,203.11,358.67,198.26Zm483.87,8.39c-.42-4.61-.86-9.23-.93-13.84-.16-10.64.1-21.29-.17-31.92-.28-10.93-6.72-19.25-17-22.82-6.69-2.31-13.54-2.33-20.39-1.16a37.82,37.82,0,0,0-18,8c-3.2,2.63-3.28,3.67-.73,6.79,1,1.26,2.07,2.51,3.15,3.73,2.36,2.67,3.16,2.78,5.87.5,5.55-4.67,11.94-6.51,19.14-6.21,6.91.29,13.55,3.77,13.44,13.92-1.38.14-2.59.32-3.81.39-3.38.17-6.76.23-10.13.46a63.57,63.57,0,0,0-18.35,3.56c-5.55,2.1-10.26,5.31-13,10.73-5.91,11.65-1.11,26,10.94,31,11.46,4.72,22.75,4,33.06-3.68.66-.49,1.39-.87,2.29-1.43.27,1.14.45,2,.67,2.83.76,3,1,3.21,4.06,3.28,2.13.05,4.26.06,6.38,0C842.22,210.73,842.83,209.84,842.54,206.65Zm-30.8-7.76a30,30,0,0,1-10-.67,8.44,8.44,0,0,1-6.93-7.87c-.48-4.33,1.52-7.2,5.19-9.09a24.52,24.52,0,0,1,4.49-1.87c7.16-2,14.51-2.39,22.07-2.36C828.51,185.68,823,197.49,811.74,198.89Zm60.18-54.74c1.52-1.07,2.52-1.79,3.54-2.47,9.2-6.15,19.11-7.13,29.36-3.42,8.8,3.19,13.28,10.26,15.34,19a38.63,38.63,0,0,1,.92,8.55c.09,13.38,0,26.77,0,40.16a6.09,6.09,0,0,1-.13,2.59c-.46.88-1.38,2.08-2.17,2.13-3.36.24-6.75.16-10.12.1a2.33,2.33,0,0,1-2.42-2.37c-.08-1-.06-2-.06-3,0-10.76,0-21.52,0-32.27a80.82,80.82,0,0,0-.69-10.09c-.75-5.62-2.91-10.52-8.82-12.37-6.22-1.95-12.15-1.27-17.2,3.26-3.69,3.32-5.55,7.68-6.4,12.45a49.18,49.18,0,0,0-.69,8.21c-.08,10.51,0,21,0,31.52,0,4.34-.39,4.7-4.7,4.73-2.13,0-4.25,0-6.38,0-3.14-.08-3.74-.68-3.87-3.7,0-1-.05-2-.05-3,0-2.19,0-35.8,0-53.69,0-2.87-.38-5.74-.47-8.61-.1-3.07.56-3.72,3.68-3.8,2.25-.06,4.5,0,6.75,0,3.46.06,3.77.35,4.25,3.77C871.62,142.4,871.73,143,871.92,144.14ZM450.49,212.81c-11-.21-20.72-3.53-28.49-11.56a35.28,35.28,0,0,1-9.61-19.56c-1.41-9.11-.55-18,3.92-26.23,5.91-10.93,15.27-16.88,27.38-18.79a39,39,0,0,1,22.36,3,29.2,29.2,0,0,1,11,8.3c1.9,2.33,1.76,3.51-.58,5.31-2.08,1.6-4.24,3.1-6.41,4.59-1.56,1.08-3.06,1-4.27-.58-5.35-7.05-12.61-8.68-20.77-6.91-8.43,1.84-13.81,7.31-16.31,15.47A28.37,28.37,0,0,0,429.8,186c6.69,15.38,27.81,16.89,36.28,6.23,2.15-2.7,2.83-2.61,5.62-.64,1.63,1.16,3.23,2.36,4.82,3.58,2.88,2.23,3.06,3.48.69,6.11a31.75,31.75,0,0,1-16.72,10.18C457.21,212.18,453.82,212.37,450.49,212.81ZM659.1,143.92c1.22-.92,1.91-1.43,2.58-2,6.62-5.17,14.12-6.67,22.28-5.32,3.12.51,3.74,1.35,3.44,4.59-.2,2.11-.52,4.22-.83,6.32-.53,3.62-1.37,4.08-5,3.67a33.05,33.05,0,0,0-8.17-.14c-4.91.68-8.41,3.62-10.69,8a28.35,28.35,0,0,0-3.13,13.37q0,16.32,0,32.65c0,.88.05,1.76,0,2.63-.2,2.16-.9,3-3,3.08-3,.12-6,.12-9,0-2.2-.09-2.79-.76-3-3-.11-1.12-.06-2.25-.06-3.37,0-13.38,0-39.51,0-40.15,0-7.13-.23-14.25-.4-21.38-.11-4.47.15-4.8,4.46-4.84,2,0,4,0,6,0,3.27.07,3.5.28,4.17,3.54C658.83,142.16,658.91,142.77,659.1,143.92ZM255.34,162.78s0,44.42,0,45.42c0,1.76-1.16,2.61-3,2.62-3.25,0-6.51,0-9.76,0a2.6,2.6,0,0,1-2.88-2.81c0-1,0-98.75,0-99.14,0-5.45.19-5.61,5.76-5.63,1.75,0,3.51,0,5.26,0,4,.07,4.56.58,4.61,4.54,0,2,0,38,0,39.9H306c0-1.9,0-37.71,0-39.71,0-4,.56-4.47,4.61-4.54,1.75,0,3.5,0,5.26,0,5.57,0,5.75.19,5.76,5.63,0,.39,0,98.18,0,99.14a2.6,2.6,0,0,1-2.88,2.81c-3.25,0-6.51,0-9.76,0-1.81,0-3-.86-3-2.62,0-1,0-45.61,0-45.61Z" transform="translate(-3.7 -48.87)"/></svg>