<?xml version="1.0" encoding="utf-8"?>
<!-- Generator: Adobe Illustrator 20.1.0, SVG Export Plug-In . SVG Version: 6.00 Build 0)  -->
<svg version="1.1" id="Layer_4" xmlns="http://www.w3.org/2000/svg" xmlns:xlink="http://www.w3.org/1999/xlink" x="0px" y="0px"
	 viewBox="0 0 1089.3 200" style="enable-background:new 0 0 1089.3 200;" xml:space="preserve">
<style type="text/css">
	.st0{fill:#B4B3B3;}
	.st1{fill:#FFFFFF;}
	.st2{fill:#B62E33;}
	.st3{fill:#E23237;}
	.st4{fill:#B4B1B1;}
	.st5{fill:#B48E8F;}
	.st6{fill:#B4A6A7;}
	.st7{fill:#B3A4A5;}
	.st8{fill:#B3A0A0;}
	.st9{fill:#B49596;}
	.st10{fill:#B3A7A7;}
	.st11{fill:#B3B0B0;}
	.st12{fill:#B4B3B2;}
	.st13{fill:#BAA09F;}
	.st14{fill:#C18F90;}
	.st15{fill:#DB4547;}
	.st16{fill:#BAA0A0;}
	.st17{fill:#B7A7A7;}
	.st18{fill:#B6AAA9;}
	.st19{fill:#BD9696;}
	.st20{fill:#B4B0B0;}
	.st21{fill:#B8A5A5;}
	.st22{fill:#B3ACAC;}
	.st23{fill:#B62E32;}
	.st24{fill:#B55253;}
	.st25{fill:#B54D4E;}
	.st26{fill:#B54A4C;}
	.st27{fill:#B48F90;}
	.st28{fill:#B48A8B;}
	.st29{fill:#B64547;}
	.st30{fill:#B54244;}
	.st31{fill:#B63438;}
	.st32{fill:#B65154;}
	.st33{fill:#B49394;}
	.st34{fill:#B55A5B;}
	.st35{fill:#B48889;}
	.st36{fill:#B54345;}
	.st37{fill:#B47779;}
	.st38{fill:#B54447;}
	.st39{fill:#B4898A;}
	.st40{fill:#B64446;}
	.st41{fill:#B63D3F;}
	.st42{fill:#B63E41;}
	.st43{fill:#B5595B;}
	.st44{fill:#B4A1A1;}
	.st45{fill:#B64A4C;}
	.st46{fill:#B65254;}
	.st47{fill:#B55859;}
	.st48{fill:#B5595A;}
	.st49{fill:#B55E5F;}
	.st50{fill:#B46566;}
	.st51{fill:#B64A4D;}
	.st52{fill:#B39F9F;}
	.st53{fill:#C2898A;}
	.st54{fill:#C8797B;}
	.st55{fill:#B63C3E;}
	.st56{fill:#B53A3D;}
	.st57{fill:#B62D32;}
	.st58{fill:#B48182;}
	.st59{fill:#B64649;}
	.st60{fill:#B54547;}
	.st61{fill:#B6484B;}
	.st62{fill:#B55C5E;}
	.st63{fill:#B54446;}
	.st64{fill:#B49393;}
	.st65{fill:#B63A3D;}
	.st66{fill:#B47F81;}
	.st67{fill:#DD4042;}
	.st68{fill:#D55556;}
	.st69{fill:#E23437;}
	.st70{fill:#D84E4F;}
	.st71{fill:#DE3D3F;}
	.st72{fill:#E0393C;}
	.st73{fill:#C58284;}
	.st74{fill:#BB9C9D;}
	.st75{fill:#D16062;}
	.st76{fill:#CE6769;}
	.st77{fill:#DB4549;}
	.st78{fill:#C09192;}
	.st79{fill:#D55457;}
	.st80{fill:#C09090;}
	.st81{fill:#D35B5D;}
	.st82{fill:#B9A1A2;}
	.st83{fill:#DB4449;}
	.st84{fill:#D4595B;}
	.st85{fill:#CE6768;}
	.st86{fill:#D74C50;}
	.st87{fill:#DE4044;}
	.st88{fill:#D16061;}
	.st89{fill:#D35A5C;}
	.st90{fill:#DB4448;}
	.st91{fill:#DC4044;}
	.st92{fill:#DE3F42;}
	.st93{fill:#DC3F43;}
	.st94{fill:#D84B50;}
	.st95{fill:#DC3E43;}
	.st96{fill:#D84C50;}
	.st97{fill:#E1363A;}
	.st98{fill:#BE9394;}
	.st99{fill:#DC4244;}
	.st100{fill:#D84F4F;}
	.st101{fill:#E23236;}
	.st102{fill:#DA484B;}
	.st103{fill:#DA474A;}
	.st104{fill:#C18B8C;}
	.st105{fill:#D25D60;}
	.st106{fill:#BF9394;}
	.st107{fill:#DD4144;}
	.st108{fill:#C48788;}
	.st109{fill:#B3A5A6;}
	.st110{fill:#B39B9C;}
	.st111{fill:#B63236;}
	.st112{font-family:'Sansation-Regular';}
	.st113{font-size:148.9291px;}
	.st114{font-family:'Sansation-Light';}
	.st115{font-size:119.7124px;}
</style>
<g>
	<g>
		<path class="st0" d="M3,48.1c0-3.7,0-7.3,0-11c1.2-2.4,3.3-3.7,5.8-4.6c24.7-8.8,49.7-16.7,74.4-25.8c4.3-1.6,9-1.2,13.3-2.6
			c1.5,0,2.9,0,4.4,0c29.5,7,57.3,19.2,86.1,28.2c2.7,0.9,5.1,2.1,6.3,4.8c0,3.7,0,7.3,0,11c-2.2,7.5-1.5,15.2-2.1,22.8
			c-1.4,17.5-4.1,34.8-6,52.2c-1.1,10.5-2.4,21-3.9,31.5c-0.6,4.2-2.3,7.2-6.1,9.1c-22,11.2-43.5,23.4-65.1,35.3
			c-3.3,1.8-7.1,1.6-10.4,3.2c-1.5,0-2.9,0-4.4,0C79,196.9,65.1,186.9,50.1,179c-8.3-4.3-16.4-8.9-24.8-12.8
			c-7.8-3.6-10.5-9.1-11.3-17c-2.5-24.1-5.6-48.2-8.5-72.3C4.5,69.5,4.4,62,4.1,54.5C4,52.3,4.1,50.1,3,48.1z"/>
		<path class="st1" d="M99.8,202.1c17-9.4,33.9-18.8,50.9-28.2c8-4.4,16.2-8.5,24.3-12.7c2.2-1.2,3.7-2.5,4-5.3
			c4-34.1,8.1-68.3,12.1-102.4c0.2-2,0.2-4.1,2.1-5.4c0,49.9,0,99.9,0.1,149.8c0,3.3-0.5,4.3-4.1,4.3
			C159.4,202,129.6,202.1,99.8,202.1z"/>
		<path class="st1" d="M3,48.1c1.6,1,1.8,2.7,2,4.3c3,25.6,6,51.1,9,76.7c1.1,9.1,2.3,18.1,3.2,27.2c0.3,2.9,2.2,4,4.3,5.1
			c15.6,8.4,31.4,16.6,46.8,25.2c9.1,5,18.7,9.1,26.9,15.6c-29.5,0-58.9-0.1-88.4,0.1c-3.6,0-4.1-1-4.1-4.3C3,148,3,98,3,48.1z"/>
		<path class="st1" d="M96.5,4.1C82.7,10,68.3,14.3,54.3,19.4C37.2,25.5,20.1,31.2,3,37.1c0-11,0-22,0-33
			C34.2,4.1,65.3,4.1,96.5,4.1z"/>
		<path class="st1" d="M193.3,37.1c-28.7-10-57.4-20-86.1-30c-2.2-0.8-4.7-0.9-6.3-3c29.7,0,59.4,0,89.1-0.1c2.8,0,3.4,0.6,3.4,3.4
			C193.2,17.3,193.3,27.2,193.3,37.1z"/>
		<path class="st2" d="M97.6,15c2.1,0.4,4.4,0.6,6.4,1.4c24.5,8.6,49,17.3,73.6,25.8c3.4,1.2,5,2.6,4.5,6.6
			c-4,32.7-7.9,65.5-11.4,98.2c-0.6,5.2-2.8,7.2-7.1,9.5c-19.3,10.1-38.3,20.9-57.4,31.4c-2.7,1.5-5.4,3-8.6,3.5
			c-3.8-4.6-2.4-9.7-1.8-14.8c1-2.2,2.8-3.3,4.9-4c2-0.6,3.8-1.4,4.9-3.2c2.7-1.9,3.4-4.9,4.1-7.9c0.8-1.3,2.3-1.6,3.6-2.2
			c2.9-4.4,0.3-9.5,1.6-14.1c2-6,6.1-10.4,10.7-14.4c3.8-3.3,8.5-3,13-1.5c2.2,0.7,3.6,2.6,3.5,5c-0.1,2.9,0.4,5.8,0.1,9.3
			c2.2-2.4,4.4-1.4,6.7-0.7c5.8,1.8,9-0.4,9-6.4c0.2-18.7,0.2-37.3,0-56c0-5.1-2.4-7.5-6.7-7.6c-4.5-0.2-6.9,2.4-7.2,7.7
			c-0.2,3.3,0.1,6.7-3.1,8.9c-2.4,1.3-4.8,2.5-7.1,4.1c-5.4,2.4-10.4,5.7-15.6,8.6c-3.1,1.3-5.5,3.7-8.7,4.9c-0.5,0-1.1,0-1.6-0.2
			c-2.7-4.1-8-4.1-11.4-7.2c-1.1-1.9-1.1-3.9-0.2-5.9c1.4-2.5,4.2-2.6,6.5-3.6c1.5-0.7,3.3-1.1,3.4-3c0.1-2.3-2-2.8-3.7-3.4
			c-2.2-0.8-4.7-0.8-6.1-3.1c-1.3-2.3-0.9-4.5,0-6.7c1.5-2.5,4.3-1.5,6.4-2.3c9.5-3.3,18.6-7.5,27.8-11.7c3.6-1.7,1.8-3.3-0.6-4.3
			c-10.2-4.3-19.9-10.1-31.1-11.9c-0.9-0.1-1.7-0.7-2.3-1.4c-1-1.9-1.2-3.8-0.3-5.8c1.4-2.5,4.2-2.6,6.5-3.6c1.5-0.7,3.3-1.1,3.4-3
			c0.1-2.3-2-2.8-3.7-3.4c-2.3-0.9-5.1-0.9-6.4-3.6C94.8,20,95.2,17.3,97.6,15z"/>
		<path class="st3" d="M97.6,74c0,2.3,0,4.6,0,6.9c-0.8,2.5-3.5,2.3-5.2,3.5c-3.1,2-3.2,3.7,0,5.5c1.8,1.1,4.3,1.2,5.2,3.5
			c0,2,0,3.9,0,5.9c-2.1,3.7-7.1,3.9-9.2,7.6c-0.5,0.3-1,0.5-1.5,0.6c-0.5,0-1.1,0-1.6-0.2c-4.4-2.4-7.9-6.4-12.8-8
			c-3.2-1-5.2-4.2-8.7-4.9c-2.7-1.8-5.4-3.6-8.3-4.9c-3.3-2.1-3-5.6-3.2-8.8c-0.3-5.4-2.6-7.9-7.1-7.9c-4.5,0-7.9,3.1-8,7.9
			c-0.2,18.5-0.2,37,0,55.5c0.1,5.7,4.2,8.4,9.8,6.8c1.6-0.4,3.1-1.6,4.7-1c2,0.7,2-0.4,2.2-1.8c0.1-0.7,0.1-1.5,0.1-2.2
			c0-3.7-0.6-7.8,4.1-9.1c4.5-1.3,9.1-1.5,12.9,2c4.3,4,8.3,8.2,10.3,14c1.1,4.6-1.1,9.5,1.4,13.9c1.2,0.5,2.6,0.8,3.5,2
			c0.3,0.4,0.5,0.8,0.6,1.3c0,2.9,1.3,5.1,3.3,7c1.4,3.3,6.2,2.8,7.3,6.4c0,5.3,0,10.5,0,15.8c-4.4-1-7.9-3.7-11.7-5.8
			c-18.4-9.8-36.2-20.6-55.1-29.7c-3.3-1.6-4.7-3.7-5.1-7.5c-3.7-33.3-7.7-66.5-11.6-99.8c-0.3-2.8-0.3-4.8,3-6
			C43.5,33.6,69.7,24.3,96,15.1c0.5-0.2,1.1-0.1,1.6-0.1c0,2.8,0,5.6,0,8.4c-0.5,2.8-3.3,2.4-5,3.5c-1.2,0.8-2.7,1.3-2.5,3.1
			c0.1,1.4,1.3,2,2.4,2.6c1.8,1,4.3,1.2,5.1,3.6c0,1.9,0,3.8,0,5.8c0.3,1.3-0.7,1.6-1.6,1.8C85.7,46.1,76.6,51.4,67,55.3
			c-1.3,0.5-3.1,0.8-3.1,2.6c0,1.8,1.8,2.1,3.1,2.7c9.7,3.9,18.8,9.1,29.1,11.6C96.8,72.4,97.8,72.7,97.6,74z"/>
		<path class="st0" d="M139.3,88.7c3.6-2.2,2.3-5.9,2.3-9c0.2-6.7,2.7-9.3,9.3-9.3c6.6,0,9.2,2.6,9.2,9.3c0,19.2,0,38.5,0,57.7
			c0,3.2,0.1,6.7-3.7,7.6c-3.4,0.8-7.4,4-10.3-1.3c-1.1-1.9-2-0.2-2.7,0.8c-1,1.5,0.4,3.8-2.8,5.5c0-4.6,0.1-8.7,0-12.7
			c0-2.3,0.7-5.4-2.3-6.1c-3.6-0.8-8-2.4-10.9,0.6c-4.1,4.3-8.6,8.5-11.3,14.1c-1.6,0.9-2.4-0.8-3.5-1.2c-0.9-0.8-2.2-0.8-3-1.6
			c-1.5-1.8-0.5-3.3,0.6-4.7c0.8-1.1,2-2.3-0.1-3.3c-0.4-0.3-0.7-0.7-1-1.1c-0.2-0.5-0.3-1-0.2-1.5c0.4-1.4,1.6-1.8,2.7-2.4
			c0.4-0.2,0.9-0.4,1.3-0.6c-0.5,0.2-0.9,0.4-1.4,0.6c-1.2,0.4-2.3,1.4-3.6,0.3c-1.3-2-0.6-3.7,0.8-5.3c0.4-0.3,0.9-0.5,1.4-0.6
			c3.4-0.5,5.7-2.9,8.6-4.3c1.5-0.7,3-1.3,4-2.7c1.4-0.6,3-0.8,4.3-1.8c1.3-0.9,2.8-1.6,4.3-2.2c1.4-0.8,2.8-1.5,4.2-2.4
			c0.7-0.4,1.5-0.8,2.2-1.2c0,0-0.1,0-0.2,0.1c-0.8,0.5-1.6,0.9-2.3,1.3c-1.1,0.8-2.5,1.2-3.6,2.1c-1.8,0.6-3.4,1.5-5,2.5
			c-1.2,0.9-2.7,0.9-3.9,1.6c-0.8,1.4-2.3,1.8-3.5,2.6c-3.1,1.3-5.5,4.1-9.1,4.4c-3.8-0.7-2.3-3.1-1.7-5.2c1.2-1.6,2.6-3,4.6-3.4
			c3.2-0.2,5.6-2,7.8-4c0.8-0.6,1.6-1.2,2.6-1.5c2.1-0.7,4.1-1.6,5.7-3.2c1.2-1.3,2.6-2.3,4.1-3.1c1.1-0.4,2.2-0.9,3.4-1.2
			c1.1-0.2,2.3-0.3,3.2-1.1c1.2-0.8,2.5-1.4,3.6-2.3c0.7-0.6,0.6-1.4,0.6-2.2c0-0.5,0.1-0.9,0.2-1.3c0.9-1.7,2.6-3.5-0.9-4.4
			c-0.5,0-1,0-1.5-0.1c-1.1-0.1-2.1-0.4-2.8-1.3C138.9,89.6,139,89.1,139.3,88.7z"/>
		<path class="st0" d="M97.6,74c-3.6,0.6-6.7-0.4-10-1.8c-8-3.6-16.1-6.9-24.1-10.4c-1.7-0.7-3.1-1.2-3.1-3.7c0-2.5,1.5-3,3.1-3.7
			c9.1-3.9,18.2-7.7,27.1-11.7c2.4-1.1,4.6-0.3,6.9-0.5c4.1-0.8,7.8,0.3,11.6,2c7.8,3.5,15.7,6.8,23.6,10.2c1.7,0.7,3.2,1.2,3.1,3.7
			c0,2.5-1.5,3-3.1,3.8c-9.1,3.9-18.2,7.6-27.1,11.7C102.9,74.7,100.3,73.6,97.6,74z"/>
		<path class="st0" d="M87.5,106.3c1.1-5.6,5.5-6.4,10.1-7c5,0.3,9.6,1.2,11.2,7c0.6,3.8,0.3,7.5,0.3,11.3c-0.3,2.5-1.4,5-0.6,7.7
			c-0.5,2.7-0.4,5.4,0.1,8c0,12.4,2.2,24.8-1,37c-1.5,5.2-6.5,3.8-10,5.2c-3.2-1.3-7.7-0.5-8.9-5.2c-2.2-5-1.5-10.4-1.5-15.6
			c-0.1-7.1,0-14.2,0-21.3c0-2.7,0-5.4,0-8.1c0-2.3,0-4.5,0-6.8C87.3,114.5,86.8,110.4,87.5,106.3z"/>
		<path class="st4" d="M97.6,36.3c-2.3-0.6-4.7-0.9-6.9-1.7c-2.1-0.8-4-2.2-4-4.7c0-2.5,1.9-3.9,4-4.7c2.2-0.8,4.6-1.2,6.9-1.7
			c2.8,0.7,5.8,0.4,8.5,1.9c1.8,1,3.5,2.2,3.5,4.5c0,2.3-1.7,3.5-3.5,4.5C103.4,35.8,100.4,35.7,97.6,36.3z"/>
		<path class="st4" d="M97.6,93.4c-2.3-0.5-4.7-0.8-6.9-1.6c-2.1-0.8-4-2.1-4-4.7c0-2.5,1.9-3.9,4-4.7c2.2-0.8,4.6-1.1,6.9-1.6
			c2.7,0.4,5.5,0.2,8,1.5c2,1,3.9,2.2,4,4.8c0,2.5-2,3.7-4,4.7C103.1,93.1,100.3,93,97.6,93.4z"/>
		<path class="st4" d="M151.3,64.3c-6,0.1-10.9-2.5-11.1-5.9c-0.2-3.6,4.2-6.1,10.7-6.1c0.2,0,0.4,0,0.5,0c6.2,0.1,10.3,2.5,10.3,6
			C161.7,61.6,157.2,64.3,151.3,64.3z"/>
		<path class="st5" d="M107.6,170.4c0-12.5-0.1-25-0.1-37.6c0.6-0.2,1.1-0.1,1.4,0.4c2.9,3.9,0.1,8.3,1,12.5c1,4.8,1,10-0.3,15
			c0,0.1,0.1,0.3,0.1,0.5c0.1-0.1,0.3-0.2,0.4-0.2c0.4-0.1,0.7,0.1,0.9,0.5C110.9,164.9,110.3,168,107.6,170.4z"/>
		<path class="st6" d="M117.3,100.6c5.2-2.8,10.4-5.7,15.5-8.5c0.9,0.4,1.6,1,1.6,2.1c-0.2,1.2-1,2.1-1.9,2.9
			c-0.3,0.3-0.7,0.5-1.1,0.7c-0.6,0.2-1.2,0.4-1.8,0.8c-0.5,0.4-1,0.8-1.5,1.1c-0.5,0.4-1,0.7-1.5,1c-0.3,0.2-0.7,0.3-1.1,0.4
			c-0.6,0.1-1.1,0.2-1.7,0.4c-0.5,0.3-1,0.6-1.4,1c-0.6,0.7-1.3,1.2-2.2,1.5c-0.5,0.1-1,0.1-1.5,0.1c-0.8-0.2-1.5-0.6-1.8-1.4
			C116.6,102,116.8,101.3,117.3,100.6z"/>
		<path class="st7" d="M114,142.7c0.7,1.1,1.5,2.2,2.2,3.2c0,5.4-0.1,10.8-0.1,16.1c0,0.9-0.2,2.2-1.2,2c-1.4-0.2-1-1.6-1-2.7
			c-0.1-2-0.9-3.9-1.4-5.8c-0.1-1.3-0.1-2.6,0-3.9c0.8-1.8,0.5-3.6,0-5.4C112.4,144.9,112.7,143.6,114,142.7z"/>
		<path class="st8" d="M117.3,100.6c0,0.8,0.1,1.6,0.1,2.5c0.3,1.7-0.2,3-1.6,4c-0.4,0.3-0.9,0.4-1.4,0.5c-1.5,0.1-2.9,0.2-4.3-0.6
			c-0.2-0.2-0.3-0.4-0.4-0.6C110.9,102.7,114.5,102.3,117.3,100.6z"/>
		<path class="st9" d="M107.6,117.4c0.4-3.7-1.3-7.7,1.2-11.1c0.3-0.1,0.6,0,0.8,0c0,0,0,0,0,0c3,2.6,2.4,5.8,1.5,9
			c-0.3,1-0.9,1.7-1.8,2.2C108.8,117.8,108.1,117.8,107.6,117.4z"/>
		<path class="st10" d="M133.9,94.2c-0.4-0.7-0.7-1.4-1.1-2.1c2.2-1.1,4.4-2.3,6.6-3.4c0,0.4,0,0.7,0,1.1c0.4,0.4,0.6,0.9,0.7,1.4
			c-0.1,1.8-1,3.1-2.6,3.9c-0.5,0.2-1.1,0.3-1.6,0.3C135,95.3,134.3,95,133.9,94.2z"/>
		<path class="st11" d="M114.3,155.9c1.1,1.9,1.3,3.8-0.3,5.5c-1-1-2-0.6-3,0.1c-0.4-0.1-0.9-0.1-1.3-0.2c-0.8-0.9-0.5-1.9-0.5-2.9
			c0.4-1.4,1.6-1.9,2.9-2.3C112.8,155.9,113.6,155.9,114.3,155.9z"/>
		<path class="st12" d="M80.1,146c-2.7-5.6-7.1-9.8-11.3-14.1c-2.9-3-7.3-1.4-10.9-0.7c-3.1,0.6-2.3,3.7-2.4,6
			c-0.1,4.1,0,8.1,0,12.5c-2.9-1-2-2.8-2.4-4c-0.3-1.1-0.6-2.3-1.7-2.6c-1.6-0.5-1.3,1.3-1.9,1.9c-2.6,2.8-5.8,1.1-8.5,0.4
			c-2.9-0.8-6-2.1-6-6.1c0-20.7-0.1-41.3,0.1-62c0-3.9,4.9-6.9,10.3-6.9c5.7,0,8.7,2.5,9.2,7.1c0.4,3.8-1.9,8.2,2.4,11.1
			c0.4,0.5,0.4,1,0.1,1.5c-0.8,0.9-1.8,1.2-3,1.2c-3.8-0.3-2.3,3-3.2,4.7c-0.3,1.6,0.3,2.8,1.9,3.3c1.2,0.7,2.4,1.4,3.6,2.2
			c0.7,0.5,1.5,0.9,2.4,1.3c1.3,0.8,2.7,1.6,4.2,2.1c1.4,0.8,2.7,1.6,4.2,2.2c0.6,0.3,1.1,0.8,1.7,1.2c1.2,1,2.6,1.9,4.2,2.1
			c0.4,0.2,0.9,0.4,1.2,0.7c1.4,1.6,3.3,2.6,5.2,3.5c1.5,0.8,3.1,1.2,4.7,1.6c1.4,0.7,2.6,1.6,3.3,3.1c0.4,2,1,3.9,0.2,6
			c0,1.7,0.9,3.4,0.2,5.2c-1,0.9-1.9,0.1-2.8-0.2c-2.2-1.1-4.5-1.9-6.4-3.5c-0.9-0.3-1.8-0.7-2.5-1.3c0,0-0.1,0.3,0,0.4
			c1,0.1,1.8,0.8,2.7,1.1c1.7,1.4,3.7,2.2,5.7,3.2c1,0.7,2.3,1.1,2.5,2.6c0,0.8-0.4,1.5-0.9,2c-3,2-0.1,2.8,0.7,4.1
			c0.8,1.7,1,3.5-0.3,5.1c-1,0.9-2.4,0.5-3.4,1.2C82.3,145.5,81.4,146.7,80.1,146z"/>
		<path class="st4" d="M46.1,64.3c-4.4,0-7.6-1.1-10.4-2.6c-3.1-1.7-3-5.2,0-7c4.8-2.8,10.1-3.2,15.4-1.7c2.5,0.7,5,2,4.9,5.1
			c0,3.1-2.5,4.3-5,5.1C49.1,63.9,47.1,64.1,46.1,64.3z"/>
		<path class="st13" d="M85.7,143.8c1.2-1.6,1.1-3.1-0.3-4.5c-0.9-1.8-1.9-3.6,0.1-5.4c0.4-0.3,0.7-0.6,1.1-0.9c0.5-0.6,1-0.6,1.5,0
			c0.1,0.6,0.2,1.3,0.2,1.9c0,10.6,0,21.3,0,32.7c-2.9-1.6-1.6-3.8-2.6-5.1c-0.2-0.3-0.3-0.6-0.3-0.9c0.5-2.2-2.3-2.4-2.4-4.1
			c0.1-1.7,1.2-3.1,1.1-4.8c0.5-1.7-0.7-3.3-0.5-4.9C83.9,146.2,83.8,144.4,85.7,143.8z"/>
		<path class="st14" d="M85.6,162.5c0.5,0.9,1,1.8,2,3.8c0-11.8,0-22.5,0-33.3c0.3-0.5,0.7-0.6,1.1-0.2c0,12.5-0.1,25-0.1,37.6
			C86.7,168.1,84.9,165.8,85.6,162.5z"/>
		<path class="st15" d="M85.8,106.4c0.2-0.1,0.4-0.1,0.6-0.1c2.2,2.9,1.1,6.1,1,9.2c-1.5,2.5-3.4,0.6-5.1,0.5
			c-0.6-0.3-1-0.8-1.3-1.4c-0.7-2.8-0.8-5.7,0.1-8.5C82.9,103.7,84.3,105.1,85.8,106.4z"/>
		<path class="st16" d="M85.8,106.4c-1.2,0-2.5-1.3-3.7-0.1c-0.3,0.4-0.7,0.5-1.2,0.5c-1.7-0.1-2.5-1.9-4.1-2.2
			c-0.4-0.1-0.9-0.2-1.3-0.4c-0.6-0.3-1.1-0.7-1.6-1c-0.5-0.4-1-0.8-1.5-1.2c-0.7-0.6-1.5-0.9-2.2-1.4c-0.3-0.3-0.5-0.7-0.6-1.2
			c0-0.5,0.2-0.9,0.5-1.2c1-0.7,2.3,0.4,3.3-0.6C77.9,100,82.8,101.9,85.8,106.4z"/>
		<path class="st17" d="M80.1,146c0.7-1.1,1.4-2.2,2.2-3.2c1.3,0.9,1.6,2.2,1.5,3.7c-1,2-0.8,4.1-0.1,6.2c0.1,0.8,0.1,1.6-0.1,2.4
			c-1.2,2-1.6,4.2-1.2,6.5c0,1,0.4,2.5-0.9,2.7c-1,0.2-1.2-1.1-1.2-2C80.1,156.7,80.1,151.3,80.1,146z"/>
		<path class="st18" d="M73.4,97.6c-1,1-2.2,1.1-3.5,1.2c-1.9,0.9-3.3-0.6-5-1c-0.5-0.2-0.9-0.6-1.3-1c-0.7-0.9-1-1.9-0.7-3.1
			c0.5-0.8,1-1.3,2-0.8C67.7,94.6,70.5,96.1,73.4,97.6z"/>
		<path class="st19" d="M86.4,116.1c0-3.3,0-6.5,0.1-9.8c0.4,0,0.7,0,1.1,0c2.6,3.8,0.8,8.1,1.3,12.2c-0.4,0.4-0.9,0.5-1.4,0.3
			C86.4,118.1,86.2,117.2,86.4,116.1z"/>
		<path class="st20" d="M82.2,161.4c-1.7-2.1-1.4-4.3-0.4-6.6c0.9,0.1,1.2,0.6,1.5,1.4c0,0.2,0,0.5,0,0.7c0.8,1.5,4.9,1.6,1.9,4.6
			C84.3,160.9,83.3,160.2,82.2,161.4z"/>
		<path class="st21" d="M64.9,93c-0.5,0.5-1,1-1.5,1.4c-1,0.8-2.2,1.1-3.5,0.9c-0.5-0.1-1-0.3-1.4-0.5c-1.3-0.9-2.1-2.1-2.3-3.7
			c0.1-0.5,0.3-0.9,0.6-1.3c0-0.4,0-0.8,0.1-1.2C59.9,89.6,62.5,91.2,64.9,93z"/>
		<path class="st22" d="M109.7,158.2c0,1.1,0,2.1,0,3.2c0,1.2,0,2.5,0,3.7c-0.3,0-0.7,0-1,0c0-10.7,0-21.4,0-32
			c0.1-0.2,0.2-0.4,0.3-0.6c0.5-0.1,0.7,0.1,0.8,0.6c0,0.2,0,0.5,0,0.7c1.3,1.2,1.7,2.6,1.6,4.3c0.1,0.4,0.3,0.8,0.5,1.2
			c-0.4,1.1-2.7,1.9-0.8,3.5c0.4,0.4,0.6,0.9,0.7,1.4c0.1,1.9-0.6,3.7-0.4,5.6c0,1.1,0,2.3,0,3.4
			C111.4,155.1,111.1,156.8,109.7,158.2z"/>
		<path class="st23" d="M143.6,89.6c0.8-1.1,2.4-2.9,3-0.8c0.7,2.5,2.1,5.9-1.6,7.9C140.6,95,142.4,92.2,143.6,89.6z"/>
		<path class="st24" d="M146.9,125.9c0.1,2.3-0.7,3.7-2.6,4.1c-1.1,0.2-1.5-0.8-1.4-1.8c0-1.7,0.4-3.4,2.2-3.9
			C146.6,123.9,146.5,125.5,146.9,125.9z"/>
		<path class="st25" d="M144.5,139.2c-1.5-0.1-1.6-1.2-1.6-2.3c0.1-1.5,0.5-3.1,2.1-3.4c1.8-0.3,1.8,1.3,1.8,2.5
			C146.9,137.7,146,138.8,144.5,139.2z"/>
		<path class="st26" d="M147,115.6c-0.1,2.1,0.3,4.9-2.7,4.9c-2.2,0-1.2-2.5-1.3-3.9C143.8,114.3,145.1,113.9,147,115.6z"/>
		<path class="st27" d="M139.3,90.8c0-0.3,0-0.7,0.1-1c1.1,0,2.2,0.1,3.4,0.1c1.2,2.5-0.4,5.6,1.5,8c0.2,0.5,0.2,1.1,0.1,1.6
			c-0.8,1.2-1.9,1.9-3.4,2c-0.5-0.2-0.9-0.5-1.2-0.9C138.3,97.4,140.6,94,139.3,90.8z"/>
		<path class="st28" d="M119.4,103.2c0.4-0.1,0.8-0.1,1.2-0.2c1.9,0.6,1.5,3,3,4c0.4,0.3,0.7,0.6,1,1c0.1,0.2,0.2,0.4,0.3,0.6
			c0.2,0.5,0.2,0.9,0.2,1.4c-0.1,0.7-0.6,1.3-1.1,1.8c-0.7,0.4-1.4,0.8-2.1,1.1c-1.4,0-2.6-0.4-3.4-1.6
			C116.9,108.5,117.1,105.8,119.4,103.2z"/>
		<path class="st29" d="M119.6,111.9c0.8,0.4,1.5,0.7,2.3,1.1c-2,2.5-4.8,3.7-7.8,4.4c-0.6-0.6-0.8-1.2-0.6-2
			c0.2-0.5,0.5-0.9,0.8-1.2c1.6-0.7,2.9-1.9,4.6-2.2C119.1,111.9,119.4,111.9,119.6,111.9z"/>
		<path class="st30" d="M110.5,143.9c0.2-0.4,0.3-0.7,0.5-1.1c1-0.7,2-0.9,3-0.1c-0.1,1.4-0.1,2.8-0.2,4.2c-0.2,1.4-1.1,1.9-2.5,1.7
			C109.6,147.3,110.3,145.6,110.5,143.9z"/>
		<path class="st31" d="M111.8,139.3l-0.4,0l-0.4,0.1c-1.5-1.8-0.9-3.6-0.3-5.5c0.9-0.2,2-1.4,2.7-0.1
			C114.8,136.1,113.6,137.8,111.8,139.3z"/>
		<path class="st32" d="M119.6,120.4c-2.6,2.1-5.3,4-8.7,4.6c-0.3-0.1-0.6-0.3-0.8-0.4c0.3-0.1,0.5-0.3,0.8-0.4
			c2.8-1.7,5.3-3.9,8.7-4.4C119.6,119.9,119.6,120.1,119.6,120.4z"/>
		<path class="st8" d="M114.1,115.2c0,0.7,0,1.5-0.1,2.2c-1.5,0.7-2.9,1.5-4.4,2.2c-2,0.1-1.8-0.9-1.1-2.2c0.5-0.4,0.9-0.8,1.4-1.3
			C111.1,114.8,112.3,113.7,114.1,115.2z"/>
		<path class="st33" d="M134,105.4c-1.2,1.1-2.3,2.2-3.5,3.3c-0.8,0.2-1.4-0.1-1.9-0.6c-0.5-0.6-0.8-1.3-0.8-2.1
			c0.1-0.8,0.5-1.5,1.1-2c0.6-0.5,1.3-0.9,2.1-1.1c0.5-0.1,1.1-0.1,1.6,0.1C133.5,103.5,134.6,104,134,105.4z"/>
		<path class="st34" d="M129.4,107.7c0.4,0.3,0.7,0.7,1.1,1c-1.8,1.7-3.9,3-6.5,3.2c0-0.7,0-1.3,0-2c1-1.4,1.9-3.1,4.1-2.9
			C128.7,107,129.1,107.2,129.4,107.7z"/>
		<path class="st35" d="M108.6,117.4c0.4,0.7,0.8,1.4,1.1,2.2c0,1.6-2,3.8,1.2,4.5c0,0.3,0,0.6,0,0.8c-0.4,0-0.9,0.1-1.3,0.1
			c-0.7,0.7-1.3,0.7-2,0c0-2.6,0-5.1,0-7.7C107.9,117.4,108.2,117.4,108.6,117.4z"/>
		<path class="st36" d="M111.9,129.4c1.6-0.9,3.2-1.9,4.8-2.8c-0.6,2.9-2.8,3.4-4.7,4.2c-0.3-0.3-0.4-0.6-0.3-0.9
			C111.7,129.6,111.8,129.4,111.9,129.4z"/>
		<path class="st37" d="M107.6,125.1c0.7,0,1.4,0,2,0c-0.3,1.8-0.7,3.6-1,5.4c0.7,0.8,0.6,1.5,0,2.3c0,0,0.1,0.2,0.1,0.2
			c-0.4-0.1-0.8-0.2-1.2-0.2C107.5,130.2,107.6,127.7,107.6,125.1z"/>
		<path class="st38" d="M143.9,98.6c-2.1-2.7-1-5.7-1.2-8.6c0.3-0.2,0.5-0.3,0.8-0.4c0.5,2.3-0.5,5,1.4,7c0,0.3,0,0.6,0,0.9
			C145.4,98.5,144.9,98.8,143.9,98.6z"/>
		<path class="st39" d="M134,105.4c-0.8-0.4-1.5-0.8-2.3-1.2c-0.3-0.3-0.4-0.6-0.4-0.9c0-0.3,0.1-0.5,0.1-0.5
			c1.1-1.4,2.5-1.9,4.2-1.9c0.3,0.1,0.5,0.1,0.8,0.2c0.5,0.2,0.9,0.6,1.2,1c0.3,0.8,0.2,1.5-0.4,2.1C136.1,104.6,135,105,134,105.4z
			"/>
		<path class="st40" d="M142.8,112.1c1.4-0.7,2.5-1.9,4.4-1.9c0.4,2-1.6,1.9-2.3,2.9c-0.3,0.3-0.8,0.5-1.2,0.5
			C143,113.3,142.5,113,142.8,112.1z"/>
		<path class="st41" d="M137.2,104.2c0.1-0.8,0.2-1.5,0.3-2.3c0.7-1.1,1.5-1.7,2.8-0.9l0.1,0c0.7,0.6,0.7,1.3,0,2
			C139.7,104.4,138.5,104.4,137.2,104.2z"/>
		<path class="st42" d="M135.1,116.5c1.5-0.8,2.9-1.5,4.4-2.3c1.1-0.5,1.1,0,0.9,0.9c-1.4,0.8-2.8,1.6-4.2,2.4
			C135,118,134.9,117.4,135.1,116.5z"/>
		<path class="st43" d="M143.9,98.6c0.4-0.4,0.7-0.8,1.1-1.1c1.1,0.2,2.5,0.5,2.4,1.7c-0.1,1-1.5,1.4-2.6,1.5
			c-0.5-0.1-0.8-0.4-0.9-0.8C143.9,99.4,143.9,99,143.9,98.6z"/>
		<path class="st44" d="M143.9,113.1c0.3-0.1,0.7-0.1,1,0c0.7,0.8,1.3,1.7,2,2.5c-1.7-1-2.9-0.1-4,1c-0.5-0.5-0.9-0.9-1.4-1.4
			C141,113,143,113.7,143.9,113.1z"/>
		<path class="st45" d="M126.3,115.4c1.7-1,3.3-2.3,5.4-2.3c0,0.2,0,0.4,0,0.6c-1.4,0.9-2.9,1.8-4.3,2.7
			C126.2,116.9,126.1,116.3,126.3,115.4z"/>
		<path class="st46" d="M147.5,104.1c-0.5,2.2-1.9,2.2-3.5,2.7C144.5,104.5,145.9,104.6,147.5,104.1z"/>
		<path class="st47" d="M123.4,124.8c-0.3-0.3-0.9-0.5-1-0.8c0-1.1,0.9-1.4,1.8-1.6c0.3-0.1,1.1,0.4,1.1,0.7
			C125.4,124.3,124.3,124.3,123.4,124.8z"/>
		<path class="st48" d="M135.1,116.5c0.4,0.3,0.7,0.7,1.1,1c-1.1,0.9-2.7,2.6-3.5,1.4C131.6,117.1,134,117.1,135.1,116.5z"/>
		<path class="st49" d="M143.9,113.1c-0.8,0.7-1.6,1.4-2.3,2.1c-0.4,0-0.8-0.1-1.2-0.1c-0.3-0.3-0.6-0.6-0.9-0.9
			c0.8-1.2,2-1.7,3.3-2.1C143.2,112.4,143.5,112.8,143.9,113.1z"/>
		<path class="st50" d="M126.3,115.4c0.3,0.3,0.7,0.6,1,0.9c-1.2,1.5-2.7,2-4.5,1l0.1,0.1C123.8,116.3,125,115.8,126.3,115.4z"/>
		<path class="st51" d="M131.7,113.7c0-0.2,0-0.4,0-0.6c0.6-1.4,2-1.8,3.2-2.3c1.2-0.6,1.2,0,1,0.9
			C134.5,112.4,133.1,113,131.7,113.7z"/>
		<path class="st50" d="M135.9,111.7c-0.3-0.3-0.7-0.6-1-0.9c0.9-1.1,2.1-1.7,3.5-1.9c0.5,0.1,0.8,0.3,0.9,0.8
			C138.5,110.8,137.3,111.3,135.9,111.7z"/>
		<path class="st51" d="M139.3,109.6c-0.3-0.3-0.6-0.5-0.9-0.8c1.1-0.7,2-1.8,3.7-1.5C142,109.1,140.4,109.1,139.3,109.6z"/>
		<path class="st42" d="M143.9,99.9c0.3,0.3,0.6,0.6,0.9,0.8c-1.4,0.8-2.9,1.6-4.3,2.3c0-0.7,0-1.3,0-2
			C141.6,100.7,142.7,100.3,143.9,99.9z"/>
		<path class="st24" d="M108.6,132.8c0-0.8,0-1.5,0-2.3c1.1-0.4,2.2-0.7,3.3-1.1c0,0.5,0,0.9,0.1,1.4c-0.7,0.7-1.5,1.5-2.2,2.2
			C109.4,133,109,132.9,108.6,132.8z"/>
		<path class="st52" d="M110.8,133.9c0.1,1.8,0.2,3.6,0.3,5.5c-2-1.5-1.2-3.6-1.3-5.6C110.1,133.8,110.4,133.8,110.8,133.9z"/>
		<path class="st45" d="M119.6,120.4c0-0.2,0-0.4,0-0.7c0.7-1.4,2-1.7,3.3-2.3c0,0-0.1-0.1-0.1-0.1
			C122.8,119.4,121.3,120.1,119.6,120.4z"/>
		<path class="st53" d="M87.7,118.5c0.4,0,0.7,0,1.1,0c0,2.2-0.1,4.4-0.1,6.6c-0.6,0.6-1.3,0.6-1.9,0c1-1.9,0.2-3.7-0.4-5.5
			C86.6,118.9,87,118.6,87.7,118.5z"/>
		<path class="st54" d="M86.8,125.2c0.6,0,1.3,0,1.9,0c0,2.5,0.1,5.1,0.1,7.6c-0.4,0.1-0.8,0.2-1.1,0.2c0,0,0.1-0.2,0.1-0.2
			c-0.6-0.8-0.7-1.6,0-2.4C87.4,128.7,87.1,126.9,86.8,125.2z"/>
		<path class="st55" d="M119.4,103.2c0.1,2.9,0.1,5.8,0.2,8.7c0,0,0-0.1,0-0.1c-1.6,0.8-3,2.9-5.1,1c-1.3-2.3-1.1-4.4,0.6-6.4
			c0.8-1.1,1.5-2.2,2.3-3.3C118.1,103.1,118.7,103.2,119.4,103.2z"/>
		<path class="st56" d="M136,101.9c-1.3,0.7-2.6,1.5-4.2,1.1c-2.2-2.2-1.8-4.3,0-6.5c0.3-1.2,1-2,2.2-2.3c0.7,0.1,1.4,0.2,2.1,0.2
			C138.3,96.9,138.2,99.4,136,101.9z"/>
		<path class="st57" d="M129.4,105.1c-0.4,0.4-0.8,0.8-1.3,1.2c-0.7,0.3-1.2,0.2-1.7-0.4c-1.5-2.6-0.5-5,0.7-7.3
			c0.3-0.4,0.7-0.8,1-1.2C132.5,99.4,130.4,102.4,129.4,105.1z"/>
		<path class="st23" d="M124,108.2c-0.4,0.1-0.7,0.3-1.1,0.4c-3.1-2.2-1.5-5-1.1-7.7c0.4-0.3,0.7-0.6,1.1-0.9
			C126.7,102.3,126.3,105.1,124,108.2z"/>
		<path class="st58" d="M127.4,106.2c0.3,0,0.5,0,0.8,0.1c0.4,0.5,0.8,0.9,1.2,1.4c-0.3,0-0.5-0.1-0.8-0.2c-1.2,0.7-2.4,0.8-3.7,0.1
			c-0.6-2.6-0.6-5.1,0-7.7c0.4-0.1,0.8-0.1,1.2-0.2C127.7,101.7,125.7,104.3,127.4,106.2z"/>
		<path class="st26" d="M129.4,105.1c-0.1-2.6,0.9-5.4-1.2-7.7c0.7-0.2,1.4-0.5,2.1-0.7c1.6,2.4,0.8,5,0.4,7.5
			C130.3,104.5,129.8,104.8,129.4,105.1z"/>
		<path class="st59" d="M124.9,100c0.1,2.5,0.2,5.1,0.3,7.6c0.2,1-0.2,1.4-1.2,1.1c0,0,0-0.5,0-0.5c-0.1-2.8,0.6-5.7-1.1-8.2
			C123.6,100,124.2,100,124.9,100z"/>
		<path class="st60" d="M121.8,100.9c0.3,2.6-0.8,5.4,1.1,7.7c-1.2,1-1.9,0.6-2.1-0.8c-0.2-1.6-0.2-3.2-0.2-4.8
			C121,102.3,121.4,101.6,121.8,100.9z"/>
		<path class="st61" d="M127.4,106.2c-2.2-1.8-0.8-4.3-1.3-6.5c0.4-0.4,0.7-0.8,1.1-1.2C127.3,101.1,127.3,103.7,127.4,106.2z"/>
		<path class="st33" d="M130.7,104.2c-0.1-2.5-0.3-5-0.4-7.5c0.5-0.1,1-0.1,1.4-0.2c0,2.2,0,4.4,0,6.5c0,0.4,0,0.8,0,1.2
			C131.4,104.2,131,104.2,130.7,104.2z"/>
		<path class="st0" d="M111.9,148.4c0.7-0.5,1.3-1,2-1.5c1.5,1.5,1.6,3,0.2,4.6c-0.3,0.3-0.6,0.6-0.9,0.9c-0.7,0.6-1.5,0.9-2.4,0.9
			c-0.4-0.1-0.8-0.4-1-0.7c0-1.1,0-2.2,0-3.2C110.2,148.5,111.2,148.8,111.9,148.4z"/>
		<path class="st62" d="M112.9,151.7c0.4-0.1,0.8-0.1,1.1-0.2c0.1,1.5,0.2,2.9,0.3,4.4c-0.5,0.4-0.9,0.8-1.4,1.2
			c-0.2-0.2-0.5-0.4-0.7-0.6C111.1,154.8,111.6,153.2,112.9,151.7z"/>
		<path class="st63" d="M114.1,115.2c-1.4,0.3-2.8,0.7-4.2,1c-0.1-3.3-0.2-6.5-0.3-9.8c1.5,0.5,3-1.1,4.5,0c1,2,0.2,4.2,0.5,6.3
			C115,113.7,114.7,114.5,114.1,115.2L114.1,115.2z"/>
		<path class="st64" d="M114.3,113c0-2.2-0.1-4.4-0.1-6.6c0.3,0,0.6,0,0.9,0c0.1,2.2,0.2,4.3,0.3,6.5
			C115.1,113.3,114.7,113.3,114.3,113z"/>
		<path class="st65" d="M140.3,101c-0.9,0.3-1.9,0.6-2.8,0.9c0,0-0.4,0.1-0.4,0.1c-0.8-2.6-0.7-5.2-0.1-7.8c0.8-1.1,1.5-2.3,2.3-3.4
			C144.3,93.7,140.4,97.6,140.3,101z"/>
		<path class="st66" d="M137.1,94.2c0,2.6,0,5.2,0.1,7.8c-0.4,0-0.8-0.1-1.2-0.1c0-2.5,0-5,0-7.5C136.3,94.4,136.7,94.3,137.1,94.2z
			"/>
		<path class="st52" d="M109.7,152.6c0.3,0,0.6,0,0.9,0c1.9,0.6,0.7,3.1,2.3,3.9c0,0.2-0.1,0.4,0,0.7c-0.9,0.9-2,1-3.2,1
			C109.7,156.3,109.7,154.4,109.7,152.6z"/>
		<path class="st67" d="M49.6,96.4c-0.2-1.6-0.4-3.3-0.4-4.9c0-1.2-0.5-2.8,0.9-3.5c1.8-0.9,2.4,1,3.5,1.9c2.1,2.1,1.9,4.5,1.2,7
			c-1,1.6-2.4,1.8-4,0.9C50.3,97.4,49.9,96.9,49.6,96.4z"/>
		<path class="st68" d="M51.3,124.2c1.7,0.8,2.1,2.3,2.1,4c0,1-0.4,2-1.5,1.7c-2.2-0.5-2.8-2.2-2.5-4.2
			C49.6,124.9,50.1,124,51.3,124.2z"/>
		<path class="st69" d="M53.2,137.3c-0.1,1-0.3,2-1.5,1.7c-1.7-0.5-2.1-1.8-2.1-3.4c0-1,0.4-2.2,1.3-2
			C52.8,133.9,53.2,135.7,53.2,137.3z"/>
		<path class="st70" d="M53.5,117.5c-0.3,1.2,0.3,3.4-1.8,3.1c-2.9-0.4-2.3-3-2.5-5C52.2,113,52.7,115.7,53.5,117.5z"/>
		<path class="st71" d="M82.2,147.1c0-1.5,0-2.9,0-4.4c1.6-1.1,2.5,0,3.4,1c-0.1,1.6,0.6,3.5-1.3,4.6
			C83.2,148.8,82,149.1,82.2,147.1z"/>
		<path class="st72" d="M85.5,133.9c0,1.8-0.1,3.6-0.1,5.4c-2.4-0.9-3.6-2.4-2.9-5C83.1,132.2,84.4,133.5,85.5,133.9z"/>
		<path class="st73" d="M70.2,99.7c0.4,0.1,0.8,0.1,1.1,0.2c1.8,2.4,1.7,5.1,1,7.8c-1.2,1.5-2.5,2.7-4.7,2c-0.3-0.3-0.6-0.7-0.9-1
			c-0.4-0.4-0.6-0.8-0.6-1.3c0-0.8,0.4-1.5,0.8-2.1C68.5,103.7,67.6,100.7,70.2,99.7z"/>
		<path class="st74" d="M87.7,118.5c-0.4,0.4-0.9,0.7-1.3,1.1c-0.9-0.7-1.7-1.4-2.6-2.2c-1.4-0.1-2-0.9-1.7-2.3
			c1.4,0.3,2.8,0.6,4.2,0.9C86.8,116.9,87.2,117.7,87.7,118.5z"/>
		<path class="st75" d="M79,116.2c-2.2-1-4.9-1.5-5.8-4.3c1.3-1.7,2.9-0.9,4.4-0.5c0.5,0.1,1,0.3,1.5,0.6c0.9,0.7,1.4,1.6,1.4,2.7
			C80.4,115.5,79.8,116,79,116.2z"/>
		<path class="st76" d="M56.9,108.7c2.4,0.4,4.6,1.2,6.7,4.1c-3.3-0.5-5.2-1.4-6.6-3.5C56.9,109.1,56.9,108.9,56.9,108.7z"/>
		<path class="st75" d="M67.7,109.7c1.2-0.7,2.3-1.9,4-1.2c0.4-0.2,0.9-0.2,1.3,0.1c0.4,0.3,0.6,0.7,0.8,1.1
			c0.2,1.2-0.7,1.6-1.4,2.1C70.4,111.9,68.9,111.1,67.7,109.7z"/>
		<path class="st77" d="M84.2,130.8c-2-0.7-3.9-1.5-5.4-3.2c-0.7-0.4-0.7-0.7,0.1-1.1c2.2,1.1,4.3,2.2,6.5,3.2
			C85.5,130.8,85.3,131.3,84.2,130.8z"/>
		<path class="st78" d="M72.3,111.9c0.4-0.7,0.8-1.4,1.1-2.2c0.2-0.2,0.3-0.4,0.5-0.6c0.7-0.5,1.5-0.6,2.3-0.4
			c0.5,0.2,1,0.4,1.4,0.8c0.9,1.2,1.4,2.4,0,3.5c-1.5-0.4-3-0.7-4.4-1.1c0,0-0.5,0-0.5,0S72.3,111.9,72.3,111.9z"/>
		<path class="st79" d="M78.7,121.2c3,0.3,4.2,1.2,6.5,3.6C82.1,124,80.7,123.3,78.7,121.2z"/>
		<path class="st80" d="M53.4,97.5c0.1-2.5,0.1-5,0.2-7.5c1.1,0,2.3-0.1,3.4-0.1c0,0.3,0,0.6,0.1,1c-0.4,2.4,0.5,5.2-2,7
			C54.3,98,53.8,97.9,53.4,97.5z"/>
		<path class="st81" d="M49.6,96.4c0.2,0,0.4,0,0.6,0.1c0.6,1.3,2.2,1.9,2.7,3.4c0,0.5-0.2,0.9-0.6,1.2
			C50.4,100.1,45.7,100.7,49.6,96.4z"/>
		<path class="st79" d="M53.6,107.4c-2.3-0.1-3.9-1.5-6.1-2.7c3-1.2,4.5,0.6,6.1,1.9C53.6,106.9,53.6,107.2,53.6,107.4z"/>
		<path class="st82" d="M53.5,117.5c-1.1-1.3-2-3.1-4.2-1.9c0.7-0.9,1.4-1.7,2.1-2.6c-0.3-0.3-0.4-0.6-0.2-0.8
			c0.2-0.2,0.3-0.3,0.5-0.3c0.3,0.3,0.6,0.7,0.8,1c0.7,0.8,2.9,0.2,2.2,2.3C54.3,116,53.9,116.7,53.5,117.5z"/>
		<path class="st83" d="M79,116.2c0.4-0.3,0.7-0.7,1.1-1c0.7-0.7,1.5-0.6,2.2,0c0,0-0.1-0.1-0.1-0.1c0.6,0.8,1.1,1.5,1.7,2.3
			C81.7,118.8,80.5,116.8,79,116.2z"/>
		<path class="st84" d="M62.3,106.6c-1.7-0.3-3.2-1-4.4-2.3c0-0.8,0.4-1.4,1.1-1.8c0.5-0.2,0.9-0.3,1.5-0.3c0.8,0.1,1.4,0.5,1.9,1.1
			c0.5,0.6,0.7,1.3,0.7,2.1C62.9,105.9,62.7,106.3,62.3,106.6z"/>
		<path class="st85" d="M73.4,118.5c-1.7-0.2-3.2-0.9-4.4-2.2c0.2-0.5,0.5-0.8,1-0.9c1.4,0.4,2.6,0.9,3.4,2.2
			c0.3,0.2,0.4,0.4,0.3,0.6C73.6,118.4,73.5,118.5,73.4,118.5z"/>
		<path class="st86" d="M70,115.4c-0.3,0.3-0.7,0.6-1,0.9c-1.3-0.6-2.7-0.9-3.7-2.7C67.3,113.4,68.6,114.6,70,115.4z"/>
		<path class="st87" d="M78.9,126.5c0,0.3,0,0.7-0.1,1.1c-1.8-0.9-3.5-1.8-5.3-2.7c-0.2-0.9-0.2-1.5,1-0.9
			C76,124.8,77.4,125.7,78.9,126.5z"/>
		<path class="st88" d="M54.7,115.2c-0.7-0.8-1.5-1.5-2.2-2.3c1.8-0.7,3.3-0.3,4.4,1.3c0.3,0.3,0.4,0.6,0.2,0.9
			c-0.1,0.2-0.3,0.4-0.4,0.4C56,115.4,55.4,115.3,54.7,115.2z"/>
		<path class="st89" d="M61.2,116.5c1.1,0.4,2.5,0.6,2.9,2.4c-1.9,0.9-2.9-0.5-4.1-1.4C60.3,117,60.7,116.6,61.2,116.5z"/>
		<path class="st89" d="M74.5,124c-0.3,0.3-0.7,0.6-1,0.9c-1.3-0.2-2.3-0.8-3.3-2.1C72.4,121.6,73.4,123,74.5,124z"/>
		<path class="st90" d="M51.6,111.9c-0.1,0.4-0.2,0.7-0.2,1.1c-1.5-0.6-2.9-1.3-3.9-2.8C49.5,109.3,50.7,110.3,51.6,111.9z"/>
		<path class="st91" d="M61.2,116.5c-0.4,0.3-0.7,0.7-1.1,1c-1.1-0.7-2.3-1.3-3.4-2c0.1-0.4,0.1-0.8,0.2-1.2
			C58.3,115,59.8,115.7,61.2,116.5z"/>
		<path class="st92" d="M62.3,106.6c0.1-0.3,0.2-0.6,0.2-0.9c2.3-1.4,3.6-0.4,4.2,1.9c0,0.4,0.1,0.8,0.1,1.2
			C65.1,108.4,63.5,108,62.3,106.6z"/>
		<path class="st93" d="M52.4,101.1c0.1-0.3,0.2-0.6,0.2-1c0.8-1.1,1.7-0.7,2.7-0.3c0.7,0.5,1.1,1.1,1.2,1.9c0,0.5-0.2,1-0.6,1.3
			C54.7,102.4,53.5,101.7,52.4,101.1z"/>
		<path class="st94" d="M73.4,118.5c0.1-0.3,0-0.6,0-0.9c1.2,0.3,2.4,0.6,3,2.1C74.9,120.2,74.1,119.5,73.4,118.5z"/>
		<path class="st95" d="M55.8,103c0-0.4,0-0.8,0-1.2c1.7-1,2.7-0.4,3.2,1.4c-0.4,0.3-0.8,0.7-1.2,1C57.2,103.9,56.5,103.5,55.8,103z
			"/>
		<path class="st96" d="M53.6,107.4c0-0.2,0-0.5,0-0.7c1.4,0.2,2.5,0.7,3.2,2c0,0.2,0,0.4,0.1,0.7C55.5,109.3,54.3,108.7,53.6,107.4
			z"/>
		<path class="st89" d="M84.2,130.8c0.4-0.3,0.8-0.7,1.2-1c0.8,0.2,1.6,0.5,2.3,0.7c0,0.8,0,1.6,0,2.4c-0.4,0.1-0.8,0.1-1.2,0.2
			C85.7,132.3,85,131.5,84.2,130.8z"/>
		<path class="st12" d="M82.2,147.1c0.7,0.4,1.5,0.8,2.2,1.2c1.2,1.3,3.2,2.4,0.9,4.3c-0.5,0.4-1.1,0.5-1.7,0.4
			c-0.5-0.2-1.1-0.5-1.7-0.5C80.9,150.7,80.7,148.8,82.2,147.1z"/>
		<path class="st97" d="M83.4,151.7c0.6,0.3,1.3,0.7,1.9,1c0.1,1.8,1.6,4.2-2,4.3c0,0,0.1-0.2,0.1-0.2
			C82.3,155.1,82.4,153.4,83.4,151.7z"/>
		<path class="st98" d="M82.2,115.2c-0.7,0-1.5,0-2.2,0c-0.3-0.7-0.7-1.4-1-2.1c0.8-2.2-0.8-5.2,2.2-6.7c0.3,0,0.6,0,0.9,0
			C82.1,109.3,82.2,112.3,82.2,115.2z"/>
		<path class="st99" d="M81.2,106.4c-0.8,2.2,1.2,5.4-2.2,6.7c-0.5,0-0.9-0.1-1.4-0.1c-0.4-1.1-0.8-2.2-1.1-3.3
			c-1.7-2.3-1.7-4.5,0.3-6.6C79.5,102.5,80.2,104.6,81.2,106.4z"/>
		<path class="st100" d="M70.2,99.7c-0.8,2.2,1.5,5.6-2.4,6.7c-4.5-2.4-5-4.7-1.9-9.8c2-0.5,2.7,1.2,3.9,2.1
			C70,99.1,70.1,99.4,70.2,99.7z"/>
		<path class="st101" d="M73.4,109.7c-0.3-0.4-0.7-0.8-1-1.2c-0.2-2.7-2.5-5.8,1.3-7.9c0.3,0.4,0.6,0.8,1,1.2
			c0.8,2.8,2.4,5.7-1.3,7.8L73.4,109.7z"/>
		<path class="st102" d="M73.7,100.6c-2.2,2.3-1.1,5.2-1.3,7.9c-0.2,0-0.5,0-0.7,0c-0.8-2.9-0.4-5.7-0.3-8.6
			C72.2,99.8,73.1,99.8,73.7,100.6z"/>
		<path class="st103" d="M73.3,109.6c1.6-2.4,1-5.2,1.3-7.8c0.4,0.4,0.7,0.8,1.1,1.3c0.6,2.2,0.9,4.4-0.2,6.6
			C74.8,109.6,74.1,109.6,73.3,109.6z"/>
		<path class="st104" d="M75.5,109.7c0.1-2.2,0.1-4.4,0.2-6.6c0.4,0,0.7,0.1,1.1,0.1c-0.1,2.2-0.2,4.4-0.3,6.6
			C76.2,109.7,75.8,109.7,75.5,109.7z"/>
		<path class="st105" d="M83.4,151.7c0,1.7,0.1,3.3,0.1,5c-0.5-0.6-1.1-1.3-1.6-1.9c0-0.8,0-1.5,0-2.3
			C82.4,152.3,82.9,152,83.4,151.7z"/>
		<path class="st67" d="M61.2,103.9c-0.3-0.3-0.6-0.6-1-0.8c-0.5-0.5-0.8-1-1.2-1.5c-0.8-2.6-1-5.1,1-7.3c1.2-1.1,2.3-0.4,3.3,0.2
			c0.4,0.7,0.8,1.4,1.2,2C64.5,99.5,67.9,104,61.2,103.9z"/>
		<path class="st106" d="M61.2,103.9c4.5-1,2.9-4.6,3.3-7.4c0.4,0.1,0.9,0.1,1.3,0.2c0,3.4-1.7,7.1,1.9,9.8
			c-0.4,0.4-0.8,0.7-1.2,1.1c-1.4-0.6-2.8-1.3-4.2-1.9C62.1,105.1,61.7,104.5,61.2,103.9z"/>
		<path class="st107" d="M54.5,97.6c0.9-2.2-1.5-5.7,2.4-6.8c0.8,1.1,1.5,2.3,2.3,3.4c0.7,2.1,0.3,4.2,0.3,6.4
			c-1.8,2-3.2-0.2-4.8-0.5C54,99.3,54,98.5,54.5,97.6z"/>
		<path class="st108" d="M59.1,100.8c0.1-2.2,0.1-4.4,0.2-6.6c0.3,0,0.6,0,0.8,0c0,2.6,0,5.2,0,7.8
			C59.1,102.2,58.6,101.9,59.1,100.8z"/>
		<path class="st52" d="M111.9,148.4c-0.7,0.3-1.5,0.6-2.2,0.9c0.1-1.8-0.4-3.8,0.8-5.4C110.7,145.5,110,147.3,111.9,148.4z"/>
		<path class="st109" d="M124,108.7c0.4-0.4,0.8-0.7,1.2-1.1c1.1,0,2.3,0,3.4-0.1c-1.2,1.3-2.9,1.9-4.6,2.4
			C124,109.5,124,109.1,124,108.7z"/>
		<path class="st110" d="M114.3,113c0.4,0,0.8-0.1,1.1-0.1c1.4-0.3,2.8-0.7,4.2-1c-1.1,2.4-3.1,3.4-5.6,3.4
			C114.1,114.5,114.2,113.8,114.3,113z"/>
		<path class="st111" d="M113,156.5c-3.9,0.5-1.7-2.5-2.3-3.9c0.5-0.9,1.3-1,2.3-0.9C112.9,153.3,112.9,154.9,113,156.5z"/>
		<path class="st106" d="M54.5,97.6c0.1,0.7,0.1,1.3,0.2,2c0.7,0.4,0.7,0.9,0,1.3c-0.7-0.2-1.4-0.5-2.1-0.7c-1.1-1-2.5-1.8-2.3-3.6
			c1,0.3,2,0.7,3.1,1C53.7,97.5,54.1,97.6,54.5,97.6z"/>
		<path class="st12" d="M54.7,100.9c0-0.4,0-0.9,0-1.3c1.4,0.4,2.9,0.8,4.3,1.2c0.3,0.4,0.7,0.8,1,1.2c0.1,0.4,0.2,0.7,0.2,1.1
			c-0.4,0.1-0.8,0.1-1.3,0.2c-1.1-0.5-2.1-0.9-3.2-1.4C55.5,101.5,55.1,101.2,54.7,100.9z"/>
	</g>
</g>
<text transform="matrix(1 0 0 1 209.999 105.2314)" class="st112 st113">ANGULARJS</text>
<text transform="matrix(1 0 0 1 260 199.002)" class="st114 st115">HYDERABAD</text>
</svg>
