<?xml version="1.0" encoding="utf-8"?>
<!-- Generator: Adobe Illustrator 20.1.0, SVG Export Plug-In . SVG Version: 6.00 Build 0)  -->
<svg version="1.1" id="Layer_4" xmlns="http://www.w3.org/2000/svg" xmlns:xlink="http://www.w3.org/1999/xlink" x="0px" y="0px"
	 viewBox="0 0 1089.3 200" style="enable-background:new 0 0 1089.3 200;" xml:space="preserve">
<style type="text/css">
	.st0{fill:none;}
	.st1{fill:#FFC107;}
	.st2{fill:#0F9D58;}
	.st3{opacity:0.2;fill:#BF360C;enable-background:new    ;}
	.st4{opacity:0.2;fill:#263238;enable-background:new    ;}
	.st5{opacity:0.2;fill:#FFFFFF;enable-background:new    ;}
	.st6{fill:url(#XMLID_4_);}
	.st7{fill:url(#XMLID_5_);}
	.st8{fill:#4285F4;}
	.st9{fill:#DB4437;}
	.st10{opacity:0.2;fill:#1A237E;enable-background:new    ;}
	.st11{opacity:0.2;fill:#3E2723;enable-background:new    ;}
	.st12{fill:url(#XMLID_6_);}
	.st13{fill:#767676;}
</style>
<g id="XMLID_1_">
	<g id="XMLID_50_">
		<g id="XMLID_72_">
			<path id="XMLID_7_" class="st0" d="M122.5,90.6L70.1,0H0l57.8,100L0,200h70.1l52.4-90.6C125.8,103.6,125.8,96.4,122.5,90.6z"/>
			<path id="XMLID_80_" class="st1" d="M92.4,159.8l-16.6-28.7L35.9,200h34.2l22.8-39.4L92.4,159.8z"/>
			<path id="XMLID_8_" class="st0" d="M122.5,90.6L70.1,0H0l57.8,100L0,200h70.1l52.4-90.6C125.8,103.6,125.8,96.4,122.5,90.6z"/>
			<path id="XMLID_39_" class="st2" d="M57.8,100l18,31.1L35.9,200H0L57.8,100z"/>
			<path id="XMLID_9_" class="st0" d="M122.5,90.6L70.1,0H0l57.8,100L0,200h70.1l52.4-90.6C125.8,103.6,125.8,96.4,122.5,90.6z"/>
			<path id="XMLID_38_" class="st3" d="M70.1,198.4H36.8l-0.9,1.6h34.2l22.8-39.4l-0.5-0.8L70.1,198.4z"/>
			<path id="XMLID_10_" class="st0" d="M122.5,90.6L70.1,0H0l57.8,100L0,200h70.1l52.4-90.6C125.8,103.6,125.8,96.4,122.5,90.6z"/>
			<path id="XMLID_37_" class="st4" d="M0.9,198.4L0,200h35.9l0.9-1.6H0.9z"/>
			<path id="XMLID_11_" class="st0" d="M122.5,90.6L70.1,0H0l57.8,100L0,200h70.1l52.4-90.6C125.8,103.6,125.8,96.4,122.5,90.6z"/>
			<path id="XMLID_36_" class="st5" d="M0,200h0.9l57.4-99.2l-0.5-0.8L0,200z"/>
			<path id="XMLID_12_" class="st0" d="M122.5,90.6L70.1,0H0l57.8,100L0,200h70.1l52.4-90.6C125.8,103.6,125.8,96.4,122.5,90.6z"/>
			
				<radialGradient id="XMLID_4_" cx="341.387" cy="624.714" r="44.264" gradientTransform="matrix(1.5625 0 0 1.5625 -440.7975 -816.1565)" gradientUnits="userSpaceOnUse">
				<stop  offset="0" style="stop-color:#BF360C;stop-opacity:0.2"/>
				<stop  offset="1" style="stop-color:#BF360C;stop-opacity:2.000000e-02"/>
			</radialGradient>
			<path id="XMLID_79_" class="st6" d="M92.9,160.6l-17.1-29.5l-4.2,7.2L92.9,160.6z"/>
			<path id="XMLID_13_" class="st0" d="M122.5,90.6L70.1,0H0l57.8,100L0,200h70.1l52.4-90.6C125.8,103.6,125.8,96.4,122.5,90.6z"/>
			
				<radialGradient id="XMLID_5_" cx="341.262" cy="624.994" r="44.623" gradientTransform="matrix(1.5625 0 0 1.5625 -440.7975 -816.1565)" gradientUnits="userSpaceOnUse">
				<stop  offset="0" style="stop-color:#263238;stop-opacity:0.2"/>
				<stop  offset="1" style="stop-color:#263238;stop-opacity:2.000000e-02"/>
			</radialGradient>
			<path id="XMLID_78_" class="st7" d="M71.6,138.3l4.2-7.2l-18-31.1l-8.5,14.8L71.6,138.3z"/>
			<path id="XMLID_14_" class="st0" d="M122.5,90.6L70.1,0H0l57.8,100L0,200h70.1l52.4-90.6C125.8,103.6,125.8,96.4,122.5,90.6z"/>
			<g id="XMLID_75_">
				<g id="XMLID_76_">
					<path id="XMLID_77_" class="st8" d="M35.9,0H0l92.9,160.6l17.9-31.1L35.9,0z"/>
				</g>
			</g>
			<path id="XMLID_15_" class="st0" d="M122.5,90.6L70.1,0H0l57.8,100L0,200h70.1l52.4-90.6C125.8,103.6,125.8,96.4,122.5,90.6z"/>
			<path id="XMLID_35_" class="st9" d="M122.5,109.4c3.4-5.8,3.4-13,0-18.8L70.1,0H35.9l74.9,129.5L122.5,109.4z"/>
			<path id="XMLID_16_" class="st0" d="M122.5,90.6L70.1,0H0l57.8,100L0,200h70.1l52.4-90.6C125.8,103.6,125.8,96.4,122.5,90.6z"/>
			<path id="XMLID_34_" class="st10" d="M110.8,129.5l-0.4-0.8L92.9,159L0.9,0H0l92.9,160.6L110.8,129.5z"/>
			<path id="XMLID_17_" class="st0" d="M122.5,90.6L70.1,0H0l57.8,100L0,200h70.1l52.4-90.6C125.8,103.6,125.8,96.4,122.5,90.6z"/>
			<path id="XMLID_2_" class="st5" d="M70.1,1.6l52.4,90.6c1.5,2.7,2.3,5.6,2.5,8.6c0.1-3.5-0.7-7-2.5-10.2L70.1,0H0l0.9,1.6H70.1z"
				/>
			<path id="XMLID_18_" class="st0" d="M122.5,90.6L70.1,0H0l57.8,100L0,200h70.1l52.4-90.6C125.8,103.6,125.8,96.4,122.5,90.6z"/>
			<path id="XMLID_74_" class="st11" d="M110.8,129.5l11.6-20.1c1.8-3.1,2.6-6.7,2.5-10.2c-0.1,3-0.9,5.9-2.5,8.6l-12.1,20.9
				L110.8,129.5z"/>
			<path id="XMLID_19_" class="st0" d="M122.5,90.6L70.1,0H0l57.8,100L0,200h70.1l52.4-90.6C125.8,103.6,125.8,96.4,122.5,90.6z"/>
			
				<radialGradient id="XMLID_6_" cx="281.111" cy="523.34" r="134.35" gradientTransform="matrix(1.5625 0 0 1.5625 -440.7975 -816.1565)" gradientUnits="userSpaceOnUse">
				<stop  offset="0" style="stop-color:#FFFFFF;stop-opacity:0.1"/>
				<stop  offset="1" style="stop-color:#FFFFFF;stop-opacity:0"/>
			</radialGradient>
			<path id="XMLID_73_" class="st12" d="M122.5,90.6L70.1,0H0l57.8,100L0,200h70.1l52.4-90.6C125.8,103.6,125.8,96.4,122.5,90.6z"/>
		</g>
	</g>
</g>
<g>
	<path class="st13" d="M247.9,92.4h76c0.4,1.7,0.8,3.8,1.1,6.3c0.3,2.5,0.4,4.9,0.4,7.4c0,10-1.5,19.4-4.5,28.2
		c-3,8.8-7.8,16.7-14.3,23.6c-6.9,7.4-15.2,13.1-24.9,17.1c-9.7,4-20.7,6.1-33.1,6.1c-11.3,0-21.9-2-31.8-6.1
		c-10-4-18.6-9.7-26-16.9c-7.4-7.2-13.2-15.8-17.5-25.7c-4.3-9.9-6.5-20.7-6.5-32.4c0-11.7,2.2-22.5,6.5-32.4
		c4.3-9.9,10.2-18.4,17.5-25.7c7.4-7.2,16-12.9,26-16.9c10-4,20.6-6.1,31.8-6.1c12.6,0,23.8,2.2,33.7,6.5c9.9,4.3,18.4,10.3,25.5,18
		l-20.1,19.7c-5.1-5.3-10.7-9.4-16.9-12.2c-6.2-2.8-13.6-4.2-22.3-4.2c-7.1,0-13.8,1.3-20.1,3.8c-6.4,2.5-11.9,6.1-16.7,10.7
		c-4.8,4.6-8.6,10.2-11.4,16.8c-2.8,6.6-4.2,13.9-4.2,22c0,8.1,1.4,15.4,4.2,22c2.8,6.6,6.6,12.2,11.5,16.8
		c4.8,4.6,10.4,8.2,16.8,10.7c6.4,2.5,13.1,3.8,20.4,3.8c8.2,0,15.2-1.2,20.9-3.6c5.7-2.4,10.6-5.5,14.6-9.2
		c2.9-2.6,5.4-5.9,7.5-9.9c2.1-4,3.7-8.4,4.9-13.3h-48.7V92.4z"/>
	<path class="st13" d="M349.7,22.5h52.4c12.3,0,23.3,1.9,33.1,5.6c9.8,3.8,18.2,9.1,25.1,15.9c6.9,6.9,12.2,15.1,15.9,24.6
		c3.7,9.5,5.5,20,5.5,31.4c0,11.6-1.8,22.1-5.5,31.6c-3.7,9.5-9,17.7-15.9,24.5c-6.9,6.8-15.3,12.1-25.1,15.8
		c-9.8,3.8-20.9,5.6-33.1,5.6h-52.4V22.5z M400.8,149.9c8.5,0,16-1.2,22.5-3.6s11.9-5.7,16.2-10.1c4.3-4.3,7.6-9.6,9.7-15.7
		c2.2-6.1,3.2-13,3.2-20.5c0-7.5-1.1-14.3-3.2-20.5c-2.2-6.1-5.4-11.4-9.7-15.7c-4.3-4.3-9.7-7.7-16.2-10.1
		c-6.5-2.4-14-3.6-22.5-3.6h-21.9v99.6H400.8z"/>
	<path class="st13" d="M579.1,92.4h76c0.4,1.7,0.8,3.8,1.1,6.3c0.3,2.5,0.4,4.9,0.4,7.4c0,10-1.5,19.4-4.5,28.2
		c-3,8.8-7.8,16.7-14.3,23.6c-6.9,7.4-15.2,13.1-24.9,17.1c-9.7,4-20.7,6.1-33.1,6.1c-11.3,0-21.9-2-31.8-6.1
		c-10-4-18.6-9.7-26-16.9c-7.4-7.2-13.2-15.8-17.5-25.7c-4.3-9.9-6.5-20.7-6.5-32.4c0-11.7,2.2-22.5,6.5-32.4
		c4.3-9.9,10.2-18.4,17.5-25.7c7.4-7.2,16-12.9,26-16.9c10-4,20.6-6.1,31.8-6.1c12.6,0,23.8,2.2,33.7,6.5c9.9,4.3,18.4,10.3,25.5,18
		l-20.1,19.7c-5.1-5.3-10.7-9.4-16.9-12.2c-6.2-2.8-13.6-4.2-22.3-4.2c-7.1,0-13.8,1.3-20.1,3.8c-6.4,2.5-11.9,6.1-16.7,10.7
		c-4.8,4.6-8.6,10.2-11.4,16.8c-2.8,6.6-4.2,13.9-4.2,22c0,8.1,1.4,15.4,4.2,22c2.8,6.6,6.6,12.2,11.5,16.8
		c4.8,4.6,10.4,8.2,16.8,10.7c6.4,2.5,13.1,3.8,20.4,3.8c8.2,0,15.2-1.2,20.9-3.6c5.7-2.4,10.6-5.5,14.6-9.2
		c2.9-2.6,5.4-5.9,7.5-9.9c2.1-4,3.7-8.4,4.9-13.3h-48.7V92.4z"/>
</g>
<g>
	<path class="st13" d="M737.6,165.6H721V36.3h16.6v55.4h64.6V36.3h16.6v129.2h-16.6v-58.3h-64.6V165.6z"/>
	<path class="st13" d="M894.1,105.5v60.1h-16.6v-60.1L834,36.3h19.5l31.9,52.5h0.7l31.2-52.5h19.5L894.1,105.5z"/>
	<path class="st13" d="M952,165.6V36.3h39.5c19.7,0,35.6,6,47.6,17.9c12,11.9,18,27.5,18,46.7c0,19.4-6,35-18,46.8
		c-12,11.9-27.8,17.8-47.6,17.8H952z M968.6,52.2v97.5h22.9c15,0,26.9-4.3,35.6-12.9c8.7-8.6,13-20.5,13-35.8
		c0-15.2-4.3-27.1-13-35.7c-8.7-8.7-20.5-13-35.6-13H968.6z"/>
</g>
</svg>
