<?xml version="1.0" encoding="utf-8"?>
<!-- Generator: Adobe Illustrator 20.1.0, SVG Export Plug-In . SVG Version: 6.00 Build 0)  -->
<svg version="1.1" id="Layer_1" xmlns="http://www.w3.org/2000/svg" xmlns:xlink="http://www.w3.org/1999/xlink" x="0px" y="0px"
	 viewBox="0 0 1000 328.6" style="enable-background:new 0 0 1000 328.6;" xml:space="preserve">
<style type="text/css">
	.st0{fill:#6C6D6D;}
	.st1{fill:#666666;}
	.st2{fill:url(#SVGID_1_);}
	.st3{fill:url(#SVGID_2_);}
	.st4{fill:url(#SVGID_3_);}
	.st5{fill:url(#SVGID_4_);}
	.st6{fill:url(#SVGID_5_);}
	.st7{fill:url(#SVGID_6_);}
</style>
<g>
	<path class="st0" d="M404,182c0,17-4.7,30-14,38.9c-9.3,9-22.8,13.5-40.3,13.5h-28.5V131.5h31.5c16.2,0,28.8,4.4,37.8,13.2
		C399.5,153.6,404,166,404,182z M386.4,182.5c0-24.6-11.4-36.9-34.2-36.9h-14.4v74.7h11.8C374.2,220.2,386.4,207.7,386.4,182.5
		L386.4,182.5z M449.2,235.8c-12,0-21.4-3.5-28.1-10.6c-6.8-7.1-10.1-16.8-10.1-29.2c0-12.7,3.1-22.7,9.4-30
		c6.3-7.3,14.9-10.9,25.8-10.9c10.2,0,18.2,3.1,24.1,9.4c5.9,6.2,8.8,14.8,8.8,25.8v8.9h-51.3c0.2,7.5,2.3,13.4,6.1,17.4
		c3.8,4.1,9.2,6.1,16.1,6.1c4.6,0,8.8-0.4,12.7-1.3s8.1-2.3,12.6-4.3v13.4c-3.9,1.9-7.9,3.2-12.1,4.1
		C459.1,235.4,454.4,235.8,449.2,235.8z M446.2,167.7c-5.2,0-9.4,1.7-12.5,5c-3.1,3.3-5,8.2-5.6,14.6h35c-0.1-6.4-1.6-11.3-4.6-14.6
		C455.5,169.3,451.4,167.7,446.2,167.7L446.2,167.7z M506.7,234.4l-29.3-77.8h17.3l15.7,45.2c2.7,7.6,4.3,13.7,4.9,18.4h0.6
		c0.4-3.4,2-9.5,4.9-18.4l15.7-45.2h17.4l-29.4,77.8H506.7z M590.6,235.8c-12,0-21.3-3.5-28.1-10.6c-6.8-7.1-10.1-16.8-10.1-29.2
		c0-12.7,3.1-22.7,9.4-30c6.3-7.3,14.9-10.9,25.8-10.9c10.2,0,18.2,3.1,24.1,9.4c5.9,6.2,8.8,14.8,8.8,25.8v8.9h-51.3
		c0.2,7.5,2.3,13.4,6.1,17.4c3.8,4.1,9.2,6.1,16.1,6.1c4.6,0,8.8-0.4,12.7-1.3c3.9-0.9,8.1-2.3,12.6-4.3v13.4
		c-3.9,1.9-7.9,3.2-12.1,4.1C600.5,235.4,595.9,235.8,590.6,235.8L590.6,235.8z M587.6,167.7c-5.2,0-9.4,1.7-12.5,5
		c-3.1,3.3-5,8.2-5.6,14.6h35c-0.1-6.4-1.6-11.3-4.6-14.6C596.9,169.3,592.8,167.7,587.6,167.7z M647,234.4h-16.4V124.9H647V234.4z
		 M730.1,195.3c0,12.7-3.2,22.6-9.7,29.8c-6.5,7.1-15.4,10.7-27,10.7c-7.2,0-13.6-1.6-19.1-4.9c-5.5-3.3-9.8-8-12.7-14.1
		c-3-6.1-4.5-13.3-4.5-21.4c0-12.6,3.2-22.5,9.6-29.6c6.4-7.1,15.4-10.6,27.1-10.6c11.1,0,20,3.6,26.5,10.9
		C726.9,173.3,730.1,183,730.1,195.3z M674.1,195.3c0,18,6.6,26.9,19.7,26.9c13,0,19.5-9,19.5-26.9c0-17.8-6.5-26.7-19.6-26.7
		c-6.9,0-11.8,2.3-14.9,6.9C675.6,180.2,674.1,186.7,674.1,195.3z M779.4,235.8c-9.8,0-17.3-3.5-22.7-10.6h-1c0.6,6.6,1,10.6,1,12
		V269h-16.4V156.6h13.2c0.4,1.5,1.1,4.9,2.3,10.4h0.8c5.1-7.9,12.8-11.8,23-11.8c9.6,0,17.1,3.5,22.5,10.6c5.4,7,8,16.9,8,29.6
		c0,12.7-2.7,22.6-8.2,29.8C796.6,232.2,789.1,235.8,779.4,235.8L779.4,235.8z M775.5,168.7c-6.5,0-11.3,1.9-14.2,5.8
		c-3,3.8-4.5,10-4.5,18.4v2.5c0,9.5,1.5,16.3,4.5,20.6c3,4.2,7.8,6.4,14.6,6.4c5.7,0,10-2.3,13.1-7c3.1-4.7,4.6-11.4,4.6-20.1
		c0-8.7-1.5-15.3-4.6-19.8C785.8,170.9,781.4,168.7,775.5,168.7L775.5,168.7z M854.3,235.8c-12,0-21.3-3.5-28.1-10.6
		c-6.8-7.1-10.1-16.8-10.1-29.2c0-12.7,3.1-22.7,9.4-30c6.3-7.3,14.9-10.9,25.8-10.9c10.2,0,18.2,3.1,24.1,9.4
		c5.9,6.2,8.8,14.8,8.8,25.8v8.9h-51.3c0.2,7.5,2.3,13.4,6.1,17.4c3.8,4.1,9.2,6.1,16.1,6.1c4.6,0,8.8-0.4,12.7-1.3
		c3.9-0.9,8.1-2.3,12.6-4.3v13.4c-3.9,1.9-7.9,3.2-12.1,4.1C864.2,235.4,859.6,235.8,854.3,235.8z M851.3,167.7
		c-5.2,0-9.4,1.7-12.5,5c-3.1,3.3-5,8.2-5.6,14.6h35c-0.1-6.4-1.6-11.3-4.6-14.6C860.6,169.3,856.5,167.7,851.3,167.7L851.3,167.7z
		 M933.4,155.2c3.3,0,6,0.2,8.2,0.7l-1.6,15.4c-2.4-0.6-4.8-0.9-7.2-0.8c-6.5,0-11.9,2.2-15.9,6.5c-4.1,4.3-6.1,9.9-6.1,16.8v40.7
		h-16.4v-77.8h12.8l2.2,13.7h0.8c2.6-4.6,5.9-8.3,10-11C924.2,156.5,928.6,155.2,933.4,155.2L933.4,155.2z M999,212.2
		c0,7.6-2.7,13.4-8.2,17.5c-5.5,4.1-13.3,6.1-23.5,6.1c-10.3,0-18.5-1.6-24.7-4.7v-14.3c9.1,4.2,17.5,6.3,25.3,6.3
		c10.1,0,15.1-3.1,15.1-9.2c0-2-0.6-3.6-1.7-4.9c-1.1-1.3-2.9-2.7-5.5-4.1c-2.6-1.4-6.1-3-10.7-4.8c-8.9-3.5-14.9-6.9-18-10.4
		c-3.1-3.5-4.7-8-4.7-13.5c0-6.7,2.7-11.8,8-15.5c5.3-3.7,12.5-5.5,21.7-5.5c9.1,0,17.6,1.9,25.7,5.6l-5.3,12.5
		c-8.3-3.5-15.3-5.2-21-5.2c-8.6,0-13,2.5-13,7.5c0,2.4,1.1,4.5,3.4,6.2c2.3,1.7,7.2,4,14.7,7c6.4,2.5,11,4.8,13.9,6.8
		c2.9,2.1,5,4.4,6.4,7.1C998.3,205.2,999,208.5,999,212.2L999,212.2z"/>
</g>
<path class="st1" d="M529.3,93.4c-2.1,1.1-5.1,1.5-7.5,1.5c-4.9,0.1-8.8-3.3-11.3-7.2c-1.7-2.6-2.7-5.6-2.9-8.6
	c-0.4-4.8,0.8-10.4,6.1-11.7c3.6-0.9,7,1.1,8.3,4.6c0.6,1.6,0.2,2.4-1.2,3l-13,5.5l4.4,0.3c5.3-2.2,11.2-4.3,16.4-6.5
	c1.1-0.5,1.2-0.6,0.8-1.7c-2.3-6.6-10.9-10.2-18.2-7.1c-5.8,2.4-10,8.6-10,15.6c0,9.3,6.6,17.6,15.7,17.6c4.1,0,7.1-0.6,9.7-2.2
	c0.6-0.5,3.7-3.1,3.8-3.7C530.5,92.6,530,93,529.3,93.4L529.3,93.4z M495.1,92c0.1-13.1-0.2-26.3,0.3-39.4c0.1-1.1,0.2-2.4,0.6-3.1
	c0.6-0.9,1-1.3,2.4-2.2h-9.7c-1.9,0.9-3.7,2.2-5.5,3.2c2-0.1,3.7,0,5.7-0.1c-0.8,13.2-0.3,26.3-0.4,39.9c0.1,4.1-0.7,5.1-2.3,6.8
	c4.1,0,8.1,0.1,12.3,0.1c0.9-0.5,2-1.7,2.7-2.3C496.6,95.1,495.2,95.6,495.1,92L495.1,92z"/>
<path class="st1" d="M485.1,65.5c-5.8-0.1-11.7-0.1-17.5-0.1c-5.8,0-11,2.9-13.4,7.9c-1.1,2.3-1.5,5.4-0.8,8.2
	c1.4,5.7,7.2,9.4,12.9,8.5c0.6-0.1,0.8-0.3,0.5,0.3c-1.2,2.2-0.3,5.6,2.1,7.2c-1.8-0.1-3.6-0.1-5.3,0.1c-6.9,0.8-14.6,4.4-14.2,12
	c0.3,5.9,6.2,10.2,15.4,10.2c7.5,0,14.5-2.4,17.5-7.7c3.1-5.6,1.3-11.4-3.4-15c-2.1-1.6-5.8-3.8-5.6-6.9c0.1-1,0.8-2.1,2.3-3
	c2.6-1.5,4.3-3.5,5.2-5.8c0.9-2.4,0.8-5.1-0.1-7.5c-0.8-2.3-2.4-4.3-4.4-5.7h4.7L485.1,65.5L485.1,65.5z M473.4,101
	c4.1,2.6,5.4,5.8,5.1,8.7c-0.4,3.6-3.8,6.3-9.5,6.7c-6.2,0.4-14.5-2.1-12.9-10.3c0.8-4.4,6.6-6.6,11.3-6.8c1.3,0,2.7,0,4,0.1
	C471.9,100,472.6,100.5,473.4,101z M470.2,87.9c-4.2,1.2-8.7-2.1-10.2-7.9c-1.6-6.4,0-10.5,3.9-11.7c4.6-1.5,9.6,2.8,10.7,9.7
	C475.4,82.4,474.3,86.7,470.2,87.9L470.2,87.9z M449.8,80.7c-0.5-8.8-6.3-16.2-17.5-16.2c-9.6,0-17.5,7.6-17.5,16.9
	c0,10.7,9.2,17.9,19.6,16.8C443.2,97.3,450.4,89.5,449.8,80.7L449.8,80.7z M435.7,95.6c-5.8,1.3-12.1-3.5-13.6-11.8
	c-1.7-9.1,1.1-15.1,6.6-16.6c6.5-1.7,13.2,4.9,14.1,14.7C443.5,88.3,441.4,94.2,435.7,95.6z M394.3,64.5c-9.8,0-17.7,7.6-17.7,16.9
	c0,10.7,9.3,17.9,19.9,16.8c8.8-0.9,16-8.7,15.5-17.5C411.3,72,405.5,64.5,394.3,64.5L394.3,64.5z M397.6,95.6
	c-5.9,1.3-12.2-3.5-13.7-11.8c-1.7-9.1,1.1-15.1,6.7-16.6c6.6-1.7,13.3,4.9,14.3,14.7C405.5,88.3,403.4,94.2,397.6,95.6z
	 M353.6,84.9l10.7-0.3v9.3c0,1.3,0,1.5-2.2,2.2c-3,0.8-6.5,1-9.6,0.7c-10.7-0.9-18.8-9.4-20.7-20c-1.9-10.1,2.9-19.6,10.8-23.5
	c3.9-1.9,8.5-2.8,13.6-1.2c3.2,1,6,2.9,8.5,5.4l-1.8,3.2l3.3-0.9l5-5.2c-8.6-7.2-23.3-8.1-33.1-3.1c-8.5,4.4-14.7,13-15,22.6
	c-0.3,10.1,5.5,18.1,11.4,22.1c9.8,6.7,26.7,5.2,36.9,0l0-1h0V84.6l2.4-2.8h-14.8L353.6,84.9L353.6,84.9z"/>
<radialGradient id="SVGID_1_" cx="-852.8376" cy="903.3987" r="32.5808" gradientTransform="matrix(5.5912 0 0 -5.6485 4958.8696 5131.2412)" gradientUnits="userSpaceOnUse">
	<stop  offset="0" style="stop-color:#0DA960"/>
	<stop  offset="1" style="stop-color:#03914B"/>
</radialGradient>
<path class="st2" d="M226.9,189.2c2.7,4.4,2.7,11.4,0.4,16.2l31.6-53.2c2.8-4.8,2.8-12.5,0-17.3l-51.1-86c-2.8-4.7-9.6-8.6-15.1-8.6
	h-44.5c-5.5,0-7.7,3.9-4.8,8.6l31.8,53.5c0.2,0.3,0.5,0.5,0.6,0.8L226.9,189.2L226.9,189.2z"/>
<radialGradient id="SVGID_2_" cx="-851.7449" cy="882.9777" r="24.1665" gradientTransform="matrix(5.5912 0 0 -5.6485 4958.8696 5131.2412)" gradientUnits="userSpaceOnUse">
	<stop  offset="0" style="stop-color:#FFCD4D"/>
	<stop  offset="1" style="stop-color:#F6C338"/>
</radialGradient>
<path class="st3" d="M148.1,246.9h44.5c5.5,0,12.3-3.9,15.1-8.6l19.5-32.8c2.3-4.8,2.2-11.8-0.4-16.2L194.4,135
	c2.8,4.7,2.8,12.5,0,17.3l-31.6,53.2c-0.2,0.4-0.2,0.8-0.4,1.1L143,239.2C141,243.5,143,246.9,148.1,246.9L148.1,246.9z"/>
<linearGradient id="SVGID_3_" gradientUnits="userSpaceOnUse" x1="-843.9359" y1="877.9578" x2="-854.265" y2="877.9578" gradientTransform="matrix(5.5688 0 0 -5.5688 4939.0049 5059.3833)">
	<stop  offset="0" style="stop-color:#231F20;stop-opacity:0.2"/>
	<stop  offset="1" style="stop-color:#F1F2F2;stop-opacity:0.25"/>
</linearGradient>
<path class="st4" d="M226.9,189.2L194.4,135c2.8,4.7,2.8,12.5,0,17.3L183,171.5l44.3,34C229.6,200.7,229.5,193.7,226.9,189.2
	L226.9,189.2z"/>
<g>
	
		<radialGradient id="SVGID_4_" cx="-1106.5929" cy="1745.266" r="32.5816" gradientTransform="matrix(-5.5912 0 0 5.6485 -6115.7393 -9599.3564)" gradientUnits="userSpaceOnUse">
		<stop  offset="0" style="stop-color:#4387FD"/>
		<stop  offset="1" style="stop-color:#4683EA"/>
	</radialGradient>
	<path class="st5" d="M35,98c-2.6-4.4-2.7-11.4-0.4-16.2L3,134.9c-2.8,4.8-2.8,12.5,0,17.3l51.1,86c2.8,4.7,9.6,8.6,15.1,8.6h44.5
		c5.5,0,7.7-3.9,4.9-8.6l-31.8-53.5c-0.2-0.3-0.5-0.5-0.6-0.8L35,98z"/>
	
		<radialGradient id="SVGID_5_" cx="-1105.5001" cy="1724.8462" r="24.1661" gradientTransform="matrix(-5.5912 0 0 5.6485 -6115.7393 -9599.3564)" gradientUnits="userSpaceOnUse">
		<stop  offset="0" style="stop-color:#E04A3F"/>
		<stop  offset="1" style="stop-color:#CD372D"/>
	</radialGradient>
	<path class="st6" d="M113.8,40.3H69.2c-5.5,0-12.3,3.9-15.1,8.6L34.6,81.7C32.3,86.5,32.4,93.5,35,98l32.5,54.3
		c-2.8-4.8-2.8-12.5,0-17.3l31.6-53.2c0.2-0.4,0.2-0.8,0.4-1.1L119,48C120.9,43.7,118.9,40.3,113.8,40.3z"/>
	
		<linearGradient id="SVGID_6_" gradientUnits="userSpaceOnUse" x1="-1097.8762" y1="1720.349" x2="-1108.2073" y2="1720.349" gradientTransform="matrix(-5.5688 0 0 5.5688 -6091.2231 -9463.2939)">
		<stop  offset="0" style="stop-color:#231F20;stop-opacity:0.2"/>
		<stop  offset="1" style="stop-color:#F1F2F2;stop-opacity:0.25"/>
	</linearGradient>
	<path class="st7" d="M35,98l32.5,54.3c-2.8-4.8-2.8-12.5,0-17.3l11.4-19.2l-44.3-34C32.3,86.5,32.4,93.5,35,98L35,98z"/>
</g>
</svg>
