<?xml version="1.0" encoding="UTF-8"?>
<svg width="219px" height="34px" viewBox="0 0 219 34" version="1.1" xmlns="http://www.w3.org/2000/svg" xmlns:xlink="http://www.w3.org/1999/xlink">
    <!-- Generator: Sketch 3.8.3 (29802) - http://www.bohemiancoding.com/sketch -->
    <title>Layer_1</title>
    <desc>Created with Sketch.</desc>
    <defs></defs>
    <g id="Page-1" stroke="none" stroke-width="1" fill="none" fill-rule="evenodd">
        <g id="Signin-and-Signup" transform="translate(-1690.000000, -167.000000)">
            <g id="Group-7" transform="translate(468.000000, 155.000000)">
                <g id="Group-8" transform="translate(1095.000000, 12.000000)">
                    <g id="Layer_1" transform="translate(127.000000, 0.000000)">
                        <path d="M42.7374779,21.1393109 C42.8679112,22.62518 43.9765939,23.91724 46.063526,23.91724 C47.6939417,23.91724 48.5417579,23.077401 48.5417579,22.043753 C48.5417579,21.2039139 47.9548082,20.4932809 46.6504757,20.2348689 L44.2374604,19.7180449 C41.3679287,19.0720149 39.8679462,17.1985278 39.8679462,15.0020257 C39.8679462,12.1594936 42.4766114,9.76918252 45.8678761,9.76918252 C50.4330401,9.76918252 51.9330226,12.6763176 52.1938891,14.2913927 L48.9330577,15.1958347 C48.8026244,14.2913927 48.0852415,12.7409206 45.9330927,12.7409206 C44.5635435,12.7409206 43.5852941,13.5807597 43.5852941,14.6144077 C43.5852941,15.4542467 44.2374604,16.1002768 45.2157098,16.2940858 L47.6939417,16.8109098 C50.7591233,17.4569398 52.389539,19.3304269 52.389539,21.720738 C52.389539,24.175652 50.3678235,26.8889781 46.1939593,26.8889781 C41.4331453,26.8889781 39.6722963,23.852637 39.4766465,21.97915 L42.7374779,21.1393109 L42.7374779,21.1393109 Z" id="XMLID_146_" fill="#0D253E"></path>
                        <path d="M60.3459677,10.2214035 L63.7372325,10.2214035 L63.7372325,13.6453627 L60.3459677,13.6453627 L60.3459677,21.1393109 C60.3459677,22.560577 60.998134,23.142004 62.4328999,23.142004 C62.9546329,23.142004 63.6067992,23.012798 63.8024491,23.012798 L63.8024491,26.1783451 C63.5415826,26.3075511 62.8241997,26.5659631 61.3894338,26.5659631 C58.3894689,26.5659631 56.4981866,24.7570791 56.4981866,21.720738 L56.4981866,13.6453627 L53.4982217,13.6453627 L53.4982217,10.2214035 L54.3460379,10.2214035 C56.1068869,10.2214035 56.8894864,9.1231525 56.8894864,7.70188645 L56.8894864,5.24697236 L60.4111844,5.24697236 L60.4111844,10.2214035 L60.3459677,10.2214035 Z" id="XMLID_144_" fill="#0D253E"></path>
                        <path d="M82.5848382,18.2967788 C82.5848382,23.27121 78.9979236,26.8889781 74.1066765,26.8889781 C69.2154293,26.8889781 65.6285147,23.27121 65.6285147,18.2967788 C65.6285147,13.3223477 69.2154293,9.70457952 74.1066765,9.70457952 C78.932707,9.76918252 82.5848382,13.3869507 82.5848382,18.2967788 L82.5848382,18.2967788 Z M78.6066239,18.2967788 C78.6066239,14.9374227 76.4544751,13.1931416 74.0414598,13.1931416 C71.6284446,13.1931416 69.4762958,14.9374227 69.4762958,18.2967788 C69.4762958,21.656135 71.6284446,23.465019 74.0414598,23.465019 C76.4544751,23.465019 78.6066239,21.720738 78.6066239,18.2967788 L78.6066239,18.2967788 Z" id="XMLID_141_" fill="#0D253E"></path>
                        <path d="M88.258685,18.2967788 C88.258685,21.5269289 90.3456171,23.400416 92.823849,23.400416 C95.3672975,23.400416 96.5411969,21.656135 96.9324966,20.4286779 L100.323761,21.656135 C99.5411618,24.175652 97.1281465,26.9535811 92.823849,26.9535811 C87.9978185,26.9535811 84.3456872,23.27121 84.3456872,18.3613818 C84.3456872,13.3869507 87.9978185,9.76918252 92.6934157,9.76918252 C97.0629299,9.76918252 99.4759452,12.4825086 100.193328,15.0666287 L96.6716301,16.3586888 C96.2803303,14.9374227 95.1716476,13.3223477 92.6934157,13.3223477 C90.3456171,13.3223477 88.258685,15.0666287 88.258685,18.2967788 L88.258685,18.2967788 Z" id="XMLID_139_" fill="#0D253E"></path>
                        <polygon id="XMLID_137_" fill="#0D253E" points="111.671455 17.0693218 118.519201 26.4367571 113.758387 26.4367571 108.932356 19.7826479 106.910641 21.849944 106.910641 26.3721541 103.06286 26.3721541 103.06286 2.33983725 106.910641 2.33983725 106.910641 16.2294828 106.910641 16.7463068 107.367157 16.2940858 113.171437 10.2214035 118.323551 10.2214035"></polygon>
                        <path d="M130.192977,14.0329807 C129.736461,13.9683777 129.345161,13.9037747 128.888645,13.9037747 C125.88868,13.9037747 124.519131,15.6480557 124.519131,18.6843968 L124.519131,26.3721541 L120.606133,26.3721541 L120.606133,10.2214035 L124.388697,10.2214035 L124.388697,12.8055236 C125.171297,11.0612426 126.997363,10.0275945 129.149511,10.0275945 C129.606028,10.0275945 129.997328,10.0921975 130.192977,10.1568005 L130.192977,14.0329807 L130.192977,14.0329807 Z" id="XMLID_135_" fill="#0D253E"></path>
                        <path d="M148.257984,18.2967788 C148.257984,23.27121 144.671069,26.8889781 139.779822,26.8889781 C134.888575,26.8889781 131.30166,23.27121 131.30166,18.2967788 C131.30166,13.3223477 134.888575,9.70457952 139.779822,9.70457952 C144.671069,9.76918252 148.257984,13.3869507 148.257984,18.2967788 L148.257984,18.2967788 Z M144.344986,18.2967788 C144.344986,14.9374227 142.192837,13.1931416 139.779822,13.1931416 C137.366807,13.1931416 135.214658,14.9374227 135.214658,18.2967788 C135.214658,21.656135 137.366807,23.465019 139.779822,23.465019 C142.192837,23.465019 144.344986,21.720738 144.344986,18.2967788 L144.344986,18.2967788 Z" id="XMLID_132_" fill="#0D253E"></path>
                        <path d="M166.975156,18.2967788 C166.975156,23.27121 163.388242,26.8889781 158.496994,26.8889781 C153.605747,26.8889781 150.018833,23.27121 150.018833,18.2967788 C150.018833,13.3223477 153.605747,9.70457952 158.496994,9.70457952 C163.388242,9.76918252 166.975156,13.3869507 166.975156,18.2967788 L166.975156,18.2967788 Z M163.062158,18.2967788 C163.062158,14.9374227 160.91001,13.1931416 158.496994,13.1931416 C156.083979,13.1931416 153.93183,14.9374227 153.93183,18.2967788 C153.93183,21.656135 156.083979,23.465019 158.496994,23.465019 C160.91001,23.465019 163.062158,21.720738 163.062158,18.2967788 L163.062158,18.2967788 Z" id="XMLID_129_" fill="#0D253E"></path>
                        <path d="M169.192522,26.4367571 L169.192522,10.2214035 L172.909869,10.2214035 L172.909869,10.9966396 L172.909869,12.2886996 C173.822902,10.6090216 175.909834,9.76918252 177.7359,9.76918252 C179.888049,9.76918252 181.779331,10.7382276 182.627147,12.6117146 C183.93148,10.4798155 185.822762,9.76918252 187.909694,9.76918252 C190.844442,9.76918252 193.713974,11.6426696 193.713974,15.9064677 L193.713974,26.4367571 L189.93141,26.4367571 L189.93141,16.5524978 C189.93141,14.6790107 188.95316,13.2577446 186.801011,13.2577446 C184.779296,13.2577446 183.409747,14.8728197 183.409747,16.8755128 L183.409747,26.5013601 L179.561966,26.5013601 L179.561966,16.5524978 C179.561966,14.6790107 178.648933,13.2577446 176.431567,13.2577446 C174.344635,13.2577446 173.040303,14.8082167 173.040303,16.8755128 L173.040303,26.5013601 L169.192522,26.5013601 L169.192522,26.4367571 Z" id="XMLID_127_" fill="#0D253E"></path>
                        <g id="XMLID_116_" transform="translate(196.168732, 9.763502)" fill="#0D253E">
                            <path d="M1.84953917,13.1846935 C2.82778861,13.1846935 3.67560479,14.0245325 3.67560479,14.9935775 C3.67560479,15.9626226 2.82778861,16.8024616 1.84953917,16.8024616 C0.871289739,16.8024616 0.0234735621,16.0272256 0.0234735621,14.9935775 C0.0234735621,13.9599295 0.80607311,13.1846935 1.84953917,13.1846935 L1.84953917,13.1846935 Z" id="XMLID_123_"></path>
                            <path d="M7.71903579,0.00568100739 C8.69728522,0.00568100739 9.47988477,0.780917035 9.47988477,1.74996207 C9.47988477,2.71900711 8.69728522,3.42964013 7.71903579,3.42964013 C6.80600298,3.42964013 6.02340343,2.6544041 6.02340343,1.74996207 C6.02340343,0.845520038 6.74078635,0.00568100739 7.71903579,0.00568100739 L7.71903579,0.00568100739 Z M6.41470321,16.6732556 L6.41470321,5.62614221 L9.02336837,5.62614221 L9.02336837,16.6732556 L6.41470321,16.6732556 L6.41470321,16.6732556 Z" id="XMLID_120_"></path>
                            <path d="M22.6536438,11.1173974 C22.6536438,14.5413565 20.1754119,16.9962706 16.8493639,16.9962706 C13.5233158,16.9962706 11.0450839,14.5413565 11.0450839,11.1173974 C11.0450839,7.75804129 13.5233158,5.2385242 16.8493639,5.2385242 C20.2406286,5.3031272 22.6536438,7.75804129 22.6536438,11.1173974 L22.6536438,11.1173974 Z M19.979762,11.1173974 C19.979762,8.85629233 18.5449962,7.62883528 16.8493639,7.62883528 C15.2189481,7.62883528 13.7189657,8.79168933 13.7189657,11.1173974 C13.7189657,13.3785025 15.2189481,14.6059595 16.8493639,14.6059595 C18.5449962,14.6705625 19.979762,13.4431055 19.979762,11.1173974 L19.979762,11.1173974 Z" id="XMLID_117_"></path>
                        </g>
                        <g id="XMLID_162_" transform="translate(7.078539, 8.577602)"></g>
                        <g id="Group">
                            <path d="M28.4550362,33.3492784 L5.23791622,33.3492784 C2.36838455,33.3492784 0.0205859011,31.0235703 0.0205859011,28.1810382 L0.0205859011,5.18236936 C0.0205859011,2.33983725 2.36838455,0.0141291705 5.23791622,0.0141291705 L28.4550362,0.0141291705 C31.3245678,0.0141291705 33.6723665,2.33983725 33.6723665,5.18236936 L33.6723665,28.1810382 C33.6723665,31.0235703 31.3245678,33.3492784 28.4550362,33.3492784 L28.4550362,33.3492784 Z" id="XMLID_125_" fill="#0D253E"></path>
                            <path d="M9.04273064,12.4285825 L25.2408922,12.4285825 C26.3207696,12.4285825 27.1846715,11.572809 27.1846715,10.5030922 C27.1846715,9.43337542 26.3207696,8.57760197 25.2408922,8.57760197 L9.04273064,8.57760197 C7.9628532,8.57760197 7.09895125,9.43337542 7.09895125,10.5030922 C7.04495738,11.5193232 7.9628532,12.4285825 9.04273064,12.4285825 L9.04273064,12.4285825 Z" id="XMLID_163_" fill="#FFDA42"></path>
                            <path d="M25.1868983,15.1563604 L18.0597072,15.1563604 C16.9798298,15.1563604 16.1159278,16.0121338 16.1159278,17.0818506 C16.1159278,18.1515674 16.9798298,19.0073409 18.0597072,19.0073409 L25.1868983,19.0073409 C26.2667757,19.0073409 27.1306777,18.1515674 27.1306777,17.0818506 C27.1846715,16.0656196 26.2667757,15.1563604 25.1868983,15.1563604 L25.1868983,15.1563604 Z" id="XMLID_167_" fill="#FFFFFF"></path>
                            <path d="M9.04273064,15.1563604 C7.9628532,15.1563604 7.09895125,16.0121338 7.09895125,17.0818506 C7.09895125,18.1515674 7.9628532,19.0073409 9.04273064,19.0073409 L11.850412,19.0073409 C12.9302894,19.0073409 13.7941913,18.1515674 13.7941913,17.0818506 C13.7941913,16.0121338 12.9302894,15.1563604 11.850412,15.1563604 L9.04273064,15.1563604 L9.04273064,15.1563604 Z" id="XMLID_168_" fill="#FF6B74"></path>
                            <path d="M20.6514131,21.9490621 L9.04273064,21.9490621 C7.9628532,21.9490621 7.09895125,22.8048356 7.09895125,23.8745524 C7.09895125,24.9442692 7.9628532,25.8000426 9.04273064,25.8000426 L20.6514131,25.8000426 C21.7312905,25.8000426 22.5951924,24.9442692 22.5951924,23.8745524 C22.5951924,22.8048356 21.6772966,21.9490621 20.6514131,21.9490621 L20.6514131,21.9490621 Z" id="XMLID_169_" fill="#6CCEF1"></path>
                        </g>
                    </g>
                </g>
            </g>
        </g>
    </g>
</svg>