<?xml version="1.0" encoding="utf-8"?>
<!-- Generator: Adobe Illustrator 23.0.1, SVG Export Plug-In . SVG Version: 6.00 Build 0)  -->
<svg version="1.1" id="Layer_4" xmlns="http://www.w3.org/2000/svg" xmlns:xlink="http://www.w3.org/1999/xlink" x="0px" y="0px"
	 viewBox="0 0 1089.3 200" style="enable-background:new 0 0 1089.3 200;" xml:space="preserve">
<style type="text/css">
	.st0{enable-background:new    ;}
	.st1{fill:#757575;stroke:#A594C6;stroke-miterlimit:10;}
</style>
<g class="st0">
	<path class="st1" d="M392.4,91.3h58.3c0.3,1.3,0.6,2.9,0.8,4.8c0.2,1.9,0.3,3.8,0.3,5.6c0,7.6-1.2,14.8-3.5,21.6
		c-2.3,6.8-6,12.8-11,18.1c-5.3,5.6-11.7,10-19.1,13.1c-7.4,3.1-15.9,4.7-25.4,4.7c-8.6,0-16.8-1.6-24.4-4.7s-14.3-7.4-19.9-13
		c-5.6-5.5-10.1-12.1-13.5-19.7c-3.3-7.6-5-15.9-5-24.8c0-9,1.7-17.2,5-24.8c3.3-7.6,7.8-14.1,13.5-19.7c5.6-5.5,12.3-9.9,19.9-13
		c7.6-3.1,15.8-4.7,24.4-4.7c9.6,0,18.2,1.7,25.8,5c7.6,3.3,14.1,7.9,19.5,13.8l-15.4,15.1c-3.9-4.1-8.2-7.2-13-9.4
		c-4.8-2.2-10.5-3.2-17.1-3.2c-5.4,0-10.6,1-15.4,2.9c-4.9,1.9-9.1,4.7-12.8,8.2c-3.7,3.5-6.6,7.8-8.7,12.9
		c-2.2,5-3.2,10.7-3.2,16.9c0,6.2,1.1,11.8,3.2,16.9c2.2,5,5.1,9.3,8.8,12.9c3.7,3.5,8,6.3,12.9,8.2c4.9,1.9,10.1,2.9,15.6,2.9
		c6.3,0,11.7-0.9,16-2.7c4.4-1.8,8.1-4.2,11.2-7.1c2.2-2,4.1-4.5,5.7-7.6c1.6-3,2.8-6.4,3.7-10.2h-37.4V91.3z"/>
	<path class="st1" d="M470.5,37.6h40.2c9.4,0,17.9,1.4,25.4,4.3c7.5,2.9,14,6.9,19.3,12.2c5.3,5.3,9.4,11.5,12.2,18.9
		c2.8,7.3,4.2,15.3,4.2,24.1c0,8.9-1.4,16.9-4.2,24.2c-2.8,7.3-6.9,13.6-12.2,18.8c-5.3,5.2-11.7,9.2-19.3,12.1
		c-7.5,2.9-16,4.3-25.4,4.3h-40.2V37.6z M509.7,135.3c6.5,0,12.3-0.9,17.3-2.7c5-1.8,9.1-4.4,12.5-7.7c3.3-3.3,5.8-7.3,7.5-12
		c1.7-4.7,2.5-9.9,2.5-15.7c0-5.8-0.8-11-2.5-15.7c-1.7-4.7-4.2-8.7-7.5-12s-7.5-5.9-12.5-7.7c-5-1.8-10.7-2.7-17.3-2.7h-16.8v76.4
		H509.7z"/>
	<path class="st1" d="M646.4,91.3h58.3c0.3,1.3,0.6,2.9,0.8,4.8c0.2,1.9,0.3,3.8,0.3,5.6c0,7.6-1.2,14.8-3.5,21.6
		c-2.3,6.8-6,12.8-11,18.1c-5.3,5.6-11.7,10-19.1,13.1c-7.4,3.1-15.9,4.7-25.4,4.7c-8.6,0-16.8-1.6-24.4-4.7s-14.3-7.4-19.9-13
		c-5.6-5.5-10.1-12.1-13.5-19.7c-3.3-7.6-5-15.9-5-24.8c0-9,1.7-17.2,5-24.8c3.3-7.6,7.8-14.1,13.5-19.7c5.6-5.5,12.3-9.9,19.9-13
		c7.6-3.1,15.8-4.7,24.4-4.7c9.6,0,18.2,1.7,25.8,5c7.6,3.3,14.1,7.9,19.5,13.8l-15.4,15.1c-3.9-4.1-8.2-7.2-13-9.4
		c-4.8-2.2-10.5-3.2-17.1-3.2c-5.4,0-10.6,1-15.4,2.9c-4.9,1.9-9.1,4.7-12.8,8.2c-3.7,3.5-6.6,7.8-8.7,12.9
		c-2.2,5-3.2,10.7-3.2,16.9c0,6.2,1.1,11.8,3.2,16.9c2.2,5,5.1,9.3,8.8,12.9c3.7,3.5,8,6.3,12.9,8.2c4.9,1.9,10.1,2.9,15.6,2.9
		c6.3,0,11.7-0.9,16-2.7c4.4-1.8,8.1-4.2,11.2-7.1c2.2-2,4.1-4.5,5.7-7.6c1.6-3,2.8-6.4,3.7-10.2h-37.4V91.3z"/>
	<path class="st1" d="M761,37.6h22.4v47.5h50V37.6h22.4v118.9h-22.4v-50.2h-50v50.2H761V37.6z"/>
	<path class="st1" d="M909.8,101.3l-40-63.6h26.7L920.3,77h1.3l22.9-39.4h27.1l-39.4,63.6v55.3h-22.4V101.3z"/>
	<path class="st1" d="M985.5,37.6h40.2c9.4,0,17.9,1.4,25.4,4.3c7.5,2.9,14,6.9,19.3,12.2c5.3,5.3,9.4,11.5,12.2,18.9
		c2.8,7.3,4.2,15.3,4.2,24.1c0,8.9-1.4,16.9-4.2,24.2c-2.8,7.3-6.9,13.6-12.2,18.8c-5.3,5.2-11.7,9.2-19.3,12.1
		c-7.5,2.9-16,4.3-25.4,4.3h-40.2V37.6z M1024.7,135.3c6.5,0,12.3-0.9,17.3-2.7c5-1.8,9.1-4.4,12.5-7.7c3.3-3.3,5.8-7.3,7.5-12
		c1.7-4.7,2.5-9.9,2.5-15.7c0-5.8-0.8-11-2.5-15.7c-1.7-4.7-4.2-8.7-7.5-12c-3.3-3.3-7.5-5.9-12.5-7.7c-5-1.8-10.7-2.7-17.3-2.7
		H1008v76.4H1024.7z"/>
</g>
<path class="st1" d="M237.6,95.1C230.2,89.3,222,85,214.1,80c-8.3-5.2-16.9-9.9-25.2-15.1c-10-6.2-14.3-16.2-12.1-27.6
	c2-10.5,10.5-18.4,21.6-19.9c5.3-0.7,10.2,0.9,14.7,3.6c28,16.8,55.9,33.7,83.9,50.5c8.8,5.3,14.4,12.7,14,23.7
	c-0.4,11.2-6.1,18.9-15.6,23.6l-2.8,1.4c-8.4,1.4-15.8-1.3-22.9-5.8C259.1,107.7,248.3,101.5,237.6,95.1z"/>
<path class="st1" d="M77.5,94.6c6.4,4.9,13.4,8.7,20.3,12.9c9.6,5.8,19.4,11.4,29,17.4s14,16.6,12,27s-10.6,18.6-21.4,20.2
	c-5.5,0.8-10.5-0.9-15.1-3.7c-27.8-16.8-55.6-33.5-83.4-50.3C9.7,112.6,3.6,105,4.3,93.4C5,82,11.4,74.9,20.9,70.5l1.6-0.8
	c7.8-1.3,14.8,0.6,21.7,5C55.1,81.6,66.4,88,77.5,94.6z"/>
<path class="st1" d="M78.5,91.6c-11.1-6.6-22.4-13-33.4-20c-6.8-4.3-13.8-6.3-21.7-5c9.9-7.1,20.6-12.9,31-19.2
	c16-9.7,32-19.3,48-28.9c5.2-3.2,10.7-4.8,16.8-3.7c10.3,1.8,17.8,9.2,20.2,19.8c2.1,9.4-2,20.3-10.6,25.8
	c-14.1,9-28.5,17.6-42.8,26.4C83.5,88.4,81,90,78.5,91.6z"/>
<path class="st1" d="M234.6,97.1c10.7,6.4,21.5,12.6,32,19.3c7.1,4.5,14.5,7.2,22.9,5.8c-2.9,2.9-6.6,4.5-10,6.6
	c-22.8,13.8-45.7,27.5-68.6,41.2c-14,8.4-30.3,3-36-11.8c-4.7-11.9,0.1-24.9,11.8-32.1c14.6-8.9,29.2-17.7,43.7-26.5
	C231.9,98.8,233.3,97.9,234.6,97.1z"/>
</svg>
