<?xml version="1.0" encoding="utf-8"?>
<!-- Generator: Adobe Illustrator 20.1.0, SVG Export Plug-In . SVG Version: 6.00 Build 0)  -->
<svg version="1.1" id="Layer_4" xmlns="http://www.w3.org/2000/svg" xmlns:xlink="http://www.w3.org/1999/xlink" x="0px" y="0px"
	 viewBox="0 0 839 200" style="enable-background:new 0 0 839 200;" xml:space="preserve">
<style type="text/css">
	.st0{fill:none;}
	.st1{fill:#FFC107;}
	.st2{fill:#0F9D58;}
	.st3{opacity:0.2;fill:#BF360C;enable-background:new    ;}
	.st4{opacity:0.2;fill:#263238;enable-background:new    ;}
	.st5{opacity:0.2;fill:#FFFFFF;enable-background:new    ;}
	.st6{fill:url(#XMLID_2_);}
	.st7{fill:url(#XMLID_3_);}
	.st8{fill:#4285F4;}
	.st9{fill:#DB4437;}
	.st10{opacity:0.2;fill:#1A237E;enable-background:new    ;}
	.st11{opacity:0.2;fill:#3E2723;enable-background:new    ;}
	.st12{fill:url(#XMLID_4_);}
	.st13{fill:#FFFFFF;}
	.st14{font-family:'ProductSans-Bold';}
	.st15{font-size:80.1919px;}
	.st16{font-family:'ProductSans-Regular';}
	.st17{font-size:59.6641px;}
</style>
<g id="XMLID_60_">
	<g id="XMLID_61_">
		<g id="XMLID_62_">
			<path id="XMLID_106_" class="st0" d="M122.5,90.6L70.1,0H0l57.8,100L0,200h70.1l52.4-90.6C125.8,103.6,125.8,96.4,122.5,90.6z"/>
			<path id="XMLID_105_" class="st1" d="M92.4,159.8l-16.6-28.7L35.9,200h34.2l22.8-39.4L92.4,159.8z"/>
			<path id="XMLID_104_" class="st0" d="M122.5,90.6L70.1,0H0l57.8,100L0,200h70.1l52.4-90.6C125.8,103.6,125.8,96.4,122.5,90.6z"/>
			<path id="XMLID_103_" class="st2" d="M57.8,100l18,31.1L35.9,200H0L57.8,100z"/>
			<path id="XMLID_102_" class="st0" d="M122.5,90.6L70.1,0H0l57.8,100L0,200h70.1l52.4-90.6C125.8,103.6,125.8,96.4,122.5,90.6z"/>
			<path id="XMLID_101_" class="st3" d="M70.1,198.4H36.8l-0.9,1.6h34.2l22.8-39.4l-0.5-0.8L70.1,198.4z"/>
			<path id="XMLID_100_" class="st0" d="M122.5,90.6L70.1,0H0l57.8,100L0,200h70.1l52.4-90.6C125.8,103.6,125.8,96.4,122.5,90.6z"/>
			<path id="XMLID_99_" class="st4" d="M0.9,198.4L0,200h35.9l0.9-1.6H0.9z"/>
			<path id="XMLID_98_" class="st0" d="M122.5,90.6L70.1,0H0l57.8,100L0,200h70.1l52.4-90.6C125.8,103.6,125.8,96.4,122.5,90.6z"/>
			<path id="XMLID_96_" class="st5" d="M0,200h0.9l57.4-99.2l-0.5-0.8L0,200z"/>
			<path id="XMLID_94_" class="st0" d="M122.5,90.6L70.1,0H0l57.8,100L0,200h70.1l52.4-90.6C125.8,103.6,125.8,96.4,122.5,90.6z"/>
			
				<radialGradient id="XMLID_2_" cx="92.62" cy="-1521.501" r="69.162" gradientTransform="matrix(1 0 0 1 0 1681.46)" gradientUnits="userSpaceOnUse">
				<stop  offset="0" style="stop-color:#BF360C;stop-opacity:0.2"/>
				<stop  offset="1" style="stop-color:#BF360C;stop-opacity:2.000000e-02"/>
			</radialGradient>
			<path id="XMLID_92_" class="st6" d="M92.9,160.6l-17.1-29.5l-4.2,7.2L92.9,160.6z"/>
			<path id="XMLID_90_" class="st0" d="M122.5,90.6L70.1,0H0l57.8,100L0,200h70.1l52.4-90.6C125.8,103.6,125.8,96.4,122.5,90.6z"/>
			
				<radialGradient id="XMLID_3_" cx="92.423" cy="-1521.063" r="69.723" gradientTransform="matrix(1 0 0 1 0 1681.46)" gradientUnits="userSpaceOnUse">
				<stop  offset="0" style="stop-color:#263238;stop-opacity:0.2"/>
				<stop  offset="1" style="stop-color:#263238;stop-opacity:2.000000e-02"/>
			</radialGradient>
			<path id="XMLID_89_" class="st7" d="M71.6,138.3l4.2-7.2l-18-31.1l-8.5,14.8L71.6,138.3z"/>
			<path id="XMLID_88_" class="st0" d="M122.5,90.6L70.1,0H0l57.8,100L0,200h70.1l52.4-90.6C125.8,103.6,125.8,96.4,122.5,90.6z"/>
			<g id="XMLID_85_">
				<g id="XMLID_86_">
					<path id="XMLID_87_" class="st8" d="M35.9,0H0l92.9,160.6l17.9-31.1L35.9,0z"/>
				</g>
			</g>
			<path id="XMLID_84_" class="st0" d="M122.5,90.6L70.1,0H0l57.8,100L0,200h70.1l52.4-90.6C125.8,103.6,125.8,96.4,122.5,90.6z"/>
			<path id="XMLID_83_" class="st9" d="M122.5,109.4c3.4-5.8,3.4-13,0-18.8L70.1,0H35.9l74.9,129.5L122.5,109.4z"/>
			<path id="XMLID_82_" class="st0" d="M122.5,90.6L70.1,0H0l57.8,100L0,200h70.1l52.4-90.6C125.8,103.6,125.8,96.4,122.5,90.6z"/>
			<path id="XMLID_71_" class="st10" d="M110.8,129.5l-0.4-0.8L92.9,159L0.9,0H0l92.9,160.6L110.8,129.5z"/>
			<path id="XMLID_69_" class="st0" d="M122.5,90.6L70.1,0H0l57.8,100L0,200h70.1l52.4-90.6C125.8,103.6,125.8,96.4,122.5,90.6z"/>
			<path id="XMLID_67_" class="st5" d="M70.1,1.6l52.4,90.6c1.5,2.7,2.3,5.6,2.5,8.6c0.1-3.5-0.7-7-2.5-10.2L70.1,0H0l0.9,1.6H70.1z
				"/>
			<path id="XMLID_66_" class="st0" d="M122.5,90.6L70.1,0H0l57.8,100L0,200h70.1l52.4-90.6C125.8,103.6,125.8,96.4,122.5,90.6z"/>
			<path id="XMLID_65_" class="st11" d="M110.8,129.5l11.6-20.1c1.8-3.1,2.6-6.7,2.5-10.2c-0.1,3-0.9,5.9-2.5,8.6l-12.1,20.9
				L110.8,129.5z"/>
			<path id="XMLID_64_" class="st0" d="M122.5,90.6L70.1,0H0l57.8,100L0,200h70.1l52.4-90.6C125.8,103.6,125.8,96.4,122.5,90.6z"/>
			
				<radialGradient id="XMLID_4_" cx="-1.563" cy="-1679.8979" r="209.922" gradientTransform="matrix(1 0 0 1 0 1681.46)" gradientUnits="userSpaceOnUse">
				<stop  offset="0" style="stop-color:#FFFFFF;stop-opacity:0.1"/>
				<stop  offset="1" style="stop-color:#FFFFFF;stop-opacity:0"/>
			</radialGradient>
			<path id="XMLID_63_" class="st12" d="M122.5,90.6L70.1,0H0l57.8,100L0,200h70.1l52.4-90.6C125.8,103.6,125.8,96.4,122.5,90.6z"/>
		</g>
	</g>
</g>
<text transform="matrix(1 0 0 1 146.6162 92.2661)" class="st13 st14 st15">GDG HYDERABAD</text>
<text transform="matrix(1 0 0 1 159 167.0479)" class="st13 st16 st17">Connect | Code | Innovate</text>
</svg>
