<svg id="Layer_4" data-name="Layer 4" xmlns="http://www.w3.org/2000/svg" viewBox="0 0 1261.29 146.17"><defs><style>.cls-1{fill:#fff;}.cls-2{fill:#129d58;}.cls-3{fill:#4385f4;}.cls-4{fill:#ea4337;}.cls-5{fill:#f7bb06;}</style></defs><title>logo-light-notag</title><path class="cls-1" d="M319.82,180.59a41.56,41.56,0,0,1,0-72.46,42.36,42.36,0,0,1,21.09-5.4A43.5,43.5,0,0,1,358,106a38.33,38.33,0,0,1,13.3,9.3L361,125.44a27.34,27.34,0,0,0-8.85-6.35A28.06,28.06,0,0,0,340.8,117a27.33,27.33,0,0,0-13.47,3.39,25.19,25.19,0,0,0-9.74,9.69,28.17,28.17,0,0,0-3.62,14.3,27.81,27.81,0,0,0,3.68,14.3,25.39,25.39,0,0,0,9.85,9.69A27.63,27.63,0,0,0,341,171.74q11.13,0,18.26-6.56a18.83,18.83,0,0,0,3.89-5.12,25.77,25.77,0,0,0,2.45-6.79h-25V140.46h39.07a29.53,29.53,0,0,1,.77,7A43.78,43.78,0,0,1,378,162.17a32.73,32.73,0,0,1-7.29,11.91,35.36,35.36,0,0,1-12.91,8.85A44.81,44.81,0,0,1,340.91,186,42.36,42.36,0,0,1,319.82,180.59Z" transform="translate(-4.16 -81.21)"/><path class="cls-1" d="M394.78,104.51h26.94q12.46,0,21.71,5a35.09,35.09,0,0,1,14.24,14,42.17,42.17,0,0,1,5,20.82,42.17,42.17,0,0,1-5,20.82,35.09,35.09,0,0,1-14.24,14q-9.24,5-21.71,5H394.78ZM421.05,170q12.92,0,19.7-6.84t6.79-18.76q0-11.91-6.79-18.76t-19.7-6.84H409.81V170Z" transform="translate(-4.16 -81.21)"/><path class="cls-1" d="M493.9,180.59a41.57,41.57,0,0,1,0-72.46,42.4,42.4,0,0,1,21.1-5.4A43.41,43.41,0,0,1,532.08,106a38.37,38.37,0,0,1,13.31,9.3L535,125.44a27.19,27.19,0,0,0-8.84-6.35,28.06,28.06,0,0,0-11.3-2.11,27.33,27.33,0,0,0-13.47,3.39,25.19,25.19,0,0,0-9.74,9.69,29.87,29.87,0,0,0,.05,28.6,25.49,25.49,0,0,0,9.86,9.69,27.61,27.61,0,0,0,13.52,3.39q11.13,0,18.25-6.56a18.65,18.65,0,0,0,3.9-5.12,25.77,25.77,0,0,0,2.45-6.79H514.66V140.46h39.07a29,29,0,0,1,.78,7,43.78,43.78,0,0,1-2.39,14.69,32.86,32.86,0,0,1-7.29,11.91,35.36,35.36,0,0,1-12.91,8.85A44.81,44.81,0,0,1,515,186,42.4,42.4,0,0,1,493.9,180.59Z" transform="translate(-4.16 -81.21)"/><path class="cls-1" d="M594.92,104.51h15v31.84h33.51V104.51h15v79.7h-15V150.59H609.94v33.62h-15Z" transform="translate(-4.16 -81.21)"/><path class="cls-1" d="M696.1,147.14l-26.83-42.63h17.92l15.92,26.38H704l15.36-26.38h18.15l-26.38,42.63v37.07h-15Z" transform="translate(-4.16 -81.21)"/><path class="cls-1" d="M748.19,104.51h26.94q12.47,0,21.7,5a35,35,0,0,1,14.25,14,42.17,42.17,0,0,1,5,20.82,42.17,42.17,0,0,1-5,20.82,35,35,0,0,1-14.25,14q-9.24,5-21.7,5H748.19ZM774.46,170q12.91,0,19.7-6.84T801,144.36q0-11.91-6.79-18.76t-19.7-6.84H763.22V170Z" transform="translate(-4.16 -81.21)"/><path class="cls-1" d="M830.34,104.51h50.53v14.25H845.36v18.48h31.95v14.24H845.36V170h35.51v14.25H830.34Z" transform="translate(-4.16 -81.21)"/><path class="cls-1" d="M896.34,104.51H925.4a29,29,0,0,1,13.85,3.23,23.3,23.3,0,0,1,9.41,9,25.23,25.23,0,0,1,3.34,13,21,21,0,0,1-4.84,13.63A27.53,27.53,0,0,1,935,151.93l-.11.78,21.37,30.61v.89H939l-20.6-29.94h-7v29.94h-15Zm28.95,36a11.49,11.49,0,0,0,8.34-3.11,10.49,10.49,0,0,0,3.23-7.91,10.77,10.77,0,0,0-11.35-11H911.37v22Z" transform="translate(-4.16 -81.21)"/><path class="cls-1" d="M989.29,104.51h17.25l29.94,79.7H1019.9l-6.68-19h-30.5l-6.68,19H959.46Zm19,46.86-7-20-2.9-9.58h-.88l-2.9,9.58-7.12,20Z" transform="translate(-4.16 -81.21)"/><path class="cls-1" d="M1047.28,104.51h31.17a27.42,27.42,0,0,1,12.3,2.78,22.46,22.46,0,0,1,8.84,7.57,19.17,19.17,0,0,1,.28,20.87,19.31,19.31,0,0,1-7.73,6.74v.89a20.89,20.89,0,0,1,9.9,7.07,18.66,18.66,0,0,1,3.68,11.63,19.9,19.9,0,0,1-3.51,11.63,22.76,22.76,0,0,1-9.46,7.79,31.29,31.29,0,0,1-13.19,2.73h-32.28Zm30,32.5a11.09,11.09,0,0,0,7.85-2.72,9.41,9.41,0,0,0,.11-13.58,10.38,10.38,0,0,0-7.51-2.73h-15.47v19Zm1.67,33.51q5.46,0,8.52-2.84a9.62,9.62,0,0,0,3.06-7.4,9.72,9.72,0,0,0-3.12-7.46q-3.12-2.9-8.9-2.89h-16.25v20.59Z" transform="translate(-4.16 -81.21)"/><path class="cls-1" d="M1140.56,104.51h17.25l29.94,79.7h-16.58l-6.68-19H1134l-6.68,19h-16.58Zm19,46.86-7-20-2.9-9.58h-.89l-2.89,9.58-7.12,20Z" transform="translate(-4.16 -81.21)"/><path class="cls-1" d="M1198.55,104.51h26.94q12.45,0,21.7,5a35,35,0,0,1,14.25,14c3.34,6,4,13,4,20.82s-.67,14.8-4,20.82a35,35,0,0,1-14.25,14q-9.24,5-21.7,5h-26.94ZM1224.82,170q12.9,0,19.7-6.84t6.79-18.76q0-11.91-6.79-18.76t-19.7-6.84h-11.25V170Z" transform="translate(-4.16 -81.21)"/><path class="cls-2" d="M213.47,154.58c-6.64-5.47-14-9.55-21.15-14.2-7.46-4.87-15.13-9.35-22.6-14.21-9-5.83-12.83-15.32-10.89-26A22.78,22.78,0,0,1,178.2,81.37c4.74-.68,9.15.82,13.22,3.39q37.64,23.79,75.22,47.63c7.9,5,12.92,12,12.6,22.3-.31,10.58-5.49,17.79-14,22.26l-2.5,1.3c-7.55,1.3-14.15-1.24-20.54-5.51C232.72,166.44,223.05,160.59,213.47,154.58Z" transform="translate(-4.16 -81.21)"/><path class="cls-3" d="M69.87,154.14c5.72,4.63,12,8.23,18.17,12.15,8.63,5.51,17.42,10.72,26,16.36a24.81,24.81,0,0,1,10.73,25.44,23.48,23.48,0,0,1-19.19,19.09c-4.9.79-9.38-.86-13.54-3.47Q54.59,200,17.25,176.28C9.07,171.07,3.59,164,4.21,153c.59-10.69,6.37-17.36,14.88-21.56l1.42-.75c7-1.21,13.31.59,19.42,4.69C49.74,141.89,59.88,147.89,69.87,154.14Z" transform="translate(-4.16 -81.21)"/><path class="cls-4" d="M69.87,154.14c-10-6.25-20.13-12.25-29.94-18.83-6.11-4.1-12.39-5.91-19.42-4.7C29.4,123.9,39,118.42,48.29,112.47Q69.79,98.74,91.36,85.18c4.69-3,9.59-4.54,15.08-3.47,9.21,1.73,16,8.68,18.11,18.67,1.87,8.91-1.83,19.16-9.54,24.3-12.67,8.53-25.6,16.62-38.41,24.91Z" transform="translate(-4.16 -81.21)"/><path class="cls-5" d="M213.47,154.58c9.58,6,19.25,11.88,28.69,18.16,6.4,4.27,13,6.81,20.53,5.51-2.6,2.75-5.91,4.25-9,6.19Q223,204,192.23,223.34c-12.59,7.9-27.14,2.86-32.32-11.08C155.74,201,160,188.78,170.53,182c13.05-8.37,26.14-16.65,39.22-25C211,156.22,212.23,155.39,213.47,154.58Z" transform="translate(-4.16 -81.21)"/></svg>