<?xml version="1.0" encoding="utf-8"?>
<!-- Generator: Adobe Illustrator 20.1.0, SVG Export Plug-In . SVG Version: 6.00 Build 0)  -->
<svg version="1.1" id="Layer_4" xmlns="http://www.w3.org/2000/svg" xmlns:xlink="http://www.w3.org/1999/xlink" x="0px" y="0px"
	 viewBox="0 0 839 200" style="enable-background:new 0 0 839 200;" xml:space="preserve">
<style type="text/css">
	.st0{fill:#FFFFFF;}
	.st1{enable-background:new    ;}
</style>
<g id="XMLID_261_">
	<path id="XMLID_259_" class="st0" d="M32.3,0H0l92.3,160l16.2-28L32.3,0z"/>
	<path id="XMLID_258_" class="st0" d="M120.9,91L68.3,0H36.1l74.3,128.8l10.5-18.2c1.7-2.8,2.8-6.2,2.8-9.8
		C123.6,97.2,122.6,93.9,120.9,91z"/>
	<path id="XMLID_257_" class="st0" d="M56.3,104.1L0.9,200h32.3l39.3-68L56.3,104.1z"/>
	<path id="XMLID_256_" class="st0" d="M74.3,135.3L37,200h32.2l21.3-36.8L74.3,135.3z"/>
</g>
<g class="st1">
	<path class="st0" d="M166.8,62.8h28.8c0.2,0.7,0.3,1.5,0.4,2.4c0.1,0.9,0.2,1.9,0.2,2.8c0,3.8-0.6,7.3-1.7,10.7
		c-1.1,3.3-3,6.3-5.4,9c-2.6,2.8-5.8,5-9.4,6.5c-3.7,1.5-7.9,2.3-12.6,2.3c-4.3,0-8.3-0.8-12.1-2.3s-7.1-3.7-9.9-6.4
		c-2.8-2.7-5-6-6.7-9.7c-1.6-3.7-2.5-7.8-2.5-12.3c0-4.4,0.8-8.5,2.5-12.3c1.6-3.7,3.9-7,6.7-9.7c2.8-2.7,6.1-4.9,9.9-6.4
		c3.8-1.5,7.8-2.3,12.1-2.3c4.8,0,9,0.8,12.8,2.5c3.7,1.6,7,3.9,9.6,6.8l-7.6,7.5c-1.9-2-4.1-3.6-6.4-4.6c-2.4-1.1-5.2-1.6-8.5-1.6
		c-2.7,0-5.2,0.5-7.6,1.4c-2.4,1-4.5,2.3-6.3,4.1c-1.8,1.8-3.2,3.9-4.3,6.4s-1.6,5.3-1.6,8.3c0,3.1,0.5,5.8,1.6,8.3s2.5,4.6,4.4,6.4
		c1.8,1.8,4,3.1,6.4,4.1c2.4,1,5,1.4,7.7,1.4c3.1,0,5.8-0.5,7.9-1.4c2.2-0.9,4-2.1,5.5-3.5c1.1-1,2-2.2,2.8-3.7
		c0.8-1.5,1.4-3.2,1.8-5h-18.5V62.8z"/>
	<path class="st0" d="M205.4,36.3h19.9c4.7,0,8.8,0.7,12.6,2.1c3.7,1.4,6.9,3.4,9.5,6c2.6,2.6,4.6,5.7,6,9.3s2.1,7.6,2.1,11.9
		c0,4.4-0.7,8.4-2.1,12c-1.4,3.6-3.4,6.7-6,9.3c-2.6,2.6-5.8,4.6-9.5,6c-3.7,1.4-7.9,2.1-12.6,2.1h-19.9V36.3z M224.8,84.6
		c3.2,0,6.1-0.5,8.5-1.4s4.5-2.2,6.2-3.8c1.6-1.6,2.9-3.6,3.7-6c0.8-2.3,1.2-4.9,1.2-7.8c0-2.8-0.4-5.4-1.2-7.8
		c-0.8-2.3-2.1-4.3-3.7-6c-1.6-1.6-3.7-2.9-6.2-3.8s-5.3-1.4-8.5-1.4h-8.3v37.8H224.8z"/>
	<path class="st0" d="M292.4,62.8h28.8c0.2,0.7,0.3,1.5,0.4,2.4c0.1,0.9,0.2,1.9,0.2,2.8c0,3.8-0.6,7.3-1.7,10.7
		c-1.1,3.3-3,6.3-5.4,9c-2.6,2.8-5.8,5-9.4,6.5c-3.7,1.5-7.9,2.3-12.6,2.3c-4.3,0-8.3-0.8-12.1-2.3s-7.1-3.7-9.9-6.4
		c-2.8-2.7-5-6-6.7-9.7c-1.6-3.7-2.5-7.8-2.5-12.3c0-4.4,0.8-8.5,2.5-12.3c1.6-3.7,3.9-7,6.7-9.7c2.8-2.7,6.1-4.9,9.9-6.4
		c3.8-1.5,7.8-2.3,12.1-2.3c4.8,0,9,0.8,12.8,2.5c3.7,1.6,7,3.9,9.6,6.8l-7.6,7.5c-1.9-2-4.1-3.6-6.4-4.6c-2.4-1.1-5.2-1.6-8.5-1.6
		c-2.7,0-5.2,0.5-7.6,1.4c-2.4,1-4.5,2.3-6.3,4.1c-1.8,1.8-3.2,3.9-4.3,6.4s-1.6,5.3-1.6,8.3c0,3.1,0.5,5.8,1.6,8.3s2.5,4.6,4.4,6.4
		c1.8,1.8,4,3.1,6.4,4.1c2.4,1,5,1.4,7.7,1.4c3.1,0,5.8-0.5,7.9-1.4c2.2-0.9,4-2.1,5.5-3.5c1.1-1,2-2.2,2.8-3.7
		c0.8-1.5,1.4-3.2,1.8-5h-18.5V62.8z"/>
	<path class="st0" d="M349,36.3h11.1v23.5h24.7V36.3h11.1v58.8h-11.1V70.3h-24.7v24.8H349V36.3z"/>
	<path class="st0" d="M422.6,67.7l-19.8-31.4H416l11.7,19.5h0.7l11.3-19.5h13.4l-19.5,31.4v27.3h-11.1V67.7z"/>
	<path class="st0" d="M460.1,36.3h19.9c4.7,0,8.8,0.7,12.6,2.1c3.7,1.4,6.9,3.4,9.5,6c2.6,2.6,4.6,5.7,6,9.3
		c1.4,3.6,2.1,7.6,2.1,11.9c0,4.4-0.7,8.4-2.1,12c-1.4,3.6-3.4,6.7-6,9.3c-2.6,2.6-5.8,4.6-9.5,6c-3.7,1.4-7.9,2.1-12.6,2.1h-19.9
		V36.3z M479.4,84.6c3.2,0,6.1-0.5,8.5-1.4c2.5-0.9,4.5-2.2,6.2-3.8c1.6-1.6,2.9-3.6,3.7-6c0.8-2.3,1.2-4.9,1.2-7.8
		c0-2.8-0.4-5.4-1.2-7.8c-0.8-2.3-2.1-4.3-3.7-6c-1.6-1.6-3.7-2.9-6.2-3.8c-2.5-0.9-5.3-1.4-8.5-1.4h-8.3v37.8H479.4z"/>
	<path class="st0" d="M530.2,46.8v13.6h23.6v10.5h-23.6v13.6h26.2v10.5h-37.3V36.3h37.3v10.5H530.2z"/>
	<path class="st0" d="M566.6,36.3H588c3,0,5.6,0.5,8,1.4c2.4,0.9,4.5,2.2,6.2,3.9c1.7,1.6,3.1,3.6,4,5.9c0.9,2.3,1.4,4.8,1.4,7.4
		c0,2-0.3,3.8-1,5.5c-0.7,1.7-1.6,3.3-2.7,4.7c-1.1,1.4-2.5,2.6-4,3.7c-1.5,1.1-3.1,1.9-4.8,2.5l-0.1,0.6l15.8,22.6v0.7H598
		L582.8,73h-5.2v22.1h-11.1V36.3z M587.9,62.8c2.5,0,4.6-0.8,6.2-2.3c1.6-1.5,2.4-3.5,2.4-5.8c0-1-0.2-2.1-0.5-3
		c-0.4-1-0.9-1.9-1.6-2.6c-0.7-0.8-1.6-1.4-2.7-1.8c-1.1-0.5-2.3-0.7-3.7-0.7h-10.4v16.3H587.9z"/>
	<path class="st0" d="M634.6,36.3h12.6l22.1,58.8h-12.2l-4.8-14h-22.7l-4.8,14h-12.2L634.6,36.3z M648.7,70.9l-5.3-14.7l-2.1-7.1
		h-0.7l-2.1,7.1l-5.3,14.7H648.7z"/>
	<path class="st0" d="M676.3,36.3h23c2.5,0,4.9,0.4,7.1,1.2c2.2,0.8,4.1,1.9,5.7,3.3c1.6,1.4,2.9,3,3.8,4.9c0.9,1.9,1.4,3.9,1.4,6
		c0,3.1-0.8,5.7-2.3,7.8s-3.4,3.7-5.6,4.8V65c3,1.1,5.4,2.8,7.3,5.1c1.8,2.3,2.8,5.2,2.8,8.7c0,2.5-0.5,4.8-1.5,6.8
		c-1,2-2.4,3.7-4.1,5.1c-1.8,1.4-3.8,2.5-6.1,3.3c-2.3,0.8-4.8,1.1-7.5,1.1h-23.8V36.3z M698.4,60.3c2.6,0,4.6-0.7,6-2.1
		c1.4-1.4,2.1-3.1,2.1-5c0-1.9-0.7-3.6-2.1-4.9c-1.4-1.4-3.3-2.1-5.7-2.1h-11.4v14H698.4z M699.7,84.9c2.8,0,4.9-0.7,6.4-2.1
		c1.5-1.4,2.2-3.2,2.2-5.4c0-2.2-0.8-4-2.3-5.5c-1.5-1.4-3.7-2.2-6.7-2.2h-12v15.1H699.7z"/>
	<path class="st0" d="M744.2,36.3h12.6L779,95.1h-12.2l-4.8-14h-22.7l-4.8,14h-12.2L744.2,36.3z M758.3,70.9L753,56.2l-2.1-7.1h-0.7
		l-2.1,7.1l-5.3,14.7H758.3z"/>
	<path class="st0" d="M785.9,36.3h19.9c4.7,0,8.8,0.7,12.6,2.1c3.7,1.4,6.9,3.4,9.5,6c2.6,2.6,4.6,5.7,6,9.3
		c1.4,3.6,2.1,7.6,2.1,11.9c0,4.4-0.7,8.4-2.1,12c-1.4,3.6-3.4,6.7-6,9.3c-2.6,2.6-5.8,4.6-9.5,6c-3.7,1.4-7.9,2.1-12.6,2.1h-19.9
		V36.3z M805.3,84.6c3.2,0,6.1-0.5,8.5-1.4c2.5-0.9,4.5-2.2,6.2-3.8c1.6-1.6,2.9-3.6,3.7-6c0.8-2.3,1.2-4.9,1.2-7.8
		c0-2.8-0.4-5.4-1.2-7.8c-0.8-2.3-2.1-4.3-3.7-6c-1.6-1.6-3.7-2.9-6.2-3.8c-2.5-0.9-5.3-1.4-8.5-1.4H797v37.8H805.3z"/>
</g>
<g class="st1">
	<path class="st0" d="M177.5,168.6c-6.4,0-11.7-2.1-16-6.4c-4.2-4.3-6.4-9.6-6.4-16c0-6.4,2.1-11.7,6.4-16c4.2-4.3,9.6-6.5,16-6.5
		c6.5,0,11.7,2.3,15.8,7l-4,3.8c-3.1-3.7-7-5.6-11.8-5.6c-4.8,0-8.7,1.6-11.9,4.8c-3.2,3.2-4.7,7.3-4.7,12.4s1.6,9.2,4.7,12.4
		c3.2,3.2,7.2,4.8,11.9,4.8c5,0,9.3-2.1,13-6.3l4,3.9c-2,2.4-4.5,4.3-7.5,5.7C184.1,167.9,180.9,168.6,177.5,168.6z"/>
	<path class="st0" d="M197.2,152.9c0-4.5,1.4-8.3,4.3-11.2c2.9-3,6.5-4.4,10.9-4.4c4.4,0,8,1.5,10.8,4.4c2.9,3,4.3,6.7,4.3,11.2
		c0,4.6-1.4,8.3-4.3,11.2c-2.8,3-6.4,4.4-10.8,4.4c-4.4,0-8-1.5-10.9-4.4C198.6,161.2,197.2,157.5,197.2,152.9z M202.7,152.9
		c0,3.2,0.9,5.7,2.8,7.7c1.8,2,4.1,2.9,6.8,2.9c2.7,0,5-1,6.8-2.9c1.8-2,2.8-4.5,2.8-7.7c0-3.1-0.9-5.7-2.8-7.6c-1.9-2-4.2-3-6.8-3
		c-2.7,0-5,1-6.8,3C203.7,147.3,202.7,149.8,202.7,152.9z"/>
	<path class="st0" d="M231.9,138.2h5.3v4.1h0.2c0.8-1.4,2.1-2.6,3.9-3.6c1.7-1,3.5-1.4,5.4-1.4c3.6,0,6.4,1,8.3,3.1
		c1.9,2.1,2.9,5,2.9,8.8v18.5h-5.5v-18.1c-0.1-4.8-2.5-7.2-7.3-7.2c-2.2,0-4,0.9-5.5,2.7c-1.5,1.8-2.2,3.9-2.2,6.4v16.3h-5.5V138.2z
		"/>
	<path class="st0" d="M264.4,138.2h5.3v4.1h0.2c0.8-1.4,2.1-2.6,3.9-3.6c1.7-1,3.5-1.4,5.4-1.4c3.6,0,6.4,1,8.3,3.1
		c1.9,2.1,2.9,5,2.9,8.8v18.5h-5.5v-18.1c-0.1-4.8-2.5-7.2-7.3-7.2c-2.2,0-4,0.9-5.5,2.7c-1.5,1.8-2.2,3.9-2.2,6.4v16.3h-5.5V138.2z
		"/>
	<path class="st0" d="M310.1,168.6c-4.3,0-7.9-1.5-10.7-4.4c-2.8-3-4.2-6.7-4.2-11.2c0-4.5,1.4-8.2,4.1-11.2c2.7-3,6.2-4.5,10.4-4.5
		c4.4,0,7.8,1.4,10.4,4.2s3.9,6.8,3.9,11.8L324,154h-23.1c0.1,2.9,1,5.2,2.9,7c1.8,1.8,4,2.6,6.6,2.6c3.5,0,6.3-1.8,8.3-5.3l4.9,2.4
		c-1.3,2.5-3.1,4.4-5.5,5.8C315.7,167.9,313.1,168.6,310.1,168.6z M301.3,149.4h16.9c-0.2-2-1-3.7-2.5-5.1s-3.5-2-6-2
		c-2.1,0-3.9,0.6-5.4,1.9C302.8,145.5,301.8,147.2,301.3,149.4z"/>
	<path class="st0" d="M342.8,168.6c-4.4,0-8-1.5-10.9-4.4c-2.8-3-4.3-6.8-4.3-11.2c0-4.5,1.4-8.3,4.3-11.2c2.9-3,6.5-4.4,10.9-4.4
		c3,0,5.6,0.8,7.9,2.2c2.2,1.5,3.9,3.6,5,6.2l-5,2.1c-1.6-3.7-4.3-5.5-8.2-5.5c-2.5,0-4.7,1-6.5,3.1c-1.8,2-2.7,4.6-2.7,7.6
		s0.9,5.5,2.7,7.6c1.8,2,4,3.1,6.5,3.1c4,0,6.9-1.8,8.5-5.5l4.9,2.1c-1.1,2.6-2.8,4.7-5.1,6.2C348.5,167.9,345.9,168.6,342.8,168.6z
		"/>
	<path class="st0" d="M372.1,168.1c-2.4,0-4.4-0.7-6-2.2c-1.6-1.5-2.4-3.5-2.4-6.2v-16.4h-5.2v-5h5.2v-9h5.5v9h7.2v5h-7.2v14.6
		c0,2,0.4,3.3,1.1,4c0.8,0.7,1.6,1.1,2.6,1.1c0.4,0,0.9-0.1,1.3-0.2s0.8-0.2,1.2-0.4l1.7,4.9C375.7,167.9,374,168.1,372.1,168.1z"/>
	<path class="st0" d="M400.9,174.8h-5v-54.7h5V174.8z"/>
	<path class="st0" d="M441.7,168.6c-6.4,0-11.7-2.1-16-6.4c-4.2-4.3-6.4-9.6-6.4-16c0-6.4,2.1-11.7,6.4-16c4.2-4.3,9.6-6.5,16-6.5
		c6.5,0,11.7,2.3,15.8,7l-4,3.8c-3.1-3.7-7-5.6-11.8-5.6c-4.8,0-8.7,1.6-11.9,4.8c-3.2,3.2-4.7,7.3-4.7,12.4s1.6,9.2,4.7,12.4
		c3.2,3.2,7.2,4.8,11.9,4.8c5,0,9.3-2.1,13-6.3l4,3.9c-2,2.4-4.5,4.3-7.5,5.7C448.3,167.9,445.1,168.6,441.7,168.6z"/>
	<path class="st0" d="M461.4,152.9c0-4.5,1.4-8.3,4.3-11.2c2.9-3,6.5-4.4,10.9-4.4s8,1.5,10.8,4.4c2.9,3,4.3,6.7,4.3,11.2
		c0,4.6-1.4,8.3-4.3,11.2c-2.8,3-6.4,4.4-10.8,4.4s-8-1.5-10.9-4.4C462.8,161.2,461.4,157.5,461.4,152.9z M466.9,152.9
		c0,3.2,0.9,5.7,2.8,7.7c1.8,2,4.1,2.9,6.8,2.9c2.7,0,5-1,6.8-2.9c1.8-2,2.8-4.5,2.8-7.7c0-3.1-0.9-5.7-2.8-7.6c-1.9-2-4.2-3-6.8-3
		s-5,1-6.8,3C467.8,147.3,466.9,149.8,466.9,152.9z"/>
	<path class="st0" d="M509,168.6c-3.8,0-7.1-1.5-9.9-4.6c-2.7-3.1-4.1-6.8-4.1-11.1c0-4.3,1.4-8,4.1-11.1c2.8-3,6.1-4.6,9.9-4.6
		c2.2,0,4.1,0.5,5.9,1.4c1.8,0.9,3.2,2.1,4.1,3.7h0.2l-0.2-4.1v-13.6h5.5v43h-5.3v-4.1H519c-1,1.5-2.3,2.7-4.1,3.7
		C513.1,168.2,511.1,168.6,509,168.6z M509.9,163.6c2.7,0,4.9-1,6.7-2.9c1.8-2,2.7-4.5,2.7-7.7c0-3.1-0.9-5.6-2.7-7.6
		c-1.8-2-4-3-6.7-3c-2.6,0-4.9,1-6.7,3c-1.8,2-2.7,4.5-2.7,7.6c0,3.1,0.9,5.7,2.7,7.6C505,162.6,507.2,163.6,509.9,163.6z"/>
	<path class="st0" d="M544.1,168.6c-4.3,0-7.9-1.5-10.7-4.4c-2.8-3-4.2-6.7-4.2-11.2c0-4.5,1.4-8.2,4.1-11.2c2.7-3,6.2-4.5,10.4-4.5
		c4.4,0,7.8,1.4,10.4,4.2s3.9,6.8,3.9,11.8L558,154h-23.1c0.1,2.9,1,5.2,2.9,7c1.8,1.8,4,2.6,6.6,2.6c3.5,0,6.3-1.8,8.3-5.3l4.9,2.4
		c-1.3,2.5-3.2,4.4-5.5,5.8S547.1,168.6,544.1,168.6z M535.3,149.4h16.9c-0.2-2-1-3.7-2.5-5.1s-3.5-2-6-2c-2.1,0-3.9,0.6-5.4,1.9
		C536.8,145.5,535.8,147.2,535.3,149.4z"/>
	<path class="st0" d="M582.3,174.8h-5v-54.7h5V174.8z"/>
	<path class="st0" d="M609.7,167.7h-5.5v-43h5.5V167.7z"/>
	<path class="st0" d="M617.3,138.2h5.3v4.1h0.2c0.8-1.4,2.1-2.6,3.9-3.6c1.7-1,3.5-1.4,5.4-1.4c3.6,0,6.4,1,8.3,3.1
		c1.9,2.1,2.9,5,2.9,8.8v18.5h-5.5v-18.1c-0.1-4.8-2.5-7.2-7.3-7.2c-2.2,0-4,0.9-5.5,2.7s-2.2,3.9-2.2,6.4v16.3h-5.5V138.2z"/>
	<path class="st0" d="M649.9,138.2h5.3v4.1h0.2c0.8-1.4,2.1-2.6,3.9-3.6c1.7-1,3.5-1.4,5.4-1.4c3.6,0,6.4,1,8.3,3.1
		c1.9,2.1,2.9,5,2.9,8.8v18.5h-5.5v-18.1c-0.1-4.8-2.5-7.2-7.3-7.2c-2.2,0-4,0.9-5.5,2.7s-2.2,3.9-2.2,6.4v16.3h-5.5V138.2z"/>
	<path class="st0" d="M680.7,152.9c0-4.5,1.4-8.3,4.3-11.2c2.9-3,6.5-4.4,10.9-4.4c4.4,0,8,1.5,10.8,4.4c2.9,3,4.3,6.7,4.3,11.2
		c0,4.6-1.4,8.3-4.3,11.2c-2.8,3-6.4,4.4-10.8,4.4c-4.4,0-8-1.5-10.9-4.4C682.1,161.2,680.7,157.5,680.7,152.9z M686.2,152.9
		c0,3.2,0.9,5.7,2.8,7.7c1.8,2,4.1,2.9,6.8,2.9c2.7,0,5-1,6.8-2.9c1.8-2,2.8-4.5,2.8-7.7c0-3.1-0.9-5.7-2.8-7.6c-1.9-2-4.2-3-6.8-3
		s-5,1-6.8,3C687.1,147.3,686.2,149.8,686.2,152.9z"/>
	<path class="st0" d="M729.7,167.7h-5.5l-11.9-29.4h6l8.6,22.8h0.1l8.8-22.8h5.9L729.7,167.7z"/>
	<path class="st0" d="M755.8,137.3c4.1,0,7.3,1.1,9.7,3.3s3.5,5.2,3.5,9v18.1h-5.3v-4.1h-0.2c-2.3,3.4-5.3,5-9.1,5
		c-3.2,0-6-1-8.1-2.9c-2.2-1.9-3.3-4.3-3.3-7.2c0-3,1.1-5.5,3.5-7.3c2.3-1.8,5.4-2.7,9.2-2.7c3.3,0,6,0.6,8.1,1.8v-1.3
		c0-1.9-0.8-3.5-2.3-4.9c-1.5-1.3-3.3-2-5.3-2c-3.1,0-5.5,1.3-7.3,3.9l-4.9-3.1C746.6,139.2,750.6,137.3,755.8,137.3z M748.7,158.7
		c0,1.4,0.6,2.6,1.8,3.6c1.2,1,2.6,1.4,4.3,1.4c2.3,0,4.4-0.9,6.2-2.6c1.8-1.7,2.7-3.7,2.7-6.1c-1.7-1.4-4.1-2-7.2-2
		c-2.2,0-4.1,0.5-5.6,1.6C749.4,155.7,748.7,157.1,748.7,158.7z"/>
	<path class="st0" d="M786.3,168.1c-2.4,0-4.4-0.7-6-2.2c-1.6-1.5-2.4-3.5-2.4-6.2v-16.4h-5.2v-5h5.2v-9h5.5v9h7.2v5h-7.2v14.6
		c0,2,0.4,3.3,1.1,4c0.8,0.7,1.6,1.1,2.6,1.1c0.4,0,0.9-0.1,1.3-0.2s0.8-0.2,1.2-0.4l1.7,4.9C789.9,167.9,788.2,168.1,786.3,168.1z"
		/>
	<path class="st0" d="M808.8,168.6c-4.3,0-7.9-1.5-10.7-4.4c-2.8-3-4.2-6.7-4.2-11.2c0-4.5,1.4-8.2,4.1-11.2c2.7-3,6.2-4.5,10.4-4.5
		c4.4,0,7.8,1.4,10.4,4.2s3.9,6.8,3.9,11.8l-0.1,0.6h-23.1c0.1,2.9,1,5.2,2.9,7c1.8,1.8,4,2.6,6.6,2.6c3.5,0,6.3-1.8,8.3-5.3
		l4.9,2.4c-1.3,2.5-3.2,4.4-5.5,5.8S811.8,168.6,808.8,168.6z M800,149.4h16.9c-0.2-2-1-3.7-2.5-5.1s-3.5-2-6-2
		c-2.1,0-3.9,0.6-5.4,1.9C801.4,145.5,800.5,147.2,800,149.4z"/>
</g>
</svg>
