<?xml version="1.0" encoding="utf-8"?>
<!-- Generator: Adobe Illustrator 23.0.1, SVG Export Plug-In . SVG Version: 6.00 Build 0)  -->
<svg version="1.1" id="Layer_4" xmlns="http://www.w3.org/2000/svg" xmlns:xlink="http://www.w3.org/1999/xlink" x="0px" y="0px"
	 viewBox="0 0 1068 200" style="enable-background:new 0 0 1068 200;" xml:space="preserve">
<style type="text/css">
	.st0{enable-background:new    ;}
	.st1{fill:#FFFFFF;}
</style>
<g class="st0">
	<path class="st1" d="M279.8,88.1h33.9c0.2,0.8,0.4,1.8,0.5,2.8c0.1,1.1,0.2,2.2,0.2,3.3c0,4.5-0.7,8.6-2,12.6
		c-1.3,3.9-3.5,7.4-6.3,10.6c-3.1,3.3-6.8,5.9-11.1,7.6c-4.4,1.8-9.3,2.7-14.8,2.7c-5.1,0-9.8-0.9-14.2-2.7
		c-4.5-1.8-8.3-4.4-11.6-7.5c-3.3-3.2-5.9-7.1-7.9-11.4c-1.9-4.4-2.9-9.2-2.9-14.5c0-5.2,0.9-10,2.9-14.5c1.9-4.4,4.6-8.2,7.9-11.4
		c3.3-3.2,7.2-5.8,11.6-7.5s9.2-2.7,14.2-2.7c5.6,0,10.6,0.9,15,2.9c4.4,1.9,8.2,4.6,11.3,8l-8.9,8.8c-2.2-2.4-4.8-4.2-7.5-5.4
		c-2.8-1.3-6.1-1.9-10-1.9c-3.2,0-6.1,0.6-8.9,1.6c-2.8,1.2-5.3,2.7-7.4,4.8s-3.8,4.6-5.1,7.5c-1.3,2.9-1.9,6.2-1.9,9.8
		c0,3.6,0.6,6.8,1.9,9.8c1.3,2.9,2.9,5.4,5.2,7.5c2.1,2.1,4.7,3.6,7.5,4.8s5.9,1.6,9.1,1.6c3.6,0,6.8-0.6,9.3-1.6
		c2.6-1.1,4.7-2.5,6.5-4.1c1.3-1.2,2.4-2.6,3.3-4.4s1.6-3.8,2.1-5.9h-21.8V88.1L279.8,88.1z"/>
	<path class="st1" d="M325.1,56.9h23.4c5.5,0,10.3,0.8,14.8,2.5c4.4,1.6,8.1,4,11.2,7.1c3.1,3.1,5.4,6.7,7.1,10.9
		c1.6,4.2,2.5,8.9,2.5,14c0,5.2-0.8,9.9-2.5,14.1c-1.6,4.2-4,7.9-7.1,10.9s-6.8,5.4-11.2,7.1c-4.4,1.6-9.3,2.5-14.8,2.5h-23.4V56.9z
		 M347.9,113.7c3.8,0,7.2-0.6,10-1.6s5.3-2.6,7.3-4.5c1.9-1.9,3.4-4.2,4.4-7.1c0.9-2.7,1.4-5.8,1.4-9.2c0-3.3-0.5-6.3-1.4-9.2
		c-0.9-2.7-2.5-5.1-4.4-7.1c-1.9-1.9-4.4-3.4-7.3-4.5c-2.9-1.1-6.2-1.6-10-1.6h-9.8v44.4h9.8V113.7z"/>
	<path class="st1" d="M427.4,88.1h33.9c0.2,0.8,0.4,1.8,0.5,2.8c0.1,1.1,0.2,2.2,0.2,3.3c0,4.5-0.7,8.6-2,12.6
		c-1.3,3.9-3.5,7.4-6.3,10.6c-3.1,3.3-6.8,5.9-11.1,7.6c-4.4,1.8-9.3,2.7-14.8,2.7c-5.1,0-9.8-0.9-14.2-2.7
		c-4.5-1.8-8.3-4.4-11.6-7.5c-3.3-3.2-5.9-7.1-7.9-11.4c-1.9-4.4-2.9-9.2-2.9-14.5c0-5.2,0.9-10,2.9-14.5c1.9-4.4,4.6-8.2,7.9-11.4
		c3.3-3.2,7.2-5.8,11.6-7.5c4.5-1.8,9.2-2.7,14.2-2.7c5.6,0,10.6,0.9,15,2.9c4.4,1.9,8.2,4.6,11.3,8l-8.9,8.8
		c-2.2-2.4-4.8-4.2-7.5-5.4c-2.8-1.3-6.1-1.9-10-1.9c-3.2,0-6.1,0.6-8.9,1.6c-2.8,1.2-5.3,2.7-7.4,4.8c-2.1,2.1-3.8,4.6-5.1,7.5
		c-1.3,2.9-1.9,6.2-1.9,9.8c0,3.6,0.6,6.8,1.9,9.8c1.3,2.9,2.9,5.4,5.2,7.5c2.1,2.1,4.7,3.6,7.5,4.8c2.8,1.2,5.9,1.6,9.1,1.6
		c3.6,0,6.8-0.6,9.3-1.6c2.6-1.1,4.7-2.5,6.5-4.1c1.3-1.2,2.4-2.6,3.3-4.4c0.9-1.8,1.6-3.8,2.1-5.9h-21.8L427.4,88.1L427.4,88.1z"/>
	<path class="st1" d="M494,56.9H507v27.6h29V56.9h13.1v69.1h-13.1V96.9h-29v29.2H494V56.9z"/>
	<path class="st1" d="M580.5,93.9l-23.3-36.9h15.5l13.8,22.9h0.8l13.3-22.9h15.8l-22.9,36.9V126h-13.1V93.9H580.5z"/>
	<path class="st1" d="M624.6,56.9H648c5.5,0,10.3,0.8,14.8,2.5c4.4,1.6,8.1,4,11.2,7.1c3.1,3.1,5.4,6.7,7.1,10.9
		c1.6,4.2,2.5,8.9,2.5,14c0,5.2-0.8,9.9-2.5,14.1c-1.6,4.2-4,7.9-7.1,10.9c-3.1,3.1-6.8,5.4-11.2,7.1c-4.4,1.6-9.3,2.5-14.8,2.5
		h-23.4V56.9z M647.3,113.7c3.8,0,7.2-0.6,10-1.6c2.9-1.1,5.3-2.6,7.3-4.5c1.9-1.9,3.4-4.2,4.4-7.1c0.9-2.7,1.4-5.8,1.4-9.2
		c0-3.3-0.5-6.3-1.4-9.2c-0.9-2.7-2.5-5.1-4.4-7.1c-1.9-1.9-4.4-3.4-7.3-4.5c-2.9-1.1-6.2-1.6-10-1.6h-9.8v44.4h9.8V113.7z"/>
	<path class="st1" d="M707,69.3v16h27.7v12.3H707v16h30.8V126h-43.9v-69h43.9v12.3H707z"/>
	<path class="st1" d="M749.8,56.9H775c3.5,0,6.6,0.6,9.4,1.6c2.8,1.1,5.3,2.6,7.3,4.6c2,1.9,3.6,4.2,4.7,6.9
		c1.1,2.7,1.6,5.6,1.6,8.7c0,2.4-0.4,4.5-1.2,6.5s-1.9,3.9-3.2,5.5c-1.3,1.6-2.9,3.1-4.7,4.4s-3.6,2.2-5.6,2.9l-0.1,0.7l18.6,26.6
		v0.8h-15l-17.9-26.1h-6.1v26h-13.1V56.9H749.8z M774.8,88.1c2.9,0,5.4-0.9,7.3-2.7c1.9-1.8,2.8-4.1,2.8-6.8c0-1.2-0.2-2.5-0.6-3.5
		c-0.5-1.2-1.1-2.2-1.9-3.1c-0.8-0.9-1.9-1.6-3.2-2.1c-1.3-0.6-2.7-0.8-4.4-0.8h-12.2v19.2h12.1V88.1z"/>
	<path class="st1" d="M829.7,56.9h14.8l26,69.1h-14.3l-5.6-16.5h-26.7l-5.6,16.5h-14.3L829.7,56.9z M846.3,97.6l-6.2-17.3l-2.5-8.3
		h-0.8l-2.5,8.3l-6.2,17.3H846.3z"/>
	<path class="st1" d="M878.8,56.9h27c2.9,0,5.8,0.5,8.3,1.4c2.6,0.9,4.8,2.2,6.7,3.9c1.9,1.6,3.4,3.5,4.5,5.8
		c1.1,2.2,1.6,4.6,1.6,7.1c0,3.6-0.9,6.7-2.7,9.2c-1.8,2.5-4,4.4-6.6,5.6v0.8c3.5,1.3,6.3,3.3,8.6,6c2.1,2.7,3.3,6.1,3.3,10.2
		c0,2.9-0.6,5.6-1.8,8c-1.2,2.4-2.8,4.4-4.8,6c-2.1,1.6-4.5,2.9-7.2,3.9c-2.7,0.9-5.6,1.3-8.8,1.3h-28V56.9H878.8z M904.8,85.2
		c3.1,0,5.4-0.8,7.1-2.5s2.5-3.6,2.5-5.9c0-2.2-0.8-4.2-2.5-5.8c-1.6-1.6-3.9-2.5-6.7-2.5h-13.4V85h13.1V85.2z M906.3,114.1
		c3.3,0,5.8-0.8,7.5-2.5s2.6-3.8,2.6-6.3c0-2.6-0.9-4.7-2.7-6.5c-1.8-1.6-4.4-2.6-7.9-2.6h-14.1V114h14.6V114.1z"/>
	<path class="st1" d="M958.6,56.9h14.8l26.1,69.1h-14.3l-5.6-16.5h-26.7l-5.6,16.5h-14.3L958.6,56.9z M975.2,97.6l-6.2-17.3
		l-2.5-8.3h-0.8l-2.5,8.3L957,97.6H975.2z"/>
	<path class="st1" d="M1007.6,56.9h23.4c5.5,0,10.3,0.8,14.8,2.5c4.4,1.6,8.1,4,11.2,7.1c3.1,3.1,5.4,6.7,7.1,10.9
		c1.6,4.2,2.5,8.9,2.5,14c0,5.2-0.8,9.9-2.5,14.1c-1.6,4.2-4,7.9-7.1,10.9s-6.8,5.4-11.2,7.1s-9.3,2.5-14.8,2.5h-23.4V56.9z
		 M1030.4,113.7c3.8,0,7.2-0.6,10-1.6c2.9-1.1,5.3-2.6,7.3-4.5c1.9-1.9,3.4-4.2,4.4-7.1c0.9-2.7,1.4-5.8,1.4-9.2
		c0-3.3-0.5-6.3-1.4-9.2c-0.9-2.7-2.5-5.1-4.4-7.1c-1.9-1.9-4.4-3.4-7.3-4.5c-2.9-1.1-6.2-1.6-10-1.6h-9.8v44.4h9.8V113.7z"/>
</g>
<path class="st1" d="M175.5,98.8c-5.5-4.1-11.6-7.2-17.5-10.7c-6.2-3.7-12.5-7-18.7-10.7c-7.4-4.4-10.6-11.5-9-19.6
	c1.5-7.5,7.8-13.1,16-14.1c3.9-0.5,7.6,0.6,10.9,2.6c20.8,12,41.5,23.9,62.3,35.9c6.5,3.8,10.7,9,10.4,16.8
	c-0.3,8-4.5,13.4-11.6,16.8l-2.1,1c-6.3,1-11.7-0.9-17-4.1C191.5,107.8,183.5,103.4,175.5,98.8z"/>
<path class="st1" d="M56.6,98.5c4.7,3.5,9.9,6.2,15,9.2c7.1,4.2,14.4,8.1,21.5,12.3s10.4,11.8,8.9,19.2c-1.5,7.4-7.8,13.2-15.9,14.4
	c-4.1,0.6-7.8-0.7-11.2-2.6c-20.7-11.9-41.3-23.8-61.9-35.7c-6.8-3.9-11.3-9.3-10.8-17.6c0.5-8.1,5.3-13.1,12.3-16.2l1.2-0.6
	c5.8-0.9,11,0.5,16.1,3.5C40,89.3,48.4,93.8,56.6,98.5z"/>
<path class="st1" d="M57.4,96.3c-8.3-4.7-16.7-9.2-24.8-14.2c-5.1-3.1-10.3-4.4-16.1-3.5c7.4-5.1,15.3-9.2,23-13.7
	C51.4,58,63.3,51.1,75.2,44.3c3.9-2.2,7.9-3.4,12.5-2.6c7.6,1.3,13.2,6.5,15,14.1c1.5,6.7-1.5,14.4-7.9,18.3
	C84.3,80.5,73.6,86.6,63,92.8C61.1,94,59.3,95.1,57.4,96.3z"/>
<path class="st1" d="M174.8,101.1c7.9,4.5,15.9,9,23.7,13.7c5.3,3.2,10.8,5.1,17,4.1c-2.2,2.1-4.9,3.2-7.4,4.7
	c-17,9.8-33.9,19.6-50.9,29.3c-10.4,6-22.5,2.2-26.8-8.4c-3.5-8.5,0.1-17.7,8.8-22.8c10.8-6.3,21.6-12.5,32.5-18.8
	C172.7,102.3,173.8,101.7,174.8,101.1z"/>
</svg>
