<svg id="Layer_4" data-name="Layer 4" xmlns="http://www.w3.org/2000/svg" xmlns:xlink="http://www.w3.org/1999/xlink" viewBox="0 0 836.1 200"><defs><style>.cls-1{fill:none;}.cls-2{fill:#ffc107;}.cls-3{fill:#0f9d58;}.cls-4{fill:#bf360c;}.cls-11,.cls-12,.cls-4,.cls-5,.cls-6{opacity:0.2;}.cls-11,.cls-12,.cls-14,.cls-17,.cls-4,.cls-5,.cls-6{isolation:isolate;}.cls-5{fill:#263238;}.cls-6{fill:#fff;}.cls-7{fill:url(#radial-gradient);}.cls-8{fill:url(#radial-gradient-2);}.cls-9{fill:#4285f4;}.cls-10{fill:#db4437;}.cls-11{fill:#1a237e;}.cls-12{fill:#3e2723;}.cls-13{fill:url(#radial-gradient-3);}.cls-14{font-size:80.19px;font-family:ProductSans-Bold, Product Sans;font-weight:700;}.cls-14,.cls-17{fill:#767676;}.cls-15{letter-spacing:-0.01em;}.cls-16{letter-spacing:0em;}.cls-17{font-size:59.66px;font-family:ProductSans-Regular, Product Sans;}.cls-18{letter-spacing:-0.02em;}.cls-19{letter-spacing:-0.01em;}.cls-20{letter-spacing:0.01em;}.cls-21{letter-spacing:0em;}.cls-22{letter-spacing:0em;}.cls-23{letter-spacing:-0.01em;}</style><radialGradient id="radial-gradient" cx="92.62" cy="1723.5" r="69.16" gradientTransform="matrix(1, 0, 0, -1, 0, 1883.46)" gradientUnits="userSpaceOnUse"><stop offset="0" stop-color="#bf360c" stop-opacity="0.2"/><stop offset="1" stop-color="#bf360c" stop-opacity="0.02"/></radialGradient><radialGradient id="radial-gradient-2" cx="92.42" cy="1723.06" r="69.72" gradientTransform="matrix(1, 0, 0, -1, 0, 1883.46)" gradientUnits="userSpaceOnUse"><stop offset="0" stop-color="#263238" stop-opacity="0.2"/><stop offset="1" stop-color="#263238" stop-opacity="0.02"/></radialGradient><radialGradient id="radial-gradient-3" cx="-1.56" cy="1881.9" r="209.92" gradientTransform="matrix(1, 0, 0, -1, 0, 1883.46)" gradientUnits="userSpaceOnUse"><stop offset="0" stop-color="#fff" stop-opacity="0.1"/><stop offset="1" stop-color="#fff" stop-opacity="0"/></radialGradient></defs><title>logo-grey</title><g id="_Group_" data-name="&lt;Group&gt;"><g id="_Group_2" data-name="&lt;Group&gt;"><g id="_Group_3" data-name="&lt;Group&gt;"><path id="_Path_" data-name="&lt;Path&gt;" class="cls-1" d="M122.5,90.6,70.1,0H0L57.8,100,0,200H70.1l52.4-90.6A19.09,19.09,0,0,0,122.5,90.6Z"/><path id="_Path_2" data-name="&lt;Path&gt;" class="cls-2" d="M92.4,159.8,75.8,131.1,35.9,200H70.1l22.8-39.4Z"/><path id="_Path_3" data-name="&lt;Path&gt;" class="cls-1" d="M122.5,90.6,70.1,0H0L57.8,100,0,200H70.1l52.4-90.6A19.09,19.09,0,0,0,122.5,90.6Z"/><path id="_Path_4" data-name="&lt;Path&gt;" class="cls-3" d="M57.8,100l18,31.1L35.9,200H0Z"/><path id="_Path_5" data-name="&lt;Path&gt;" class="cls-1" d="M122.5,90.6,70.1,0H0L57.8,100,0,200H70.1l52.4-90.6A19.09,19.09,0,0,0,122.5,90.6Z"/><path id="_Path_6" data-name="&lt;Path&gt;" class="cls-4" d="M70.1,198.4H36.8l-.9,1.6H70.1l22.8-39.4-.5-.8Z"/><path id="_Path_7" data-name="&lt;Path&gt;" class="cls-1" d="M122.5,90.6,70.1,0H0L57.8,100,0,200H70.1l52.4-90.6A19.09,19.09,0,0,0,122.5,90.6Z"/><path id="_Path_8" data-name="&lt;Path&gt;" class="cls-5" d="M.9,198.4,0,200H35.9l.9-1.6Z"/><path id="_Path_9" data-name="&lt;Path&gt;" class="cls-1" d="M122.5,90.6,70.1,0H0L57.8,100,0,200H70.1l52.4-90.6A19.09,19.09,0,0,0,122.5,90.6Z"/><path id="_Path_10" data-name="&lt;Path&gt;" class="cls-6" d="M0,200H.9l57.4-99.2-.5-.8Z"/><path id="_Path_11" data-name="&lt;Path&gt;" class="cls-1" d="M122.5,90.6,70.1,0H0L57.8,100,0,200H70.1l52.4-90.6A19.09,19.09,0,0,0,122.5,90.6Z"/><path id="_Path_12" data-name="&lt;Path&gt;" class="cls-7" d="M92.9,160.6,75.8,131.1l-4.2,7.2Z"/><path id="_Path_13" data-name="&lt;Path&gt;" class="cls-1" d="M122.5,90.6,70.1,0H0L57.8,100,0,200H70.1l52.4-90.6A19.09,19.09,0,0,0,122.5,90.6Z"/><path id="_Path_14" data-name="&lt;Path&gt;" class="cls-8" d="M71.6,138.3l4.2-7.2L57.8,100l-8.5,14.8Z"/><path id="_Path_15" data-name="&lt;Path&gt;" class="cls-1" d="M122.5,90.6,70.1,0H0L57.8,100,0,200H70.1l52.4-90.6A19.09,19.09,0,0,0,122.5,90.6Z"/><g id="_Group_4" data-name="&lt;Group&gt;"><g id="_Group_5" data-name="&lt;Group&gt;"><path id="_Path_16" data-name="&lt;Path&gt;" class="cls-9" d="M35.9,0H0L92.9,160.6l17.9-31.1Z"/></g></g><path id="_Path_17" data-name="&lt;Path&gt;" class="cls-1" d="M122.5,90.6,70.1,0H0L57.8,100,0,200H70.1l52.4-90.6A19.09,19.09,0,0,0,122.5,90.6Z"/><path id="_Path_18" data-name="&lt;Path&gt;" class="cls-10" d="M122.5,109.4a18.6,18.6,0,0,0,0-18.8L70.1,0H35.9l74.9,129.5Z"/><path id="_Path_19" data-name="&lt;Path&gt;" class="cls-1" d="M122.5,90.6,70.1,0H0L57.8,100,0,200H70.1l52.4-90.6A19.09,19.09,0,0,0,122.5,90.6Z"/><path id="_Path_20" data-name="&lt;Path&gt;" class="cls-11" d="M110.8,129.5l-.4-.8L92.9,159,.9,0H0L92.9,160.6Z"/><path id="_Path_21" data-name="&lt;Path&gt;" class="cls-1" d="M122.5,90.6,70.1,0H0L57.8,100,0,200H70.1l52.4-90.6A19.09,19.09,0,0,0,122.5,90.6Z"/><path id="_Path_22" data-name="&lt;Path&gt;" class="cls-6" d="M70.1,1.6l52.4,90.6a20.32,20.32,0,0,1,2.5,8.6,19.54,19.54,0,0,0-2.5-10.2L70.1,0H0L.9,1.6Z"/><path id="_Path_23" data-name="&lt;Path&gt;" class="cls-1" d="M122.5,90.6,70.1,0H0L57.8,100,0,200H70.1l52.4-90.6A19.09,19.09,0,0,0,122.5,90.6Z"/><path id="_Path_24" data-name="&lt;Path&gt;" class="cls-12" d="M110.8,129.5l11.6-20.1a19.31,19.31,0,0,0,2.5-10.2,17.83,17.83,0,0,1-2.5,8.6l-12.1,20.9Z"/><path id="_Path_25" data-name="&lt;Path&gt;" class="cls-1" d="M122.5,90.6,70.1,0H0L57.8,100,0,200H70.1l52.4-90.6A19.09,19.09,0,0,0,122.5,90.6Z"/><path id="_Path_26" data-name="&lt;Path&gt;" class="cls-13" d="M122.5,90.6,70.1,0H0L57.8,100,0,200H70.1l52.4-90.6A19.09,19.09,0,0,0,122.5,90.6Z"/></g></g></g><text class="cls-14" transform="translate(146.62 92.27)">GDG HYDERA<tspan class="cls-15" x="524.77" y="0">B</tspan><tspan class="cls-16" x="574.41" y="0">AD</tspan></text><text class="cls-17" transform="translate(159 167.05)"><tspan class="cls-18">C</tspan><tspan class="cls-19" x="42.3" y="0">o</tspan><tspan x="75.12" y="0">nn</tspan><tspan class="cls-20" x="139.79" y="0">e</tspan><tspan class="cls-21" x="172.07" y="0">c</tspan><tspan class="cls-22" x="202.92" y="0">t |</tspan><tspan class="cls-18" x="250.76" y="0" xml:space="preserve"> C</tspan><tspan x="305" y="0">o</tspan><tspan class="cls-21" x="338.41" y="0">d</tspan><tspan x="372.48" y="0">e | Inn</tspan><tspan class="cls-23" x="523.07" y="0">ova</tspan><tspan class="cls-21" x="614.83" y="0">t</tspan><tspan x="635.65" y="0">e</tspan></text></svg>