<?xml version="1.0" encoding="utf-8"?>
<!-- Generator: Adobe Illustrator 23.0.1, SVG Export Plug-In . SVG Version: 6.00 Build 0)  -->
<svg version="1.1" id="Layer_4" xmlns="http://www.w3.org/2000/svg" xmlns:xlink="http://www.w3.org/1999/xlink" x="0px" y="0px"
	 viewBox="0 0 1269 317" style="enable-background:new 0 0 1269 317;" xml:space="preserve">
<style type="text/css">
	.st0{fill:#FFFFFF;}
	.st1{fill:#FFFFFF;stroke:#FFFFFF;stroke-miterlimit:10;}
	.st2{font-family:'GoogleSans-Regular';}
	.st3{font-size:73.0274px;}
	.st4{fill:#129D58;}
	.st5{fill:#4385F4;}
	.st6{fill:#EA4337;}
	.st7{fill:#F7BB06;}
</style>
<g>
	<path class="st0" d="M341,134.2c-6.3-3.5-11.2-8.4-14.9-14.6c-3.7-6.2-5.5-13.1-5.5-20.8c0-7.7,1.8-14.6,5.5-20.8
		c3.7-6.2,8.7-11,14.9-14.6c6.3-3.5,13.1-5.3,20.6-5.3c6.1,0,11.6,1.1,16.7,3.2c5,2.1,9.4,5.2,13,9.1l-10.1,9.9
		c-2.6-2.8-5.5-4.8-8.6-6.2c-3.2-1.4-6.8-2.1-11-2.1c-4.8,0-9.2,1.1-13.1,3.3c-4,2.2-7.2,5.4-9.5,9.5c-2.4,4.1-3.5,8.7-3.5,14
		c0,5.2,1.2,9.9,3.6,14c2.4,4.1,5.6,7.2,9.6,9.5c4,2.2,8.4,3.3,13.2,3.3c7.2,0,13.2-2.1,17.8-6.4c1.4-1.3,2.7-3,3.8-5
		c1.1-2,1.9-4.2,2.4-6.6h-24.4V95h38.1c0.5,2,0.8,4.3,0.8,6.8c0,5.1-0.8,9.9-2.3,14.3c-1.6,4.4-3.9,8.3-7.1,11.6
		c-3.5,3.8-7.7,6.6-12.6,8.6c-4.9,2-10.4,3-16.5,3C354.1,139.4,347.3,137.7,341,134.2z"/>
	<path class="st0" d="M414.2,59.9h26.3c8.1,0,15.2,1.6,21.2,4.9c6,3.3,10.6,7.8,13.9,13.7c3.3,5.9,4.9,12.6,4.9,20.3
		c0,7.7-1.6,14.4-4.9,20.3c-3.3,5.9-7.9,10.4-13.9,13.7c-6,3.3-13.1,4.9-21.2,4.9h-26.3V59.9z M439.8,123.8c8.4,0,14.8-2.2,19.2-6.7
		c4.4-4.5,6.6-10.6,6.6-18.3c0-7.7-2.2-13.9-6.6-18.3c-4.4-4.5-10.8-6.7-19.2-6.7h-11v50H439.8z"/>
	<path class="st0" d="M510.9,134.2c-6.3-3.5-11.2-8.4-14.9-14.6c-3.7-6.2-5.5-13.1-5.5-20.8c0-7.7,1.8-14.6,5.5-20.8
		c3.7-6.2,8.7-11,14.9-14.6c6.3-3.5,13.1-5.3,20.6-5.3c6.1,0,11.6,1.1,16.7,3.2c5,2.1,9.4,5.2,13,9.1l-10.1,9.9
		c-2.6-2.8-5.5-4.8-8.6-6.2c-3.2-1.4-6.8-2.1-11-2.1c-4.8,0-9.2,1.1-13.1,3.3c-4,2.2-7.2,5.4-9.5,9.5c-2.4,4.1-3.5,8.7-3.5,14
		c0,5.2,1.2,9.9,3.6,14c2.4,4.1,5.6,7.2,9.6,9.5c4,2.2,8.4,3.3,13.2,3.3c7.2,0,13.2-2.1,17.8-6.4c1.4-1.3,2.7-3,3.8-5
		c1.1-2,1.9-4.2,2.4-6.6h-24.4V95h38.1c0.5,2,0.8,4.3,0.8,6.8c0,5.1-0.8,9.9-2.3,14.3c-1.6,4.4-3.9,8.3-7.1,11.6
		c-3.5,3.8-7.7,6.6-12.6,8.6c-4.9,2-10.4,3-16.5,3C524,139.4,517.2,137.7,510.9,134.2z"/>
	<path class="st0" d="M609.5,59.9h14.7V91h32.7V59.9h14.7v77.8h-14.7v-32.8h-32.7v32.8h-14.7V59.9z"/>
	<path class="st0" d="M708.3,101.5l-26.2-41.6h17.5l15.5,25.7h0.9l15-25.7h17.7l-25.7,41.6v36.2h-14.7V101.5z"/>
	<path class="st0" d="M759.1,59.9h26.3c8.1,0,15.2,1.6,21.2,4.9c6,3.3,10.6,7.8,13.9,13.7c3.3,5.9,4.9,12.6,4.9,20.3
		c0,7.7-1.6,14.4-4.9,20.3c-3.3,5.9-7.9,10.4-13.9,13.7c-6,3.3-13.1,4.9-21.2,4.9h-26.3V59.9z M784.7,123.8c8.4,0,14.8-2.2,19.2-6.7
		c4.4-4.5,6.6-10.6,6.6-18.3c0-7.7-2.2-13.9-6.6-18.3c-4.4-4.5-10.8-6.7-19.2-6.7h-11v50H784.7z"/>
	<path class="st0" d="M839.3,59.9h49.3v13.9h-34.7v18h31.2v13.9h-31.2v18h34.7v13.9h-49.3V59.9z"/>
	<path class="st0" d="M903.7,59.9H932c5.1,0,9.6,1.1,13.5,3.2c3.9,2.1,7,5,9.2,8.7c2.2,3.7,3.3,7.9,3.3,12.7c0,5-1.6,9.4-4.7,13.3
		c-3.2,3.9-7.1,6.7-11.9,8.4l-0.1,0.8l20.9,29.9v0.9h-16.8l-20.1-29.2h-6.8v29.2h-14.7V59.9z M931.9,95c3.3,0,6-1,8.1-3
		c2.1-2,3.2-4.6,3.2-7.7c0-3-1-5.5-3-7.6c-2-2.1-4.7-3.2-8.1-3.2h-13.8V95H931.9z"/>
	<path class="st0" d="M994.4,59.9h16.8l29.2,77.8h-16.2l-6.5-18.6H988l-6.5,18.6h-16.2L994.4,59.9z M1013,105.6l-6.8-19.6l-2.8-9.3
		h-0.9l-2.8,9.3l-7,19.6H1013z"/>
	<path class="st0" d="M1051,59.9h30.4c4.3,0,8.3,0.9,12,2.7c3.7,1.8,6.5,4.3,8.6,7.4c2.1,3.1,3.2,6.5,3.2,10.2c0,3.9-1,7.3-2.9,10.2
		c-1.9,2.9-4.4,5.1-7.6,6.6v0.9c4.1,1.4,7.3,3.7,9.7,6.9c2.4,3.2,3.6,6.9,3.6,11.4c0,4.3-1.1,8.1-3.4,11.4c-2.3,3.3-5.4,5.8-9.2,7.6
		c-3.9,1.8-8.2,2.7-12.9,2.7H1051V59.9z M1080.3,91.6c3.2,0,5.7-0.9,7.7-2.7c1.9-1.8,2.9-4,2.9-6.7c0-2.6-0.9-4.8-2.8-6.6
		c-1.8-1.8-4.3-2.7-7.3-2.7h-15.1v18.6H1080.3z M1081.9,124.3c3.5,0,6.3-0.9,8.3-2.8c2-1.8,3-4.3,3-7.2c0-3-1-5.4-3-7.3
		c-2-1.9-4.9-2.8-8.7-2.8h-15.9v20.1H1081.9z"/>
	<path class="st0" d="M1142,59.9h16.8l29.2,77.8h-16.2l-6.5-18.6h-29.8l-6.5,18.6h-16.2L1142,59.9z M1160.6,105.6l-6.8-19.6
		l-2.8-9.3h-0.9l-2.8,9.3l-7,19.6H1160.6z"/>
	<path class="st0" d="M1198.6,59.9h26.3c8.1,0,15.2,1.6,21.2,4.9c6,3.3,10.6,7.8,13.9,13.7c3.3,5.9,4.9,12.6,4.9,20.3
		c0,7.7-1.6,14.4-4.9,20.3c-3.3,5.9-7.9,10.4-13.9,13.7c-6,3.3-13.1,4.9-21.2,4.9h-26.3V59.9z M1224.3,123.8
		c8.4,0,14.8-2.2,19.2-6.7c4.4-4.5,6.6-10.6,6.6-18.3c0-7.7-2.2-13.9-6.6-18.3c-4.4-4.5-10.8-6.7-19.2-6.7h-11v50H1224.3z"/>
</g>
<text transform="matrix(1 0 0 1 353.6004 232.056)" class="st1 st2 st3">Connect - Code - Innovate</text>
<path class="st4" d="M214.5,154.6c-6.6-5.5-14-9.5-21.2-14.2c-7.5-4.9-15.1-9.4-22.6-14.2c-9-5.8-12.8-15.3-10.9-26
	c1.8-9.9,9.4-17.4,19.4-18.8c4.7-0.7,9.2,0.8,13.2,3.4c25.1,15.9,50.2,31.7,75.2,47.6c7.9,5,12.9,12,12.6,22.3
	c-0.3,10.6-5.5,17.8-14,22.3l-2.5,1.3c-7.6,1.3-14.1-1.2-20.5-5.5C233.7,166.4,224,160.6,214.5,154.6z"/>
<path class="st5" d="M70.9,154.1c5.7,4.6,12,8.2,18.2,12.1c8.6,5.5,17.4,10.7,26,16.4s12.6,15.6,10.7,25.4
	c-1.8,9.8-9.5,17.6-19.2,19.1c-4.9,0.8-9.4-0.9-13.5-3.5c-25-15.8-49.9-31.6-74.8-47.4c-8.2-5.2-13.7-12.3-13-23.3
	c0.6-10.7,6.4-17.4,14.9-21.6l1.4-0.8c7-1.2,13.3,0.6,19.4,4.7C50.7,141.9,60.9,147.9,70.9,154.1z"/>
<path class="st6" d="M70.9,154.1c-10-6.2-20.1-12.2-29.9-18.8c-6.1-4.1-12.4-5.9-19.4-4.7c8.9-6.7,18.5-12.2,27.8-18.1
	c14.3-9.2,28.7-18.2,43.1-27.3c4.7-3,9.6-4.5,15.1-3.5c9.2,1.7,16,8.7,18.1,18.7c1.9,8.9-1.8,19.2-9.5,24.3
	c-12.7,8.5-25.6,16.6-38.4,24.9C75.3,151.1,73.1,152.6,70.9,154.1z"/>
<path class="st7" d="M214.5,154.6c9.6,6,19.2,11.9,28.7,18.2c6.4,4.3,13,6.8,20.5,5.5c-2.6,2.8-5.9,4.3-9,6.2
	c-20.5,13-41,26-61.5,38.9c-12.6,7.9-27.1,2.9-32.3-11.1c-4.2-11.2,0.1-23.5,10.6-30.2c13-8.4,26.1-16.7,39.2-25
	C212,156.2,213.2,155.4,214.5,154.6z"/>
</svg>
