<?xml version="1.0" encoding="utf-8"?>
<!-- Generator: Adobe Illustrator 23.0.1, SVG Export Plug-In . SVG Version: 6.00 Build 0)  -->
<svg version="1.1" id="Layer_4" xmlns="http://www.w3.org/2000/svg" xmlns:xlink="http://www.w3.org/1999/xlink" x="0px" y="0px"
	 viewBox="0 0 1061 200" style="enable-background:new 0 0 1061 200;" xml:space="preserve">
<style type="text/css">
	.st0{enable-background:new    ;}
	.st1{fill:#FFFFFF;}
</style>
<g class="st0">
	<path class="st1" d="M378.8,55.8h28.8c0.2,0.7,0.3,1.5,0.4,2.4c0.1,0.9,0.2,1.9,0.2,2.8c0,3.8-0.6,7.3-1.7,10.7
		c-1.1,3.3-3,6.3-5.4,9c-2.6,2.8-5.8,5-9.4,6.5c-3.7,1.5-7.9,2.3-12.6,2.3c-4.3,0-8.3-0.8-12.1-2.3s-7.1-3.7-9.9-6.4
		c-2.8-2.7-5-6-6.7-9.7c-1.6-3.7-2.5-7.8-2.5-12.3c0-4.4,0.8-8.5,2.5-12.3c1.6-3.7,3.9-7,6.7-9.7s6.1-4.9,9.9-6.4s7.8-2.3,12.1-2.3
		c4.8,0,9,0.8,12.8,2.5c3.7,1.6,7,3.9,9.6,6.8l-7.6,7.5c-1.9-2-4.1-3.6-6.4-4.6c-2.4-1.1-5.2-1.6-8.5-1.6c-2.7,0-5.2,0.5-7.6,1.4
		c-2.4,1-4.5,2.3-6.3,4.1s-3.2,3.9-4.3,6.4c-1.1,2.5-1.6,5.3-1.6,8.3c0,3.1,0.5,5.8,1.6,8.3c1.1,2.5,2.5,4.6,4.4,6.4
		c1.8,1.8,4,3.1,6.4,4.1c2.4,1,5,1.4,7.7,1.4c3.1,0,5.8-0.5,7.9-1.4c2.2-0.9,4-2.1,5.5-3.5c1.1-1,2-2.2,2.8-3.7
		c0.8-1.5,1.4-3.2,1.8-5h-18.5V55.8L378.8,55.8z"/>
	<path class="st1" d="M417.4,29.3h19.9c4.7,0,8.8,0.7,12.6,2.1c3.7,1.4,6.9,3.4,9.5,6s4.6,5.7,6,9.3s2.1,7.6,2.1,11.9
		c0,4.4-0.7,8.4-2.1,12s-3.4,6.7-6,9.3c-2.6,2.6-5.8,4.6-9.5,6S442,88,437.3,88h-19.9V29.3z M436.8,77.6c3.2,0,6.1-0.5,8.5-1.4
		c2.4-0.9,4.5-2.2,6.2-3.8c1.6-1.6,2.9-3.6,3.7-6c0.8-2.3,1.2-4.9,1.2-7.8c0-2.8-0.4-5.4-1.2-7.8c-0.8-2.3-2.1-4.3-3.7-6
		c-1.6-1.6-3.7-2.9-6.2-3.8s-5.3-1.4-8.5-1.4h-8.3v37.8h8.3V77.6z"/>
	<path class="st1" d="M504.4,55.8h28.8c0.2,0.7,0.3,1.5,0.4,2.4c0.1,0.9,0.2,1.9,0.2,2.8c0,3.8-0.6,7.3-1.7,10.7
		c-1.1,3.3-3,6.3-5.4,9c-2.6,2.8-5.8,5-9.4,6.5c-3.7,1.5-7.9,2.3-12.6,2.3c-4.3,0-8.3-0.8-12.1-2.3s-7.1-3.7-9.9-6.4
		c-2.8-2.7-5-6-6.7-9.7c-1.6-3.7-2.5-7.8-2.5-12.3c0-4.4,0.8-8.5,2.5-12.3c1.6-3.7,3.9-7,6.7-9.7c2.8-2.7,6.1-4.9,9.9-6.4
		s7.8-2.3,12.1-2.3c4.8,0,9,0.8,12.8,2.5c3.7,1.6,7,3.9,9.6,6.8l-7.6,7.5c-1.9-2-4.1-3.6-6.4-4.6c-2.4-1.1-5.2-1.6-8.5-1.6
		c-2.7,0-5.2,0.5-7.6,1.4c-2.4,1-4.5,2.3-6.3,4.1s-3.2,3.9-4.3,6.4s-1.6,5.3-1.6,8.3c0,3.1,0.5,5.8,1.6,8.3s2.5,4.6,4.4,6.4
		c1.8,1.8,4,3.1,6.4,4.1s5,1.4,7.7,1.4c3.1,0,5.8-0.5,7.9-1.4c2.2-0.9,4-2.1,5.5-3.5c1.1-1,2-2.2,2.8-3.7s1.4-3.2,1.8-5h-18.5
		L504.4,55.8L504.4,55.8z"/>
	<path class="st1" d="M561,29.3h11.1v23.5h24.7V29.3h11.1v58.8h-11.1V63.3h-24.7v24.8H561V29.3z"/>
	<path class="st1" d="M634.6,60.7l-19.8-31.4H628l11.7,19.5h0.7l11.3-19.5h13.4l-19.5,31.4V88h-11.1L634.6,60.7L634.6,60.7z"/>
	<path class="st1" d="M672.1,29.3H692c4.7,0,8.8,0.7,12.6,2.1c3.7,1.4,6.9,3.4,9.5,6c2.6,2.6,4.6,5.7,6,9.3
		c1.4,3.6,2.1,7.6,2.1,11.9c0,4.4-0.7,8.4-2.1,12c-1.4,3.6-3.4,6.7-6,9.3c-2.6,2.6-5.8,4.6-9.5,6c-3.7,1.4-7.9,2.1-12.6,2.1h-19.9
		V29.3z M691.4,77.6c3.2,0,6.1-0.5,8.5-1.4c2.5-0.9,4.5-2.2,6.2-3.8c1.6-1.6,2.9-3.6,3.7-6c0.8-2.3,1.2-4.9,1.2-7.8
		c0-2.8-0.4-5.4-1.2-7.8c-0.8-2.3-2.1-4.3-3.7-6c-1.6-1.6-3.7-2.9-6.2-3.8c-2.5-0.9-5.3-1.4-8.5-1.4h-8.3v37.8h8.3V77.6z"/>
	<path class="st1" d="M742.2,39.8v13.6h23.6v10.5h-23.6v13.6h26.2V88h-37.3V29.3h37.3v10.5H742.2z"/>
	<path class="st1" d="M778.6,29.3H800c3,0,5.6,0.5,8,1.4s4.5,2.2,6.2,3.9c1.7,1.6,3.1,3.6,4,5.9c0.9,2.3,1.4,4.8,1.4,7.4
		c0,2-0.3,3.8-1,5.5s-1.6,3.3-2.7,4.7c-1.1,1.4-2.5,2.6-4,3.7s-3.1,1.9-4.8,2.5l-0.1,0.6l15.8,22.6v0.7H810L794.8,66h-5.2v22.1
		h-11.1L778.6,29.3L778.6,29.3z M799.9,55.8c2.5,0,4.6-0.8,6.2-2.3c1.6-1.5,2.4-3.5,2.4-5.8c0-1-0.2-2.1-0.5-3
		c-0.4-1-0.9-1.9-1.6-2.6c-0.7-0.8-1.6-1.4-2.7-1.8c-1.1-0.5-2.3-0.7-3.7-0.7h-10.4v16.3h10.3V55.8z"/>
	<path class="st1" d="M846.6,29.3h12.6l22.1,58.8h-12.2l-4.8-14h-22.7l-4.8,14h-12.2L846.6,29.3z M860.7,63.9l-5.3-14.7l-2.1-7.1
		h-0.7l-2.1,7.1l-5.3,14.7H860.7z"/>
	<path class="st1" d="M888.3,29.3h23c2.5,0,4.9,0.4,7.1,1.2c2.2,0.8,4.1,1.9,5.7,3.3c1.6,1.4,2.9,3,3.8,4.9c0.9,1.9,1.4,3.9,1.4,6
		c0,3.1-0.8,5.7-2.3,7.8s-3.4,3.7-5.6,4.8V58c3,1.1,5.4,2.8,7.3,5.1c1.8,2.3,2.8,5.2,2.8,8.7c0,2.5-0.5,4.8-1.5,6.8
		s-2.4,3.7-4.1,5.1c-1.8,1.4-3.8,2.5-6.1,3.3s-4.8,1.1-7.5,1.1h-23.8V29.3H888.3z M910.4,53.3c2.6,0,4.6-0.7,6-2.1
		c1.4-1.4,2.1-3.1,2.1-5s-0.7-3.6-2.1-4.9c-1.4-1.4-3.3-2.1-5.7-2.1h-11.4v14L910.4,53.3L910.4,53.3z M911.7,77.9
		c2.8,0,4.9-0.7,6.4-2.1s2.2-3.2,2.2-5.4c0-2.2-0.8-4-2.3-5.5c-1.5-1.4-3.7-2.2-6.7-2.2h-12v15.1L911.7,77.9L911.7,77.9z"/>
	<path class="st1" d="M956.2,29.3h12.6L991,88.1h-12.2l-4.8-14h-22.7l-4.8,14h-12.2L956.2,29.3z M970.3,63.9L965,49.2l-2.1-7.1h-0.7
		l-2.1,7.1l-5.3,14.7H970.3z"/>
	<path class="st1" d="M997.9,29.3h19.9c4.7,0,8.8,0.7,12.6,2.1c3.7,1.4,6.9,3.4,9.5,6s4.6,5.7,6,9.3s2.1,7.6,2.1,11.9
		c0,4.4-0.7,8.4-2.1,12s-3.4,6.7-6,9.3c-2.6,2.6-5.8,4.6-9.5,6s-7.9,2.1-12.6,2.1h-19.9V29.3z M1017.3,77.6c3.2,0,6.1-0.5,8.5-1.4
		c2.5-0.9,4.5-2.2,6.2-3.8c1.6-1.6,2.9-3.6,3.7-6c0.8-2.3,1.2-4.9,1.2-7.8c0-2.8-0.4-5.4-1.2-7.8c-0.8-2.3-2.1-4.3-3.7-6
		c-1.6-1.6-3.7-2.9-6.2-3.8c-2.5-0.9-5.3-1.4-8.5-1.4h-8.3v37.8h8.3V77.6z"/>
</g>
<g class="st0">
	<path class="st1" d="M387.5,178.6c-6.4,0-11.7-2.1-16-6.4c-4.2-4.3-6.4-9.6-6.4-16s2.1-11.7,6.4-16c4.2-4.3,9.6-6.5,16-6.5
		c6.5,0,11.7,2.3,15.8,7l-4,3.8c-3.1-3.7-7-5.6-11.8-5.6s-8.7,1.6-11.9,4.8s-4.7,7.3-4.7,12.4s1.6,9.2,4.7,12.4
		c3.2,3.2,7.2,4.8,11.9,4.8c5,0,9.3-2.1,13-6.3l4,3.9c-2,2.4-4.5,4.3-7.5,5.7C394.1,177.9,390.9,178.6,387.5,178.6z"/>
	<path class="st1" d="M407.2,162.9c0-4.5,1.4-8.3,4.3-11.2c2.9-3,6.5-4.4,10.9-4.4s8,1.5,10.8,4.4c2.9,3,4.3,6.7,4.3,11.2
		c0,4.6-1.4,8.3-4.3,11.2c-2.8,3-6.4,4.4-10.8,4.4s-8-1.5-10.9-4.4S407.2,167.5,407.2,162.9z M412.7,162.9c0,3.2,0.9,5.7,2.8,7.7
		c1.8,2,4.1,2.9,6.8,2.9c2.7,0,5-1,6.8-2.9c1.8-2,2.8-4.5,2.8-7.7c0-3.1-0.9-5.7-2.8-7.6c-1.9-2-4.2-3-6.8-3c-2.7,0-5,1-6.8,3
		C413.7,157.3,412.7,159.8,412.7,162.9z"/>
	<path class="st1" d="M441.9,148.2h5.3v4.1h0.2c0.8-1.4,2.1-2.6,3.9-3.6c1.7-1,3.5-1.4,5.4-1.4c3.6,0,6.4,1,8.3,3.1
		c1.9,2.1,2.9,5,2.9,8.8v18.5h-5.5v-18.1c-0.1-4.8-2.5-7.2-7.3-7.2c-2.2,0-4,0.9-5.5,2.7s-2.2,3.9-2.2,6.4v16.3h-5.5V148.2z"/>
	<path class="st1" d="M474.4,148.2h5.3v4.1h0.2c0.8-1.4,2.1-2.6,3.9-3.6c1.7-1,3.5-1.4,5.4-1.4c3.6,0,6.4,1,8.3,3.1s2.9,5,2.9,8.8
		v18.5h-5.5v-18.1c-0.1-4.8-2.5-7.2-7.3-7.2c-2.2,0-4,0.9-5.5,2.7s-2.2,3.9-2.2,6.4v16.3h-5.5L474.4,148.2L474.4,148.2z"/>
	<path class="st1" d="M520.1,178.6c-4.3,0-7.9-1.5-10.7-4.4c-2.8-3-4.2-6.7-4.2-11.2s1.4-8.2,4.1-11.2s6.2-4.5,10.4-4.5
		c4.4,0,7.8,1.4,10.4,4.2s3.9,6.8,3.9,11.8v0.7h-23.1c0.1,2.9,1,5.2,2.9,7c1.8,1.8,4,2.6,6.6,2.6c3.5,0,6.3-1.8,8.3-5.3l4.9,2.4
		c-1.3,2.5-3.1,4.4-5.5,5.8C525.7,177.9,523.1,178.6,520.1,178.6z M511.3,159.4h16.9c-0.2-2-1-3.7-2.5-5.1s-3.5-2-6-2
		c-2.1,0-3.9,0.6-5.4,1.9C512.8,155.5,511.8,157.2,511.3,159.4z"/>
	<path class="st1" d="M552.8,178.6c-4.4,0-8-1.5-10.9-4.4c-2.8-3-4.3-6.8-4.3-11.2c0-4.5,1.4-8.3,4.3-11.2c2.9-3,6.5-4.4,10.9-4.4
		c3,0,5.6,0.8,7.9,2.2c2.2,1.5,3.9,3.6,5,6.2l-5,2.1c-1.6-3.7-4.3-5.5-8.2-5.5c-2.5,0-4.7,1-6.5,3.1c-1.8,2-2.7,4.6-2.7,7.6
		s0.9,5.5,2.7,7.6c1.8,2,4,3.1,6.5,3.1c4,0,6.9-1.8,8.5-5.5l4.9,2.1c-1.1,2.6-2.8,4.7-5.1,6.2C558.5,177.9,555.9,178.6,552.8,178.6z
		"/>
	<path class="st1" d="M582.1,178.1c-2.4,0-4.4-0.7-6-2.2c-1.6-1.5-2.4-3.5-2.4-6.2v-16.4h-5.2v-5h5.2v-9h5.5v9h7.2v5h-7.2v14.6
		c0,2,0.4,3.3,1.1,4c0.8,0.7,1.6,1.1,2.6,1.1c0.4,0,0.9-0.1,1.3-0.2s0.8-0.2,1.2-0.4l1.7,4.9C585.7,177.9,584,178.1,582.1,178.1z"/>
	<path class="st1" d="M610.9,184.8h-5v-54.7h5V184.8z"/>
	<path class="st1" d="M651.7,178.6c-6.4,0-11.7-2.1-16-6.4c-4.2-4.3-6.4-9.6-6.4-16s2.1-11.7,6.4-16c4.2-4.3,9.6-6.5,16-6.5
		c6.5,0,11.7,2.3,15.8,7l-4,3.8c-3.1-3.7-7-5.6-11.8-5.6s-8.7,1.6-11.9,4.8c-3.2,3.2-4.7,7.3-4.7,12.4s1.6,9.2,4.7,12.4
		c3.2,3.2,7.2,4.8,11.9,4.8c5,0,9.3-2.1,13-6.3l4,3.9c-2,2.4-4.5,4.3-7.5,5.7C658.3,177.9,655.1,178.6,651.7,178.6z"/>
	<path class="st1" d="M671.4,162.9c0-4.5,1.4-8.3,4.3-11.2c2.9-3,6.5-4.4,10.9-4.4s8,1.5,10.8,4.4c2.9,3,4.3,6.7,4.3,11.2
		c0,4.6-1.4,8.3-4.3,11.2c-2.8,3-6.4,4.4-10.8,4.4s-8-1.5-10.9-4.4C672.8,171.2,671.4,167.5,671.4,162.9z M676.9,162.9
		c0,3.2,0.9,5.7,2.8,7.7c1.8,2,4.1,2.9,6.8,2.9c2.7,0,5-1,6.8-2.9c1.8-2,2.8-4.5,2.8-7.7c0-3.1-0.9-5.7-2.8-7.6c-1.9-2-4.2-3-6.8-3
		s-5,1-6.8,3C677.8,157.3,676.9,159.8,676.9,162.9z"/>
	<path class="st1" d="M719,178.6c-3.8,0-7.1-1.5-9.9-4.6c-2.7-3.1-4.1-6.8-4.1-11.1s1.4-8,4.1-11.1c2.8-3,6.1-4.6,9.9-4.6
		c2.2,0,4.1,0.5,5.9,1.4c1.8,0.9,3.2,2.1,4.1,3.7h0.2l-0.2-4.1v-13.6h5.5v43h-5.3v-4.1H729c-1,1.5-2.3,2.7-4.1,3.7
		C723.1,178.2,721.1,178.6,719,178.6z M719.9,173.6c2.7,0,4.9-1,6.7-2.9c1.8-2,2.7-4.5,2.7-7.7c0-3.1-0.9-5.6-2.7-7.6s-4-3-6.7-3
		c-2.6,0-4.9,1-6.7,3c-1.8,2-2.7,4.5-2.7,7.6s0.9,5.7,2.7,7.6C715,172.6,717.2,173.6,719.9,173.6z"/>
	<path class="st1" d="M754.1,178.6c-4.3,0-7.9-1.5-10.7-4.4c-2.8-3-4.2-6.7-4.2-11.2s1.4-8.2,4.1-11.2c2.7-3,6.2-4.5,10.4-4.5
		c4.4,0,7.8,1.4,10.4,4.2s3.9,6.8,3.9,11.8v0.7h-23.1c0.1,2.9,1,5.2,2.9,7c1.8,1.8,4,2.6,6.6,2.6c3.5,0,6.3-1.8,8.3-5.3l4.9,2.4
		c-1.3,2.5-3.2,4.4-5.5,5.8S757.1,178.6,754.1,178.6z M745.3,159.4h16.9c-0.2-2-1-3.7-2.5-5.1s-3.5-2-6-2c-2.1,0-3.9,0.6-5.4,1.9
		C746.8,155.5,745.8,157.2,745.3,159.4z"/>
	<path class="st1" d="M792.3,184.8h-5v-54.7h5V184.8z"/>
	<path class="st1" d="M819.7,177.7h-5.5v-43h5.5V177.7z"/>
	<path class="st1" d="M827.3,148.2h5.3v4.1h0.2c0.8-1.4,2.1-2.6,3.9-3.6c1.7-1,3.5-1.4,5.4-1.4c3.6,0,6.4,1,8.3,3.1
		c1.9,2.1,2.9,5,2.9,8.8v18.5h-5.5v-18.1c-0.1-4.8-2.5-7.2-7.3-7.2c-2.2,0-4,0.9-5.5,2.7s-2.2,3.9-2.2,6.4v16.3h-5.5L827.3,148.2
		L827.3,148.2z"/>
	<path class="st1" d="M859.9,148.2h5.3v4.1h0.2c0.8-1.4,2.1-2.6,3.9-3.6c1.7-1,3.5-1.4,5.4-1.4c3.6,0,6.4,1,8.3,3.1
		c1.9,2.1,2.9,5,2.9,8.8v18.5h-5.5v-18.1c-0.1-4.8-2.5-7.2-7.3-7.2c-2.2,0-4,0.9-5.5,2.7s-2.2,3.9-2.2,6.4v16.3h-5.5L859.9,148.2
		L859.9,148.2z"/>
	<path class="st1" d="M890.7,162.9c0-4.5,1.4-8.3,4.3-11.2c2.9-3,6.5-4.4,10.9-4.4s8,1.5,10.8,4.4c2.9,3,4.3,6.7,4.3,11.2
		c0,4.6-1.4,8.3-4.3,11.2c-2.8,3-6.4,4.4-10.8,4.4c-4.4,0-8-1.5-10.9-4.4S890.7,167.5,890.7,162.9z M896.2,162.9
		c0,3.2,0.9,5.7,2.8,7.7c1.8,2,4.1,2.9,6.8,2.9s5-1,6.8-2.9c1.8-2,2.8-4.5,2.8-7.7c0-3.1-0.9-5.7-2.8-7.6c-1.9-2-4.2-3-6.8-3
		s-5,1-6.8,3C897.1,157.3,896.2,159.8,896.2,162.9z"/>
	<path class="st1" d="M939.7,177.7h-5.5l-11.9-29.4h6l8.6,22.8h0.1l8.8-22.8h5.9L939.7,177.7z"/>
	<path class="st1" d="M965.8,147.3c4.1,0,7.3,1.1,9.7,3.3s3.5,5.2,3.5,9v18.1h-5.3v-4.1h-0.2c-2.3,3.4-5.3,5-9.1,5
		c-3.2,0-6-1-8.1-2.9c-2.2-1.9-3.3-4.3-3.3-7.2c0-3,1.1-5.5,3.5-7.3c2.3-1.8,5.4-2.7,9.2-2.7c3.3,0,6,0.6,8.1,1.8V159
		c0-1.9-0.8-3.5-2.3-4.9c-1.5-1.3-3.3-2-5.3-2c-3.1,0-5.5,1.3-7.3,3.9l-4.9-3.1C956.6,149.2,960.6,147.3,965.8,147.3z M958.7,168.7
		c0,1.4,0.6,2.6,1.8,3.6s2.6,1.4,4.3,1.4c2.3,0,4.4-0.9,6.2-2.6c1.8-1.7,2.7-3.7,2.7-6.1c-1.7-1.4-4.1-2-7.2-2
		c-2.2,0-4.1,0.5-5.6,1.6S958.7,167.1,958.7,168.7z"/>
	<path class="st1" d="M996.3,178.1c-2.4,0-4.4-0.7-6-2.2s-2.4-3.5-2.4-6.2v-16.4h-5.2v-5h5.2v-9h5.5v9h7.2v5h-7.2v14.6
		c0,2,0.4,3.3,1.1,4c0.8,0.7,1.6,1.1,2.6,1.1c0.4,0,0.9-0.1,1.3-0.2s0.8-0.2,1.2-0.4l1.7,4.9C999.9,177.9,998.2,178.1,996.3,178.1z"
		/>
	<path class="st1" d="M1018.8,178.6c-4.3,0-7.9-1.5-10.7-4.4c-2.8-3-4.2-6.7-4.2-11.2s1.4-8.2,4.1-11.2c2.7-3,6.2-4.5,10.4-4.5
		c4.4,0,7.8,1.4,10.4,4.2c2.6,2.8,3.9,6.8,3.9,11.8l-0.1,0.6h-23.1c0.1,2.9,1,5.2,2.9,7c1.8,1.8,4,2.6,6.6,2.6
		c3.5,0,6.3-1.8,8.3-5.3l4.9,2.4c-1.3,2.5-3.2,4.4-5.5,5.8S1021.8,178.6,1018.8,178.6z M1010,159.4h16.9c-0.2-2-1-3.7-2.5-5.1
		s-3.5-2-6-2c-2.1,0-3.9,0.6-5.4,1.9C1011.4,155.5,1010.5,157.2,1010,159.4z"/>
</g>
<path class="st1" d="M243.2,98.3c-7.5-6.2-15.9-10.9-24-16.1c-8.5-5.6-17.2-10.7-25.7-16.1c-10.2-6.6-14.5-17.4-12.4-29.5
	c1.8-11.1,10.8-19.8,22-21.4c5.3-0.8,10.3,0.9,15,3.9c28.5,18.1,57,36,85.4,54.1c9,5.7,14.7,13.6,14.3,25.3
	c-0.3,12-6.2,20.2-15.9,25.3l-2.8,1.5c-8.5,1.5-16-1.4-23.3-6.2C265.2,111.8,254.1,105.1,243.2,98.3z"/>
<path class="st1" d="M80.1,101.8c6.5,5.2,13.6,9.3,20.7,13.7c9.8,6.2,19.8,12.2,29.5,18.6c9.5,6.2,14.3,17.7,12.2,28.9
	c-1.9,11.1-10.7,19.8-21.8,21.7c-5.6,0.9-10.7-1-15.3-4c-28.4-17.9-56.7-35.9-85-53.8c-9.3-5.9-15.6-14-14.8-26.5
	c0.7-12.2,7.3-19.8,16.9-24.5l1.6-0.9c8-1.4,15.1,0.7,22,5.3C57.3,87.9,68.8,94.7,80.1,101.8z"/>
<path class="st1" d="M80.1,97.8c-11.4-7-22.8-13.9-34-21.4c-6.9-4.7-14.1-6.7-22-5.3c10.1-7.6,21-13.9,31.6-20.6
	C71.9,40,88.2,29.7,104.5,19.5c5.3-3.4,10.9-5.1,17.2-4c10.5,1.9,18.2,9.9,20.6,21.2c2.2,10.1-2,21.8-10.8,27.6
	C117,74,102.3,83.2,87.7,92.6L80.1,97.8z"/>
<path class="st1" d="M243.2,102.3c10.9,6.8,21.8,13.5,32.6,20.7c7.3,4.9,14.8,7.7,23.3,6.2c-3,3.2-6.7,4.8-10.2,7
	c-23.3,14.8-46.5,29.5-69.9,44.2c-14.3,9-30.8,3.3-36.7-12.6c-4.8-12.8,0.1-26.7,12-34.4c14.9-9.5,29.6-18.9,44.5-28.4
	C240.4,104.1,241.9,103.2,243.2,102.3z"/>
</svg>
